<?xml version="1.0" encoding="UTF-8" standalone="no"?>
<!DOCTYPE svg PUBLIC "-//W3C//DTD SVG 1.1//EN"
 "http://www.w3.org/Graphics/SVG/1.1/DTD/svg11.dtd">
<!-- Generated by graphviz version 2.43.0 (0)
 -->
<!-- Title: RenderGraph Pages: 1 -->
<svg width="10166pt" height="597pt"
 viewBox="0.00 0.00 10166.00 596.96" xmlns="http://www.w3.org/2000/svg" xmlns:xlink="http://www.w3.org/1999/xlink">
<g id="graph0" class="graph" transform="scale(1 1) rotate(0) translate(4 592.96)">
<title>RenderGraph</title>
<polygon fill="#0d1117" stroke="transparent" points="-4,4 -4,-592.96 10162,-592.96 10162,4 -4,4"/>
<g id="clust1" class="cluster">
<title>cluster_Core2d</title>
<path fill="#343a42" stroke="#343a42" d="M41,-37.96C41,-37.96 4375,-37.96 4375,-37.96 4381,-37.96 4387,-43.96 4387,-49.96 4387,-49.96 4387,-226.96 4387,-226.96 4387,-232.96 4381,-238.96 4375,-238.96 4375,-238.96 41,-238.96 41,-238.96 35,-238.96 29,-232.96 29,-226.96 29,-226.96 29,-49.96 29,-49.96 29,-43.96 35,-37.96 41,-37.96"/>
<text text-anchor="middle" x="2208" y="-223.76" font-family="Times,serif" font-size="14.00" fill="white">Core2d</text>
</g>
<g id="clust2" class="cluster">
<title>cluster_Core2d_SubGraphUi</title>
<path fill="#6f90ad" stroke="#6f90ad" d="M111,-126.96C111,-126.96 192,-126.96 192,-126.96 198,-126.96 204,-132.96 204,-138.96 204,-138.96 204,-195.96 204,-195.96 204,-201.96 198,-207.96 192,-207.96 192,-207.96 111,-207.96 111,-207.96 105,-207.96 99,-201.96 99,-195.96 99,-195.96 99,-138.96 99,-138.96 99,-132.96 105,-126.96 111,-126.96"/>
<text text-anchor="middle" x="151.5" y="-192.76" font-family="Times,serif" font-size="14.00">SubGraphUi</text>
</g>
<g id="clust3" class="cluster">
<title>cluster_Core3d</title>
<path fill="#343a42" stroke="#343a42" d="M20,-246.96C20,-246.96 10138,-246.96 10138,-246.96 10144,-246.96 10150,-252.96 10150,-258.96 10150,-258.96 10150,-526.96 10150,-526.96 10150,-532.96 10144,-538.96 10138,-538.96 10138,-538.96 20,-538.96 20,-538.96 14,-538.96 8,-532.96 8,-526.96 8,-526.96 8,-258.96 8,-258.96 8,-252.96 14,-246.96 20,-246.96"/>
<text text-anchor="middle" x="5079" y="-523.76" font-family="Times,serif" font-size="14.00" fill="white">Core3d</text>
</g>
<g id="clust4" class="cluster">
<title>cluster_Core3d_SubGraphUi</title>
<path fill="#6f90ad" stroke="#6f90ad" d="M111,-426.96C111,-426.96 192,-426.96 192,-426.96 198,-426.96 204,-432.96 204,-438.96 204,-438.96 204,-495.96 204,-495.96 204,-501.96 198,-507.96 192,-507.96 192,-507.96 111,-507.96 111,-507.96 105,-507.96 99,-501.96 99,-495.96 99,-495.96 99,-438.96 99,-438.96 99,-432.96 105,-426.96 111,-426.96"/>
<text text-anchor="middle" x="151.5" y="-492.76" font-family="Times,serif" font-size="14.00">SubGraphUi</text>
</g>
<!-- _Core2d_SubGraphUi__Core2d_SubGraphUiUiPass -->
<g id="node1" class="node">
<title>_Core2d_SubGraphUi__Core2d_SubGraphUiUiPass</title>
<text text-anchor="start" x="128" y="-157.76" font-family="Helvetica,sans-Serif" font-size="14.00" fill="white">UiPass</text>
<text text-anchor="start" x="122" y="-146.96" font-family="Helvetica,sans-Serif" font-size="10.00" fill="red">UiPassNode</text>
<path fill="none" stroke="white" d="M128.33,-138.96C128.33,-138.96 173.67,-138.96 173.67,-138.96 179.33,-138.96 185,-144.63 185,-150.29 185,-150.29 185,-161.63 185,-161.63 185,-167.29 179.33,-172.96 173.67,-172.96 173.67,-172.96 128.33,-172.96 128.33,-172.96 122.67,-172.96 117,-167.29 117,-161.63 117,-161.63 117,-150.29 117,-150.29 117,-144.63 122.67,-138.96 128.33,-138.96"/>
</g>
<!-- _Core2d__Core2dContrastAdaptiveSharpening -->
<g id="node2" class="node">
<title>_Core2d__Core2dContrastAdaptiveSharpening</title>
<text text-anchor="start" x="3249.5" y="-128.76" font-family="Helvetica,sans-Serif" font-size="14.00" fill="white">ContrastAdaptiveSharpening</text>
<text text-anchor="start" x="3328" y="-117.96" font-family="Helvetica,sans-Serif" font-size="10.00" fill="red">CasNode</text>
<path fill="none" stroke="white" d="M3255.33,-109.96C3255.33,-109.96 3444.67,-109.96 3444.67,-109.96 3450.33,-109.96 3456,-115.63 3456,-121.29 3456,-121.29 3456,-132.63 3456,-132.63 3456,-138.29 3450.33,-143.96 3444.67,-143.96 3444.67,-143.96 3255.33,-143.96 3255.33,-143.96 3249.67,-143.96 3244,-138.29 3244,-132.63 3244,-132.63 3244,-121.29 3244,-121.29 3244,-115.63 3249.67,-109.96 3255.33,-109.96"/>
</g>
<!-- _Core2d__Core2dEndMainPassPostProcessing -->
<g id="node4" class="node">
<title>_Core2d__Core2dEndMainPassPostProcessing</title>
<text text-anchor="start" x="3569.5" y="-128.76" font-family="Helvetica,sans-Serif" font-size="14.00" fill="white">EndMainPassPostProcessing</text>
<text text-anchor="start" x="3638" y="-117.96" font-family="Helvetica,sans-Serif" font-size="10.00" fill="red">EmptyNode</text>
<path fill="none" stroke="white" d="M3575.33,-109.96C3575.33,-109.96 3758.67,-109.96 3758.67,-109.96 3764.33,-109.96 3770,-115.63 3770,-121.29 3770,-121.29 3770,-132.63 3770,-132.63 3770,-138.29 3764.33,-143.96 3758.67,-143.96 3758.67,-143.96 3575.33,-143.96 3575.33,-143.96 3569.67,-143.96 3564,-138.29 3564,-132.63 3564,-132.63 3564,-121.29 3564,-121.29 3564,-115.63 3569.67,-109.96 3575.33,-109.96"/>
</g>
<!-- _Core2d__Core2dContrastAdaptiveSharpening&#45;&gt;_Core2d__Core2dEndMainPassPostProcessing -->
<g id="edge7" class="edge">
<title>_Core2d__Core2dContrastAdaptiveSharpening:e&#45;&gt;_Core2d__Core2dEndMainPassPostProcessing:w</title>
<path fill="none" stroke="white" d="M3454,-126.96C3500.18,-126.96 3514.23,-126.96 3555.77,-126.96"/>
<polygon fill="white" stroke="white" points="3556,-130.46 3566,-126.96 3556,-123.46 3556,-130.46"/>
</g>
<!-- _Core2d__Core2dEndMainPass -->
<g id="node3" class="node">
<title>_Core2d__Core2dEndMainPass</title>
<text text-anchor="start" x="1392.5" y="-126.76" font-family="Helvetica,sans-Serif" font-size="14.00" fill="white">EndMainPass</text>
<text text-anchor="start" x="1409" y="-115.96" font-family="Helvetica,sans-Serif" font-size="10.00" fill="red">EmptyNode</text>
<path fill="none" stroke="white" d="M1398.33,-107.96C1398.33,-107.96 1477.67,-107.96 1477.67,-107.96 1483.33,-107.96 1489,-113.63 1489,-119.29 1489,-119.29 1489,-130.63 1489,-130.63 1489,-136.29 1483.33,-141.96 1477.67,-141.96 1477.67,-141.96 1398.33,-141.96 1398.33,-141.96 1392.67,-141.96 1387,-136.29 1387,-130.63 1387,-130.63 1387,-119.29 1387,-119.29 1387,-113.63 1392.67,-107.96 1398.33,-107.96"/>
</g>
<!-- _Core2d__Core2dStartMainPassPostProcessing -->
<g id="node6" class="node">
<title>_Core2d__Core2dStartMainPassPostProcessing</title>
<text text-anchor="start" x="1671" y="-126.76" font-family="Helvetica,sans-Serif" font-size="14.00" fill="white">StartMainPassPostProcessing</text>
<text text-anchor="start" x="1743" y="-115.96" font-family="Helvetica,sans-Serif" font-size="10.00" fill="red">EmptyNode</text>
<path fill="none" stroke="white" d="M1677.33,-107.96C1677.33,-107.96 1866.67,-107.96 1866.67,-107.96 1872.33,-107.96 1878,-113.63 1878,-119.29 1878,-119.29 1878,-130.63 1878,-130.63 1878,-136.29 1872.33,-141.96 1866.67,-141.96 1866.67,-141.96 1677.33,-141.96 1677.33,-141.96 1671.67,-141.96 1666,-136.29 1666,-130.63 1666,-130.63 1666,-119.29 1666,-119.29 1666,-113.63 1671.67,-107.96 1677.33,-107.96"/>
</g>
<!-- _Core2d__Core2dEndMainPass&#45;&gt;_Core2d__Core2dStartMainPassPostProcessing -->
<g id="edge9" class="edge">
<title>_Core2d__Core2dEndMainPass:e&#45;&gt;_Core2d__Core2dStartMainPassPostProcessing:w</title>
<path fill="none" stroke="white" d="M1487,-124.96C1563.99,-124.96 1585.72,-124.96 1657.95,-124.96"/>
<polygon fill="white" stroke="white" points="1658,-128.46 1668,-124.96 1658,-121.46 1658,-128.46"/>
</g>
<!-- _Core2d__Core2dUiPass -->
<g id="node16" class="node">
<title>_Core2d__Core2dUiPass</title>
<text text-anchor="start" x="3948" y="-168.76" font-family="Helvetica,sans-Serif" font-size="14.00" fill="white">UiPass</text>
<text text-anchor="start" x="3896.5" y="-157.96" font-family="Helvetica,sans-Serif" font-size="10.00" fill="red">RunUiSubgraphOnUiViewNode</text>
<path fill="none" stroke="white" d="M3902.33,-149.96C3902.33,-149.96 4039.67,-149.96 4039.67,-149.96 4045.33,-149.96 4051,-155.63 4051,-161.29 4051,-161.29 4051,-172.63 4051,-172.63 4051,-178.29 4045.33,-183.96 4039.67,-183.96 4039.67,-183.96 3902.33,-183.96 3902.33,-183.96 3896.67,-183.96 3891,-178.29 3891,-172.63 3891,-172.63 3891,-161.29 3891,-161.29 3891,-155.63 3896.67,-149.96 3902.33,-149.96"/>
</g>
<!-- _Core2d__Core2dEndMainPass&#45;&gt;_Core2d__Core2dUiPass -->
<g id="edge21" class="edge">
<title>_Core2d__Core2dEndMainPass:e&#45;&gt;_Core2d__Core2dUiPass:w</title>
<path fill="none" stroke="white" d="M1487,-124.96C1564.16,-124.96 1581.74,-143.21 1658,-154.96 1831.26,-181.67 1873.69,-206.96 2049,-206.96 2049,-206.96 2049,-206.96 3351,-206.96 3589.12,-206.96 3649.75,-168.09 3882.85,-166.99"/>
<polygon fill="white" stroke="white" points="3883.01,-170.49 3893,-166.96 3882.99,-163.49 3883.01,-170.49"/>
</g>
<!-- _Core2d__Core2dUpscaling -->
<g id="node12" class="node">
<title>_Core2d__Core2dUpscaling</title>
<text text-anchor="start" x="4243.5" y="-148.76" font-family="Helvetica,sans-Serif" font-size="14.00" fill="white">Upscaling</text>
<text text-anchor="start" x="4190.5" y="-137.96" font-family="Helvetica,sans-Serif" font-size="10.00" fill="red">ViewNodeRunner&lt;UpscalingNode&gt;</text>
<path fill="none" stroke="white" d="M4196.33,-129.96C4196.33,-129.96 4359.67,-129.96 4359.67,-129.96 4365.33,-129.96 4371,-135.63 4371,-141.29 4371,-141.29 4371,-152.63 4371,-152.63 4371,-158.29 4365.33,-163.96 4359.67,-163.96 4359.67,-163.96 4196.33,-163.96 4196.33,-163.96 4190.67,-163.96 4185,-158.29 4185,-152.63 4185,-152.63 4185,-141.29 4185,-141.29 4185,-135.63 4190.67,-129.96 4196.33,-129.96"/>
</g>
<!-- _Core2d__Core2dEndMainPassPostProcessing&#45;&gt;_Core2d__Core2dUpscaling -->
<g id="edge17" class="edge">
<title>_Core2d__Core2dEndMainPassPostProcessing:e&#45;&gt;_Core2d__Core2dUpscaling:w</title>
<path fill="none" stroke="white" d="M3768,-126.96C3912.07,-126.96 3948.26,-127.19 4092,-136.96 4130.72,-139.59 4142.56,-145.77 4176.73,-146.81"/>
<polygon fill="white" stroke="white" points="4176.95,-150.31 4187,-146.96 4177.05,-143.32 4176.95,-150.31"/>
</g>
<!-- _Core2d__Core2dEndMainPassPostProcessing&#45;&gt;_Core2d__Core2dUiPass -->
<g id="edge22" class="edge">
<title>_Core2d__Core2dEndMainPassPostProcessing:e&#45;&gt;_Core2d__Core2dUiPass:w</title>
<path fill="none" stroke="white" d="M3768,-126.96C3822.8,-126.96 3833.48,-162.26 3882.93,-166.54"/>
<polygon fill="white" stroke="white" points="3882.86,-170.04 3893,-166.96 3883.16,-163.05 3882.86,-170.04"/>
</g>
<!-- _Core2d__Core2dStartMainPass -->
<g id="node5" class="node">
<title>_Core2d__Core2dStartMainPass</title>
<text text-anchor="start" x="392" y="-112.76" font-family="Helvetica,sans-Serif" font-size="14.00" fill="white">StartMainPass</text>
<text text-anchor="start" x="412" y="-101.96" font-family="Helvetica,sans-Serif" font-size="10.00" fill="red">EmptyNode</text>
<path fill="none" stroke="white" d="M398.33,-93.96C398.33,-93.96 483.67,-93.96 483.67,-93.96 489.33,-93.96 495,-99.63 495,-105.29 495,-105.29 495,-116.63 495,-116.63 495,-122.29 489.33,-127.96 483.67,-127.96 483.67,-127.96 398.33,-127.96 398.33,-127.96 392.67,-127.96 387,-122.29 387,-116.63 387,-116.63 387,-105.29 387,-105.29 387,-99.63 392.67,-93.96 398.33,-93.96"/>
</g>
<!-- _Core2d__Core2dMainOpaquePass -->
<g id="node9" class="node">
<title>_Core2d__Core2dMainOpaquePass</title>
<text text-anchor="start" x="677.5" y="-120.76" font-family="Helvetica,sans-Serif" font-size="14.00" fill="white">MainOpaquePass</text>
<text text-anchor="start" x="626" y="-109.96" font-family="Helvetica,sans-Serif" font-size="10.00" fill="red">ViewNodeRunner&lt;MainOpaquePass2dNode&gt;</text>
<path fill="none" stroke="white" d="M632.33,-101.96C632.33,-101.96 841.67,-101.96 841.67,-101.96 847.33,-101.96 853,-107.63 853,-113.29 853,-113.29 853,-124.63 853,-124.63 853,-130.29 847.33,-135.96 841.67,-135.96 841.67,-135.96 632.33,-135.96 632.33,-135.96 626.67,-135.96 621,-130.29 621,-124.63 621,-124.63 621,-113.29 621,-113.29 621,-107.63 626.67,-101.96 632.33,-101.96"/>
</g>
<!-- _Core2d__Core2dStartMainPass&#45;&gt;_Core2d__Core2dMainOpaquePass -->
<g id="edge12" class="edge">
<title>_Core2d__Core2dStartMainPass:e&#45;&gt;_Core2d__Core2dMainOpaquePass:w</title>
<path fill="none" stroke="white" d="M493,-110.96C547.38,-110.96 563.23,-118.02 612.95,-118.88"/>
<polygon fill="white" stroke="white" points="612.97,-122.38 623,-118.96 613.03,-115.38 612.97,-122.38"/>
</g>
<!-- _Core2d__Core2dTonemapping -->
<g id="node11" class="node">
<title>_Core2d__Core2dTonemapping</title>
<text text-anchor="start" x="2624" y="-118.76" font-family="Helvetica,sans-Serif" font-size="14.00" fill="white">Tonemapping</text>
<text text-anchor="start" x="2575" y="-107.96" font-family="Helvetica,sans-Serif" font-size="10.00" fill="red">ViewNodeRunner&lt;TonemappingNode&gt;</text>
<path fill="none" stroke="white" d="M2581.33,-99.96C2581.33,-99.96 2760.67,-99.96 2760.67,-99.96 2766.33,-99.96 2772,-105.63 2772,-111.29 2772,-111.29 2772,-122.63 2772,-122.63 2772,-128.29 2766.33,-133.96 2760.67,-133.96 2760.67,-133.96 2581.33,-133.96 2581.33,-133.96 2575.67,-133.96 2570,-128.29 2570,-122.63 2570,-122.63 2570,-111.29 2570,-111.29 2570,-105.63 2575.67,-99.96 2581.33,-99.96"/>
</g>
<!-- _Core2d__Core2dStartMainPassPostProcessing&#45;&gt;_Core2d__Core2dTonemapping -->
<g id="edge14" class="edge">
<title>_Core2d__Core2dStartMainPassPostProcessing:e&#45;&gt;_Core2d__Core2dTonemapping:w</title>
<path fill="none" stroke="white" d="M1876,-124.96C1912.46,-124.96 1921.55,-126.52 1958,-126.96 2039.77,-127.96 2060.23,-127.91 2142,-126.96 2234.31,-125.89 2460.26,-117.56 2561.71,-116.99"/>
<polygon fill="white" stroke="white" points="2562.01,-120.49 2572,-116.96 2561.99,-113.49 2562.01,-120.49"/>
</g>
<!-- _Core2d__Core2dBloom -->
<g id="node13" class="node">
<title>_Core2d__Core2dBloom</title>
<text text-anchor="start" x="2028" y="-98.76" font-family="Helvetica,sans-Serif" font-size="14.00" fill="white">Bloom</text>
<text text-anchor="start" x="1971" y="-87.96" font-family="Helvetica,sans-Serif" font-size="10.00" fill="red">ViewNodeRunner&lt;BloomNode&gt;</text>
<path fill="none" stroke="white" d="M1977.33,-79.96C1977.33,-79.96 2122.67,-79.96 2122.67,-79.96 2128.33,-79.96 2134,-85.63 2134,-91.29 2134,-91.29 2134,-102.63 2134,-102.63 2134,-108.29 2128.33,-113.96 2122.67,-113.96 2122.67,-113.96 1977.33,-113.96 1977.33,-113.96 1971.67,-113.96 1966,-108.29 1966,-102.63 1966,-102.63 1966,-91.29 1966,-91.29 1966,-85.63 1971.67,-79.96 1977.33,-79.96"/>
</g>
<!-- _Core2d__Core2dStartMainPassPostProcessing&#45;&gt;_Core2d__Core2dBloom -->
<g id="edge19" class="edge">
<title>_Core2d__Core2dStartMainPassPostProcessing:e&#45;&gt;_Core2d__Core2dBloom:w</title>
<path fill="none" stroke="white" d="M1876,-124.96C1915.07,-124.96 1923.87,-101.57 1957.74,-97.55"/>
<polygon fill="white" stroke="white" points="1958.22,-101.02 1968,-96.96 1957.82,-94.04 1958.22,-101.02"/>
</g>
<!-- _Core2d__Core2dFxaa -->
<g id="node7" class="node">
<title>_Core2d__Core2dFxaa</title>
<text text-anchor="start" x="2981" y="-88.76" font-family="Helvetica,sans-Serif" font-size="14.00" fill="white">Fxaa</text>
<text text-anchor="start" x="2922.5" y="-77.96" font-family="Helvetica,sans-Serif" font-size="10.00" fill="red">ViewNodeRunner&lt;FxaaNode&gt;</text>
<path fill="none" stroke="white" d="M2928.33,-69.96C2928.33,-69.96 3067.67,-69.96 3067.67,-69.96 3073.33,-69.96 3079,-75.63 3079,-81.29 3079,-81.29 3079,-92.63 3079,-92.63 3079,-98.29 3073.33,-103.96 3067.67,-103.96 3067.67,-103.96 2928.33,-103.96 2928.33,-103.96 2922.67,-103.96 2917,-98.29 2917,-92.63 2917,-92.63 2917,-81.29 2917,-81.29 2917,-75.63 2922.67,-69.96 2928.33,-69.96"/>
</g>
<!-- _Core2d__Core2dFxaa&#45;&gt;_Core2d__Core2dContrastAdaptiveSharpening -->
<g id="edge2" class="edge">
<title>_Core2d__Core2dFxaa:e&#45;&gt;_Core2d__Core2dContrastAdaptiveSharpening:w</title>
<path fill="none" stroke="white" d="M3077,-86.96C3150.72,-86.96 3167.37,-123.45 3235.97,-126.73"/>
<polygon fill="white" stroke="white" points="3235.92,-130.23 3246,-126.96 3236.08,-123.23 3235.92,-130.23"/>
</g>
<!-- _Core2d__Core2dFxaa&#45;&gt;_Core2d__Core2dEndMainPassPostProcessing -->
<g id="edge5" class="edge">
<title>_Core2d__Core2dFxaa:e&#45;&gt;_Core2d__Core2dEndMainPassPostProcessing:w</title>
<path fill="none" stroke="white" d="M3077,-86.96C3257.94,-86.96 3306.23,-63.21 3484,-96.96 3518.55,-103.52 3525.95,-122.83 3555.92,-126.39"/>
<polygon fill="white" stroke="white" points="3555.82,-129.89 3566,-126.96 3556.21,-122.9 3555.82,-129.89"/>
</g>
<!-- _Core2d__Core2dSmaa -->
<g id="node8" class="node">
<title>_Core2d__Core2dSmaa</title>
<text text-anchor="start" x="2978" y="-168.76" font-family="Helvetica,sans-Serif" font-size="14.00" fill="white">Smaa</text>
<text text-anchor="start" x="2921" y="-157.96" font-family="Helvetica,sans-Serif" font-size="10.00" fill="red">ViewNodeRunner&lt;SmaaNode&gt;</text>
<path fill="none" stroke="white" d="M2927.33,-149.96C2927.33,-149.96 3068.67,-149.96 3068.67,-149.96 3074.33,-149.96 3080,-155.63 3080,-161.29 3080,-161.29 3080,-172.63 3080,-172.63 3080,-178.29 3074.33,-183.96 3068.67,-183.96 3068.67,-183.96 2927.33,-183.96 2927.33,-183.96 2921.67,-183.96 2916,-178.29 2916,-172.63 2916,-172.63 2916,-161.29 2916,-161.29 2916,-155.63 2921.67,-149.96 2927.33,-149.96"/>
</g>
<!-- _Core2d__Core2dSmaa&#45;&gt;_Core2d__Core2dEndMainPassPostProcessing -->
<g id="edge6" class="edge">
<title>_Core2d__Core2dSmaa:e&#45;&gt;_Core2d__Core2dEndMainPassPostProcessing:w</title>
<path fill="none" stroke="white" d="M3078,-166.96C3258.5,-166.96 3306.67,-190.64 3484,-156.96 3518.55,-150.4 3525.95,-131.09 3555.92,-127.53"/>
<polygon fill="white" stroke="white" points="3556.21,-131.02 3566,-126.96 3555.82,-124.03 3556.21,-131.02"/>
</g>
<!-- _Core2d__Core2dMainTransparentPass -->
<g id="node10" class="node">
<title>_Core2d__Core2dMainTransparentPass</title>
<text text-anchor="start" x="1010.5" y="-124.76" font-family="Helvetica,sans-Serif" font-size="14.00" fill="white">MainTransparentPass</text>
<text text-anchor="start" x="963.5" y="-113.96" font-family="Helvetica,sans-Serif" font-size="10.00" fill="red">ViewNodeRunner&lt;MainTransparentPass2dNode&gt;</text>
<path fill="none" stroke="white" d="M969.33,-105.96C969.33,-105.96 1198.67,-105.96 1198.67,-105.96 1204.33,-105.96 1210,-111.63 1210,-117.29 1210,-117.29 1210,-128.63 1210,-128.63 1210,-134.29 1204.33,-139.96 1198.67,-139.96 1198.67,-139.96 969.33,-139.96 969.33,-139.96 963.67,-139.96 958,-134.29 958,-128.63 958,-128.63 958,-117.29 958,-117.29 958,-111.63 963.67,-105.96 969.33,-105.96"/>
</g>
<!-- _Core2d__Core2dMainOpaquePass&#45;&gt;_Core2d__Core2dMainTransparentPass -->
<g id="edge13" class="edge">
<title>_Core2d__Core2dMainOpaquePass:e&#45;&gt;_Core2d__Core2dMainTransparentPass:w</title>
<path fill="none" stroke="white" d="M851,-118.96C895.88,-118.96 909.53,-122.39 949.78,-122.9"/>
<polygon fill="white" stroke="white" points="949.98,-126.4 960,-122.96 950.02,-119.4 949.98,-126.4"/>
</g>
<!-- _Core2d__Core2dMainTransparentPass&#45;&gt;_Core2d__Core2dEndMainPass -->
<g id="edge3" class="edge">
<title>_Core2d__Core2dMainTransparentPass:e&#45;&gt;_Core2d__Core2dEndMainPass:w</title>
<path fill="none" stroke="white" d="M1208,-122.96C1284.99,-122.96 1306.71,-124.79 1378.95,-124.95"/>
<polygon fill="white" stroke="white" points="1379,-128.45 1389,-124.96 1379,-121.45 1379,-128.45"/>
</g>
<!-- _Core2d__Core2dTonemapping&#45;&gt;_Core2d__Core2dContrastAdaptiveSharpening -->
<g id="edge1" class="edge">
<title>_Core2d__Core2dTonemapping:e&#45;&gt;_Core2d__Core2dContrastAdaptiveSharpening:w</title>
<path fill="none" stroke="white" d="M2770,-116.96C2978.19,-116.96 3032.66,-126.64 3235.89,-126.95"/>
<polygon fill="white" stroke="white" points="3236,-130.45 3246,-126.96 3236,-123.45 3236,-130.45"/>
</g>
<!-- _Core2d__Core2dTonemapping&#45;&gt;_Core2d__Core2dEndMainPassPostProcessing -->
<g id="edge4" class="edge">
<title>_Core2d__Core2dTonemapping:e&#45;&gt;_Core2d__Core2dEndMainPassPostProcessing:w</title>
<path fill="none" stroke="white" d="M2770,-116.96C2815.16,-116.96 2809.08,-70.99 2852,-56.96 3119.1,30.32 3216.31,10.5 3484,-74.96 3521.58,-86.96 3522.91,-120.47 3555.82,-126.14"/>
<polygon fill="white" stroke="white" points="3555.75,-129.65 3566,-126.96 3556.31,-122.67 3555.75,-129.65"/>
</g>
<!-- _Core2d__Core2dTonemapping&#45;&gt;_Core2d__Core2dFxaa -->
<g id="edge10" class="edge">
<title>_Core2d__Core2dTonemapping:e&#45;&gt;_Core2d__Core2dFxaa:w</title>
<path fill="none" stroke="white" d="M2770,-116.96C2833.99,-116.96 2849.83,-90.04 2908.75,-87.2"/>
<polygon fill="white" stroke="white" points="2909.09,-90.7 2919,-86.96 2908.92,-83.7 2909.09,-90.7"/>
</g>
<!-- _Core2d__Core2dTonemapping&#45;&gt;_Core2d__Core2dSmaa -->
<g id="edge11" class="edge">
<title>_Core2d__Core2dTonemapping:e&#45;&gt;_Core2d__Core2dSmaa:w</title>
<path fill="none" stroke="white" d="M2770,-116.96C2835.9,-116.96 2847.49,-162.01 2907.87,-166.59"/>
<polygon fill="white" stroke="white" points="2907.88,-170.09 2918,-166.96 2908.14,-163.1 2907.88,-170.09"/>
</g>
<!-- _Core2d__Core2dBloom&#45;&gt;_Core2d__Core2dTonemapping -->
<g id="edge15" class="edge">
<title>_Core2d__Core2dBloom:e&#45;&gt;_Core2d__Core2dTonemapping:w</title>
<path fill="none" stroke="white" d="M2132,-96.96C2168.71,-96.96 2177.39,-104.22 2214,-106.96 2369.32,-118.58 2411.05,-117.04 2561.9,-116.96"/>
<polygon fill="white" stroke="white" points="2562,-120.46 2572,-116.96 2562,-113.46 2562,-120.46"/>
</g>
<!-- _Core2d__Core2dPostProcessing -->
<g id="node14" class="node">
<title>_Core2d__Core2dPostProcessing</title>
<text text-anchor="start" x="2300" y="-78.76" font-family="Helvetica,sans-Serif" font-size="14.00" fill="white">PostProcessing</text>
<text text-anchor="start" x="2252" y="-67.96" font-family="Helvetica,sans-Serif" font-size="10.00" fill="red">ViewNodeRunner&lt;PostProcessingNode&gt;</text>
<path fill="none" stroke="white" d="M2258.33,-59.96C2258.33,-59.96 2445.67,-59.96 2445.67,-59.96 2451.33,-59.96 2457,-65.63 2457,-71.29 2457,-71.29 2457,-82.63 2457,-82.63 2457,-88.29 2451.33,-93.96 2445.67,-93.96 2445.67,-93.96 2258.33,-93.96 2258.33,-93.96 2252.67,-93.96 2247,-88.29 2247,-82.63 2247,-82.63 2247,-71.29 2247,-71.29 2247,-65.63 2252.67,-59.96 2258.33,-59.96"/>
</g>
<!-- _Core2d__Core2dBloom&#45;&gt;_Core2d__Core2dPostProcessing -->
<g id="edge20" class="edge">
<title>_Core2d__Core2dBloom:e&#45;&gt;_Core2d__Core2dPostProcessing:w</title>
<path fill="none" stroke="white" d="M2132,-96.96C2181.15,-96.96 2194.48,-79.6 2238.73,-77.23"/>
<polygon fill="white" stroke="white" points="2239.09,-80.72 2249,-76.96 2238.91,-73.72 2239.09,-80.72"/>
</g>
<!-- _Core2d__Core2dPostProcessing&#45;&gt;_Core2d__Core2dTonemapping -->
<g id="edge16" class="edge">
<title>_Core2d__Core2dPostProcessing:e&#45;&gt;_Core2d__Core2dTonemapping:w</title>
<path fill="none" stroke="white" d="M2455,-76.96C2506.41,-76.96 2515.93,-111.97 2561.94,-116.48"/>
<polygon fill="white" stroke="white" points="2561.85,-119.98 2572,-116.96 2562.18,-112.99 2561.85,-119.98"/>
</g>
<!-- _Core2d__Core2dMsaaWriteback -->
<g id="node15" class="node">
<title>_Core2d__Core2dMsaaWriteback</title>
<text text-anchor="start" x="98" y="-97.76" font-family="Helvetica,sans-Serif" font-size="14.00" fill="white">MsaaWriteback</text>
<text text-anchor="start" x="50" y="-86.96" font-family="Helvetica,sans-Serif" font-size="10.00" fill="red">ViewNodeRunner&lt;MsaaWritebackNode&gt;</text>
<path fill="none" stroke="white" d="M56.33,-78.96C56.33,-78.96 245.67,-78.96 245.67,-78.96 251.33,-78.96 257,-84.63 257,-90.29 257,-90.29 257,-101.63 257,-101.63 257,-107.29 251.33,-112.96 245.67,-112.96 245.67,-112.96 56.33,-112.96 56.33,-112.96 50.67,-112.96 45,-107.29 45,-101.63 45,-101.63 45,-90.29 45,-90.29 45,-84.63 50.67,-78.96 56.33,-78.96"/>
</g>
<!-- _Core2d__Core2dMsaaWriteback&#45;&gt;_Core2d__Core2dStartMainPass -->
<g id="edge8" class="edge">
<title>_Core2d__Core2dMsaaWriteback:e&#45;&gt;_Core2d__Core2dStartMainPass:w</title>
<path fill="none" stroke="white" d="M255,-95.96C311.42,-95.96 327.26,-109.26 378.92,-110.81"/>
<polygon fill="white" stroke="white" points="378.95,-114.31 389,-110.96 379.05,-107.31 378.95,-114.31"/>
</g>
<!-- _Core2d__Core2dUiPass&#45;&gt;_Core2d__Core2dUpscaling -->
<g id="edge18" class="edge">
<title>_Core2d__Core2dUiPass:e&#45;&gt;_Core2d__Core2dUpscaling:w</title>
<path fill="none" stroke="white" d="M4049,-166.96C4107.46,-166.96 4123.28,-149.16 4176.91,-147.15"/>
<polygon fill="white" stroke="white" points="4177.07,-150.64 4187,-146.96 4176.94,-143.65 4177.07,-150.64"/>
</g>
<!-- _Core3d_SubGraphUi__Core3d_SubGraphUiUiPass -->
<g id="node17" class="node">
<title>_Core3d_SubGraphUi__Core3d_SubGraphUiUiPass</title>
<text text-anchor="start" x="128" y="-457.76" font-family="Helvetica,sans-Serif" font-size="14.00" fill="white">UiPass</text>
<text text-anchor="start" x="122" y="-446.96" font-family="Helvetica,sans-Serif" font-size="10.00" fill="red">UiPassNode</text>
<path fill="none" stroke="white" d="M128.33,-438.96C128.33,-438.96 173.67,-438.96 173.67,-438.96 179.33,-438.96 185,-444.63 185,-450.29 185,-450.29 185,-461.63 185,-461.63 185,-467.29 179.33,-472.96 173.67,-472.96 173.67,-472.96 128.33,-472.96 128.33,-472.96 122.67,-472.96 117,-467.29 117,-461.63 117,-461.63 117,-450.29 117,-450.29 117,-444.63 122.67,-438.96 128.33,-438.96"/>
</g>
<!-- _Core3d__Core3dContrastAdaptiveSharpening -->
<g id="node18" class="node">
<title>_Core3d__Core3dContrastAdaptiveSharpening</title>
<text text-anchor="start" x="9111.5" y="-339.76" font-family="Helvetica,sans-Serif" font-size="14.00" fill="white">ContrastAdaptiveSharpening</text>
<text text-anchor="start" x="9190" y="-328.96" font-family="Helvetica,sans-Serif" font-size="10.00" fill="red">CasNode</text>
<path fill="none" stroke="white" d="M9117.33,-320.96C9117.33,-320.96 9306.67,-320.96 9306.67,-320.96 9312.33,-320.96 9318,-326.63 9318,-332.29 9318,-332.29 9318,-343.63 9318,-343.63 9318,-349.29 9312.33,-354.96 9306.67,-354.96 9306.67,-354.96 9117.33,-354.96 9117.33,-354.96 9111.67,-354.96 9106,-349.29 9106,-343.63 9106,-343.63 9106,-332.29 9106,-332.29 9106,-326.63 9111.67,-320.96 9117.33,-320.96"/>
</g>
<!-- _Core3d__Core3dEndMainPassPostProcessing -->
<g id="node33" class="node">
<title>_Core3d__Core3dEndMainPassPostProcessing</title>
<text text-anchor="start" x="9411.5" y="-359.76" font-family="Helvetica,sans-Serif" font-size="14.00" fill="white">EndMainPassPostProcessing</text>
<text text-anchor="start" x="9480" y="-348.96" font-family="Helvetica,sans-Serif" font-size="10.00" fill="red">EmptyNode</text>
<path fill="none" stroke="white" d="M9417.33,-340.96C9417.33,-340.96 9600.67,-340.96 9600.67,-340.96 9606.33,-340.96 9612,-346.63 9612,-352.29 9612,-352.29 9612,-363.63 9612,-363.63 9612,-369.29 9606.33,-374.96 9600.67,-374.96 9600.67,-374.96 9417.33,-374.96 9417.33,-374.96 9411.67,-374.96 9406,-369.29 9406,-363.63 9406,-363.63 9406,-352.29 9406,-352.29 9406,-346.63 9411.67,-340.96 9417.33,-340.96"/>
</g>
<!-- _Core3d__Core3dContrastAdaptiveSharpening&#45;&gt;_Core3d__Core3dEndMainPassPostProcessing -->
<g id="edge45" class="edge">
<title>_Core3d__Core3dContrastAdaptiveSharpening:e&#45;&gt;_Core3d__Core3dEndMainPassPostProcessing:w</title>
<path fill="none" stroke="white" d="M9316,-337.96C9354.25,-337.96 9364.48,-354.67 9397.91,-357.54"/>
<polygon fill="white" stroke="white" points="9397.86,-361.04 9408,-357.96 9398.15,-354.05 9397.86,-361.04"/>
</g>
<!-- _Core3d__Core3dEarlyDownsampleDepth -->
<g id="node19" class="node">
<title>_Core3d__Core3dEarlyDownsampleDepth</title>
<text text-anchor="start" x="1688.5" y="-335.76" font-family="Helvetica,sans-Serif" font-size="14.00" fill="white">EarlyDownsampleDepth</text>
<text text-anchor="start" x="1712.5" y="-324.96" font-family="Helvetica,sans-Serif" font-size="10.00" fill="red">DownsampleDepthNode</text>
<path fill="none" stroke="white" d="M1694.33,-316.96C1694.33,-316.96 1849.67,-316.96 1849.67,-316.96 1855.33,-316.96 1861,-322.63 1861,-328.29 1861,-328.29 1861,-339.63 1861,-339.63 1861,-345.29 1855.33,-350.96 1849.67,-350.96 1849.67,-350.96 1694.33,-350.96 1694.33,-350.96 1688.67,-350.96 1683,-345.29 1683,-339.63 1683,-339.63 1683,-328.29 1683,-328.29 1683,-322.63 1688.67,-316.96 1694.33,-316.96"/>
</g>
<!-- _Core3d__Core3dLateGpuPreprocess -->
<g id="node27" class="node">
<title>_Core3d__Core3dLateGpuPreprocess</title>
<text text-anchor="start" x="1983.5" y="-325.76" font-family="Helvetica,sans-Serif" font-size="14.00" fill="white">LateGpuPreprocess</text>
<text text-anchor="start" x="1990" y="-314.96" font-family="Helvetica,sans-Serif" font-size="10.00" fill="red">LateGpuPreprocessNode</text>
<path fill="none" stroke="white" d="M1989.33,-306.96C1989.33,-306.96 2110.67,-306.96 2110.67,-306.96 2116.33,-306.96 2122,-312.63 2122,-318.29 2122,-318.29 2122,-329.63 2122,-329.63 2122,-335.29 2116.33,-340.96 2110.67,-340.96 2110.67,-340.96 1989.33,-340.96 1989.33,-340.96 1983.67,-340.96 1978,-335.29 1978,-329.63 1978,-329.63 1978,-318.29 1978,-318.29 1978,-312.63 1983.67,-306.96 1989.33,-306.96"/>
</g>
<!-- _Core3d__Core3dEarlyDownsampleDepth&#45;&gt;_Core3d__Core3dLateGpuPreprocess -->
<g id="edge32" class="edge">
<title>_Core3d__Core3dEarlyDownsampleDepth:e&#45;&gt;_Core3d__Core3dLateGpuPreprocess:w</title>
<path fill="none" stroke="white" d="M1859,-333.96C1909.38,-333.96 1924.12,-325.25 1969.77,-324.09"/>
<polygon fill="white" stroke="white" points="1970.04,-327.58 1980,-323.96 1969.96,-320.59 1970.04,-327.58"/>
</g>
<!-- _Core3d__Core3dLatePrepass -->
<g id="node48" class="node">
<title>_Core3d__Core3dLatePrepass</title>
<text text-anchor="start" x="2629" y="-365.76" font-family="Helvetica,sans-Serif" font-size="14.00" fill="white">LatePrepass</text>
<text text-anchor="start" x="2578" y="-354.96" font-family="Helvetica,sans-Serif" font-size="10.00" fill="red">ViewNodeRunner&lt;LatePrepassNode&gt;</text>
<path fill="none" stroke="white" d="M2584.33,-346.96C2584.33,-346.96 2757.67,-346.96 2757.67,-346.96 2763.33,-346.96 2769,-352.63 2769,-358.29 2769,-358.29 2769,-369.63 2769,-369.63 2769,-375.29 2763.33,-380.96 2757.67,-380.96 2757.67,-380.96 2584.33,-380.96 2584.33,-380.96 2578.67,-380.96 2573,-375.29 2573,-369.63 2573,-369.63 2573,-358.29 2573,-358.29 2573,-352.63 2578.67,-346.96 2584.33,-346.96"/>
</g>
<!-- _Core3d__Core3dEarlyDownsampleDepth&#45;&gt;_Core3d__Core3dLatePrepass -->
<g id="edge70" class="edge">
<title>_Core3d__Core3dEarlyDownsampleDepth:e&#45;&gt;_Core3d__Core3dLatePrepass:w</title>
<path fill="none" stroke="white" d="M1859,-333.96C1903.89,-333.96 1913.37,-349.13 1958,-353.96 2227.21,-383.09 2298.93,-364.45 2564.65,-363.97"/>
<polygon fill="white" stroke="white" points="2565,-367.47 2575,-363.96 2565,-360.47 2565,-367.47"/>
</g>
<!-- _Core3d__Core3dLateDownsampleDepth -->
<g id="node20" class="node">
<title>_Core3d__Core3dLateDownsampleDepth</title>
<text text-anchor="start" x="7144.5" y="-402.76" font-family="Helvetica,sans-Serif" font-size="14.00" fill="white">LateDownsampleDepth</text>
<text text-anchor="start" x="7165.5" y="-391.96" font-family="Helvetica,sans-Serif" font-size="10.00" fill="red">DownsampleDepthNode</text>
<path fill="none" stroke="white" d="M7150.33,-383.96C7150.33,-383.96 7299.67,-383.96 7299.67,-383.96 7305.33,-383.96 7311,-389.63 7311,-395.29 7311,-395.29 7311,-406.63 7311,-406.63 7311,-412.29 7305.33,-417.96 7299.67,-417.96 7299.67,-417.96 7150.33,-417.96 7150.33,-417.96 7144.67,-417.96 7139,-412.29 7139,-406.63 7139,-406.63 7139,-395.29 7139,-395.29 7139,-389.63 7144.67,-383.96 7150.33,-383.96"/>
</g>
<!-- _Core3d__Core3dLateDownsampleDepth&#45;&gt;_Core3d__Core3dEndMainPassPostProcessing -->
<g id="edge42" class="edge">
<title>_Core3d__Core3dLateDownsampleDepth:e&#45;&gt;_Core3d__Core3dEndMainPassPostProcessing:w</title>
<path fill="none" stroke="white" d="M7309,-400.96C7529.57,-400.96 7584.43,-417.96 7805,-417.96 7805,-417.96 7805,-417.96 8937,-417.96 9110.8,-417.96 9154.73,-407.51 9326,-377.96 9359.36,-372.21 9368.74,-360.55 9397.81,-358.33"/>
<polygon fill="white" stroke="white" points="9398.13,-361.82 9408,-357.96 9397.88,-354.83 9398.13,-361.82"/>
</g>
<!-- _Core3d__Core3dEnvironment -->
<g id="node21" class="node">
<title>_Core3d__Core3dEnvironment</title>
<text text-anchor="start" x="106.5" y="-397.76" font-family="Helvetica,sans-Serif" font-size="14.00" fill="white">Environment</text>
<text text-anchor="start" x="107" y="-386.96" font-family="Helvetica,sans-Serif" font-size="10.00" fill="red">EnvironmentNode</text>
<path fill="none" stroke="white" d="M112.33,-378.96C112.33,-378.96 189.67,-378.96 189.67,-378.96 195.33,-378.96 201,-384.63 201,-390.29 201,-390.29 201,-401.63 201,-401.63 201,-407.29 195.33,-412.96 189.67,-412.96 189.67,-412.96 112.33,-412.96 112.33,-412.96 106.67,-412.96 101,-407.29 101,-401.63 101,-401.63 101,-390.29 101,-390.29 101,-384.63 106.67,-378.96 112.33,-378.96"/>
</g>
<!-- _Core3d__Core3dDownsampling -->
<g id="node22" class="node">
<title>_Core3d__Core3dDownsampling</title>
<text text-anchor="start" x="3919.5" y="-468.76" font-family="Helvetica,sans-Serif" font-size="14.00" fill="white">Downsampling</text>
<text text-anchor="start" x="3921.5" y="-457.96" font-family="Helvetica,sans-Serif" font-size="10.00" fill="red">DownsamplingNode</text>
<path fill="none" stroke="white" d="M3925.33,-449.96C3925.33,-449.96 4016.67,-449.96 4016.67,-449.96 4022.33,-449.96 4028,-455.63 4028,-461.29 4028,-461.29 4028,-472.63 4028,-472.63 4028,-478.29 4022.33,-483.96 4016.67,-483.96 4016.67,-483.96 3925.33,-483.96 3925.33,-483.96 3919.67,-483.96 3914,-478.29 3914,-472.63 3914,-472.63 3914,-461.29 3914,-461.29 3914,-455.63 3919.67,-449.96 3925.33,-449.96"/>
</g>
<!-- _Core3d__Core3dFiltering -->
<g id="node23" class="node">
<title>_Core3d__Core3dFiltering</title>
<text text-anchor="start" x="4250" y="-450.76" font-family="Helvetica,sans-Serif" font-size="14.00" fill="white">Filtering</text>
<text text-anchor="start" x="4245" y="-439.96" font-family="Helvetica,sans-Serif" font-size="10.00" fill="red">FilteringNode</text>
<path fill="none" stroke="white" d="M4251.33,-431.96C4251.33,-431.96 4304.67,-431.96 4304.67,-431.96 4310.33,-431.96 4316,-437.63 4316,-443.29 4316,-443.29 4316,-454.63 4316,-454.63 4316,-460.29 4310.33,-465.96 4304.67,-465.96 4304.67,-465.96 4251.33,-465.96 4251.33,-465.96 4245.67,-465.96 4240,-460.29 4240,-454.63 4240,-454.63 4240,-443.29 4240,-443.29 4240,-437.63 4245.67,-431.96 4251.33,-431.96"/>
</g>
<!-- _Core3d__Core3dDownsampling&#45;&gt;_Core3d__Core3dFiltering -->
<g id="edge29" class="edge">
<title>_Core3d__Core3dDownsampling:e&#45;&gt;_Core3d__Core3dFiltering:w</title>
<path fill="none" stroke="white" d="M4026,-466.96C4118.85,-466.96 4143.89,-450.24 4231.84,-449.03"/>
<polygon fill="white" stroke="white" points="4232.02,-452.53 4242,-448.96 4231.98,-445.53 4232.02,-452.53"/>
</g>
<!-- _Core3d__Core3dStartMainPass -->
<g id="node35" class="node">
<title>_Core3d__Core3dStartMainPass</title>
<text text-anchor="start" x="4477" y="-357.76" font-family="Helvetica,sans-Serif" font-size="14.00" fill="white">StartMainPass</text>
<text text-anchor="start" x="4497" y="-346.96" font-family="Helvetica,sans-Serif" font-size="10.00" fill="red">EmptyNode</text>
<path fill="none" stroke="white" d="M4483.33,-338.96C4483.33,-338.96 4568.67,-338.96 4568.67,-338.96 4574.33,-338.96 4580,-344.63 4580,-350.29 4580,-350.29 4580,-361.63 4580,-361.63 4580,-367.29 4574.33,-372.96 4568.67,-372.96 4568.67,-372.96 4483.33,-372.96 4483.33,-372.96 4477.67,-372.96 4472,-367.29 4472,-361.63 4472,-361.63 4472,-350.29 4472,-350.29 4472,-344.63 4477.67,-338.96 4483.33,-338.96"/>
</g>
<!-- _Core3d__Core3dFiltering&#45;&gt;_Core3d__Core3dStartMainPass -->
<g id="edge51" class="edge">
<title>_Core3d__Core3dFiltering:e&#45;&gt;_Core3d__Core3dStartMainPass:w</title>
<path fill="none" stroke="white" d="M4314,-448.96C4392.72,-448.96 4391.98,-363.78 4463.86,-356.46"/>
<polygon fill="white" stroke="white" points="4464.18,-359.95 4474,-355.96 4463.84,-352.96 4464.18,-359.95"/>
</g>
<!-- _Core3d__Core3dClearIndirectParametersMetadata -->
<g id="node24" class="node">
<title>_Core3d__Core3dClearIndirectParametersMetadata</title>
<text text-anchor="start" x="35" y="-337.76" font-family="Helvetica,sans-Serif" font-size="14.00" fill="white">ClearIndirectParametersMetadata</text>
<text text-anchor="start" x="56" y="-326.96" font-family="Helvetica,sans-Serif" font-size="10.00" fill="red">ClearIndirectParametersMetadataNode</text>
<path fill="none" stroke="white" d="M41.33,-318.96C41.33,-318.96 260.67,-318.96 260.67,-318.96 266.33,-318.96 272,-324.63 272,-330.29 272,-330.29 272,-341.63 272,-341.63 272,-347.29 266.33,-352.96 260.67,-352.96 260.67,-352.96 41.33,-352.96 41.33,-352.96 35.67,-352.96 30,-347.29 30,-341.63 30,-341.63 30,-330.29 30,-330.29 30,-324.63 35.67,-318.96 41.33,-318.96"/>
</g>
<!-- _Core3d__Core3dEarlyGpuPreprocess -->
<g id="node25" class="node">
<title>_Core3d__Core3dEarlyGpuPreprocess</title>
<text text-anchor="start" x="371.5" y="-337.76" font-family="Helvetica,sans-Serif" font-size="14.00" fill="white">EarlyGpuPreprocess</text>
<text text-anchor="start" x="379" y="-326.96" font-family="Helvetica,sans-Serif" font-size="10.00" fill="red">EarlyGpuPreprocessNode</text>
<path fill="none" stroke="white" d="M377.33,-318.96C377.33,-318.96 504.67,-318.96 504.67,-318.96 510.33,-318.96 516,-324.63 516,-330.29 516,-330.29 516,-341.63 516,-341.63 516,-347.29 510.33,-352.96 504.67,-352.96 504.67,-352.96 377.33,-352.96 377.33,-352.96 371.67,-352.96 366,-347.29 366,-341.63 366,-341.63 366,-330.29 366,-330.29 366,-324.63 371.67,-318.96 377.33,-318.96"/>
</g>
<!-- _Core3d__Core3dClearIndirectParametersMetadata&#45;&gt;_Core3d__Core3dEarlyGpuPreprocess -->
<g id="edge30" class="edge">
<title>_Core3d__Core3dClearIndirectParametersMetadata:e&#45;&gt;_Core3d__Core3dEarlyGpuPreprocess:w</title>
<path fill="none" stroke="white" d="M270,-335.96C309.98,-335.96 322.44,-335.96 357.9,-335.96"/>
<polygon fill="white" stroke="white" points="358,-339.46 368,-335.96 358,-332.46 358,-339.46"/>
</g>
<!-- _Core3d__Core3dEarlyPrepassBuildIndirectParameters -->
<g id="node26" class="node">
<title>_Core3d__Core3dEarlyPrepassBuildIndirectParameters</title>
<text text-anchor="start" x="609" y="-337.76" font-family="Helvetica,sans-Serif" font-size="14.00" fill="white">EarlyPrepassBuildIndirectParameters</text>
<text text-anchor="start" x="634" y="-326.96" font-family="Helvetica,sans-Serif" font-size="10.00" fill="red">EarlyPrepassBuildIndirectParametersNode</text>
<path fill="none" stroke="white" d="M615.33,-318.96C615.33,-318.96 858.67,-318.96 858.67,-318.96 864.33,-318.96 870,-324.63 870,-330.29 870,-330.29 870,-341.63 870,-341.63 870,-347.29 864.33,-352.96 858.67,-352.96 858.67,-352.96 615.33,-352.96 615.33,-352.96 609.67,-352.96 604,-347.29 604,-341.63 604,-341.63 604,-330.29 604,-330.29 604,-324.63 609.67,-318.96 615.33,-318.96"/>
</g>
<!-- _Core3d__Core3dEarlyGpuPreprocess&#45;&gt;_Core3d__Core3dEarlyPrepassBuildIndirectParameters -->
<g id="edge31" class="edge">
<title>_Core3d__Core3dEarlyGpuPreprocess:e&#45;&gt;_Core3d__Core3dEarlyPrepassBuildIndirectParameters:w</title>
<path fill="none" stroke="white" d="M514,-335.96C551.22,-335.96 563.03,-335.96 595.68,-335.96"/>
<polygon fill="white" stroke="white" points="596,-339.46 606,-335.96 596,-332.46 596,-339.46"/>
</g>
<!-- _Core3d__Core3dEarlyShadowPass -->
<g id="node30" class="node">
<title>_Core3d__Core3dEarlyShadowPass</title>
<text text-anchor="start" x="1377.5" y="-297.76" font-family="Helvetica,sans-Serif" font-size="14.00" fill="white">EarlyShadowPass</text>
<text text-anchor="start" x="1382.5" y="-286.96" font-family="Helvetica,sans-Serif" font-size="10.00" fill="red">EarlyShadowPassNode</text>
<path fill="none" stroke="white" d="M1383.33,-278.96C1383.33,-278.96 1492.67,-278.96 1492.67,-278.96 1498.33,-278.96 1504,-284.63 1504,-290.29 1504,-290.29 1504,-301.63 1504,-301.63 1504,-307.29 1498.33,-312.96 1492.67,-312.96 1492.67,-312.96 1383.33,-312.96 1383.33,-312.96 1377.67,-312.96 1372,-307.29 1372,-301.63 1372,-301.63 1372,-290.29 1372,-290.29 1372,-284.63 1377.67,-278.96 1383.33,-278.96"/>
</g>
<!-- _Core3d__Core3dEarlyPrepassBuildIndirectParameters&#45;&gt;_Core3d__Core3dEarlyShadowPass -->
<g id="edge36" class="edge">
<title>_Core3d__Core3dEarlyPrepassBuildIndirectParameters:e&#45;&gt;_Core3d__Core3dEarlyShadowPass:w</title>
<path fill="none" stroke="white" d="M868,-335.96C905.05,-335.96 913.22,-325.39 950,-320.96 1134.03,-298.79 1183.46,-296.06 1363.91,-295.96"/>
<polygon fill="white" stroke="white" points="1364,-299.46 1374,-295.96 1364,-292.46 1364,-299.46"/>
</g>
<!-- _Core3d__Core3dEarlyPrepass -->
<g id="node47" class="node">
<title>_Core3d__Core3dEarlyPrepass</title>
<text text-anchor="start" x="1039" y="-352.76" font-family="Helvetica,sans-Serif" font-size="14.00" fill="white">EarlyPrepass</text>
<text text-anchor="start" x="989" y="-341.96" font-family="Helvetica,sans-Serif" font-size="10.00" fill="red">ViewNodeRunner&lt;EarlyPrepassNode&gt;</text>
<path fill="none" stroke="white" d="M995.33,-333.96C995.33,-333.96 1172.67,-333.96 1172.67,-333.96 1178.33,-333.96 1184,-339.63 1184,-345.29 1184,-345.29 1184,-356.63 1184,-356.63 1184,-362.29 1178.33,-367.96 1172.67,-367.96 1172.67,-367.96 995.33,-367.96 995.33,-367.96 989.67,-367.96 984,-362.29 984,-356.63 984,-356.63 984,-345.29 984,-345.29 984,-339.63 989.67,-333.96 995.33,-333.96"/>
</g>
<!-- _Core3d__Core3dEarlyPrepassBuildIndirectParameters&#45;&gt;_Core3d__Core3dEarlyPrepass -->
<g id="edge68" class="edge">
<title>_Core3d__Core3dEarlyPrepassBuildIndirectParameters:e&#45;&gt;_Core3d__Core3dEarlyPrepass:w</title>
<path fill="none" stroke="white" d="M868,-335.96C917.36,-335.96 931.33,-349.04 975.98,-350.77"/>
<polygon fill="white" stroke="white" points="975.94,-354.27 986,-350.96 976.07,-347.27 975.94,-354.27"/>
</g>
<!-- _Core3d__Core3dLatePrepassBuildIndirectParameters -->
<g id="node28" class="node">
<title>_Core3d__Core3dLatePrepassBuildIndirectParameters</title>
<text text-anchor="start" x="2227" y="-325.76" font-family="Helvetica,sans-Serif" font-size="14.00" fill="white">LatePrepassBuildIndirectParameters</text>
<text text-anchor="start" x="2251" y="-314.96" font-family="Helvetica,sans-Serif" font-size="10.00" fill="red">LatePrepassBuildIndirectParametersNode</text>
<path fill="none" stroke="white" d="M2233.33,-306.96C2233.33,-306.96 2470.67,-306.96 2470.67,-306.96 2476.33,-306.96 2482,-312.63 2482,-318.29 2482,-318.29 2482,-329.63 2482,-329.63 2482,-335.29 2476.33,-340.96 2470.67,-340.96 2470.67,-340.96 2233.33,-340.96 2233.33,-340.96 2227.67,-340.96 2222,-335.29 2222,-329.63 2222,-329.63 2222,-318.29 2222,-318.29 2222,-312.63 2227.67,-306.96 2233.33,-306.96"/>
</g>
<!-- _Core3d__Core3dLateGpuPreprocess&#45;&gt;_Core3d__Core3dLatePrepassBuildIndirectParameters -->
<g id="edge33" class="edge">
<title>_Core3d__Core3dLateGpuPreprocess:e&#45;&gt;_Core3d__Core3dLatePrepassBuildIndirectParameters:w</title>
<path fill="none" stroke="white" d="M2120,-323.96C2162.61,-323.96 2175.76,-323.96 2213.77,-323.96"/>
<polygon fill="white" stroke="white" points="2214,-327.46 2224,-323.96 2214,-320.46 2214,-327.46"/>
</g>
<!-- _Core3d__Core3dLateShadowPass -->
<g id="node31" class="node">
<title>_Core3d__Core3dLateShadowPass</title>
<text text-anchor="start" x="2613.5" y="-305.76" font-family="Helvetica,sans-Serif" font-size="14.00" fill="white">LateShadowPass</text>
<text text-anchor="start" x="2617.5" y="-294.96" font-family="Helvetica,sans-Serif" font-size="10.00" fill="red">LateShadowPassNode</text>
<path fill="none" stroke="white" d="M2619.33,-286.96C2619.33,-286.96 2722.67,-286.96 2722.67,-286.96 2728.33,-286.96 2734,-292.63 2734,-298.29 2734,-298.29 2734,-309.63 2734,-309.63 2734,-315.29 2728.33,-320.96 2722.67,-320.96 2722.67,-320.96 2619.33,-320.96 2619.33,-320.96 2613.67,-320.96 2608,-315.29 2608,-309.63 2608,-309.63 2608,-298.29 2608,-298.29 2608,-292.63 2613.67,-286.96 2619.33,-286.96"/>
</g>
<!-- _Core3d__Core3dLatePrepassBuildIndirectParameters&#45;&gt;_Core3d__Core3dLateShadowPass -->
<g id="edge38" class="edge">
<title>_Core3d__Core3dLatePrepassBuildIndirectParameters:e&#45;&gt;_Core3d__Core3dLateShadowPass:w</title>
<path fill="none" stroke="white" d="M2480,-323.96C2534.92,-323.96 2549.79,-306.31 2599.86,-304.17"/>
<polygon fill="white" stroke="white" points="2600.08,-307.67 2610,-303.96 2599.93,-300.67 2600.08,-307.67"/>
</g>
<!-- _Core3d__Core3dLatePrepassBuildIndirectParameters&#45;&gt;_Core3d__Core3dLatePrepass -->
<g id="edge71" class="edge">
<title>_Core3d__Core3dLatePrepassBuildIndirectParameters:e&#45;&gt;_Core3d__Core3dLatePrepass:w</title>
<path fill="none" stroke="white" d="M2480,-323.96C2522.23,-323.96 2528.4,-357.96 2565,-363.27"/>
<polygon fill="white" stroke="white" points="2564.78,-366.76 2575,-363.96 2565.27,-359.78 2564.78,-366.76"/>
</g>
<!-- _Core3d__Core3dMainBuildIndirectParameters -->
<g id="node29" class="node">
<title>_Core3d__Core3dMainBuildIndirectParameters</title>
<text text-anchor="start" x="3250" y="-328.76" font-family="Helvetica,sans-Serif" font-size="14.00" fill="white">MainBuildIndirectParameters</text>
<text text-anchor="start" x="3266.5" y="-317.96" font-family="Helvetica,sans-Serif" font-size="10.00" fill="red">MainBuildIndirectParametersNode</text>
<path fill="none" stroke="white" d="M3256.33,-309.96C3256.33,-309.96 3443.67,-309.96 3443.67,-309.96 3449.33,-309.96 3455,-315.63 3455,-321.29 3455,-321.29 3455,-332.63 3455,-332.63 3455,-338.29 3449.33,-343.96 3443.67,-343.96 3443.67,-343.96 3256.33,-343.96 3256.33,-343.96 3250.67,-343.96 3245,-338.29 3245,-332.63 3245,-332.63 3245,-321.29 3245,-321.29 3245,-315.63 3250.67,-309.96 3256.33,-309.96"/>
</g>
<!-- _Core3d__Core3dMainBuildIndirectParameters&#45;&gt;_Core3d__Core3dStartMainPass -->
<g id="edge52" class="edge">
<title>_Core3d__Core3dMainBuildIndirectParameters:e&#45;&gt;_Core3d__Core3dStartMainPass:w</title>
<path fill="none" stroke="white" d="M3453,-326.96C3737.03,-326.96 3808.25,-304.22 4092,-316.96 4158.87,-319.96 4325.53,-336.11 4392,-343.96 4425.01,-347.86 4435.22,-354.49 4463.96,-355.75"/>
<polygon fill="white" stroke="white" points="4463.93,-359.25 4474,-355.96 4464.08,-352.25 4463.93,-359.25"/>
</g>
<!-- _Core3d__Core3dEarlyShadowPass&#45;&gt;_Core3d__Core3dEarlyDownsampleDepth -->
<g id="edge26" class="edge">
<title>_Core3d__Core3dEarlyShadowPass:e&#45;&gt;_Core3d__Core3dEarlyDownsampleDepth:w</title>
<path fill="none" stroke="white" d="M1502,-295.96C1581.5,-295.96 1600.36,-330.77 1674.65,-333.76"/>
<polygon fill="white" stroke="white" points="1674.93,-337.26 1685,-333.96 1675.07,-330.26 1674.93,-337.26"/>
</g>
<!-- _Core3d__Core3dEarlyShadowPass&#45;&gt;_Core3d__Core3dLateShadowPass -->
<g id="edge37" class="edge">
<title>_Core3d__Core3dEarlyShadowPass:e&#45;&gt;_Core3d__Core3dLateShadowPass:w</title>
<path fill="none" stroke="white" d="M1502,-295.96C1941.11,-295.96 2051.27,-275.71 2490,-293.96 2539.92,-296.04 2554.58,-302.95 2599.85,-303.86"/>
<polygon fill="white" stroke="white" points="2599.97,-307.36 2610,-303.96 2600.03,-300.36 2599.97,-307.36"/>
</g>
<!-- _Core3d__Core3dLateShadowPass&#45;&gt;_Core3d__Core3dMainBuildIndirectParameters -->
<g id="edge35" class="edge">
<title>_Core3d__Core3dLateShadowPass:e&#45;&gt;_Core3d__Core3dMainBuildIndirectParameters:w</title>
<path fill="none" stroke="white" d="M2732,-303.96C2957.65,-303.96 3016.12,-326.27 3236.71,-326.95"/>
<polygon fill="white" stroke="white" points="3236.99,-330.45 3247,-326.96 3237.01,-323.45 3236.99,-330.45"/>
</g>
<!-- _Core3d__Core3dLateShadowPass&#45;&gt;_Core3d__Core3dStartMainPass -->
<g id="edge49" class="edge">
<title>_Core3d__Core3dLateShadowPass:e&#45;&gt;_Core3d__Core3dStartMainPass:w</title>
<path fill="none" stroke="white" d="M2732,-303.96C3006.33,-303.96 3074.67,-286.96 3349,-286.96 3349,-286.96 3349,-286.96 3668,-286.96 3708.27,-286.96 4352.75,-311.97 4392,-320.96 4427,-328.98 4433.37,-351.21 4463.74,-355.31"/>
<polygon fill="white" stroke="white" points="4463.8,-358.82 4474,-355.96 4464.24,-351.83 4463.8,-358.82"/>
</g>
<!-- _Core3d__Core3dEndMainPass -->
<g id="node32" class="node">
<title>_Core3d__Core3dEndMainPass</title>
<text text-anchor="start" x="6351.5" y="-382.76" font-family="Helvetica,sans-Serif" font-size="14.00" fill="white">EndMainPass</text>
<text text-anchor="start" x="6368" y="-371.96" font-family="Helvetica,sans-Serif" font-size="10.00" fill="red">EmptyNode</text>
<path fill="none" stroke="white" d="M6357.33,-363.96C6357.33,-363.96 6436.67,-363.96 6436.67,-363.96 6442.33,-363.96 6448,-369.63 6448,-375.29 6448,-375.29 6448,-386.63 6448,-386.63 6448,-392.29 6442.33,-397.96 6436.67,-397.96 6436.67,-397.96 6357.33,-397.96 6357.33,-397.96 6351.67,-397.96 6346,-392.29 6346,-386.63 6346,-386.63 6346,-375.29 6346,-375.29 6346,-369.63 6351.67,-363.96 6357.33,-363.96"/>
</g>
<!-- _Core3d__Core3dStartMainPassPostProcessing -->
<g id="node36" class="node">
<title>_Core3d__Core3dStartMainPassPostProcessing</title>
<text text-anchor="start" x="6835" y="-342.76" font-family="Helvetica,sans-Serif" font-size="14.00" fill="white">StartMainPassPostProcessing</text>
<text text-anchor="start" x="6907" y="-331.96" font-family="Helvetica,sans-Serif" font-size="10.00" fill="red">EmptyNode</text>
<path fill="none" stroke="white" d="M6841.33,-323.96C6841.33,-323.96 7030.67,-323.96 7030.67,-323.96 7036.33,-323.96 7042,-329.63 7042,-335.29 7042,-335.29 7042,-346.63 7042,-346.63 7042,-352.29 7036.33,-357.96 7030.67,-357.96 7030.67,-357.96 6841.33,-357.96 6841.33,-357.96 6835.67,-357.96 6830,-352.29 6830,-346.63 6830,-346.63 6830,-335.29 6830,-335.29 6830,-329.63 6835.67,-323.96 6841.33,-323.96"/>
</g>
<!-- _Core3d__Core3dEndMainPass&#45;&gt;_Core3d__Core3dStartMainPassPostProcessing -->
<g id="edge54" class="edge">
<title>_Core3d__Core3dEndMainPass:e&#45;&gt;_Core3d__Core3dStartMainPassPostProcessing:w</title>
<path fill="none" stroke="white" d="M6446,-380.96C6484.81,-380.96 6489.9,-358.36 6528,-350.96 6657.34,-325.85 6694.92,-340.19 6821.89,-340.93"/>
<polygon fill="white" stroke="white" points="6821.99,-344.43 6832,-340.96 6822.01,-337.43 6821.99,-344.43"/>
</g>
<!-- _Core3d__Core3dVolumetricFog -->
<g id="node56" class="node">
<title>_Core3d__Core3dVolumetricFog</title>
<text text-anchor="start" x="6589.5" y="-382.76" font-family="Helvetica,sans-Serif" font-size="14.00" fill="white">VolumetricFog</text>
<text text-anchor="start" x="6541" y="-371.96" font-family="Helvetica,sans-Serif" font-size="10.00" fill="red">ViewNodeRunner&lt;VolumetricFogNode&gt;</text>
<path fill="none" stroke="white" d="M6547.33,-363.96C6547.33,-363.96 6730.67,-363.96 6730.67,-363.96 6736.33,-363.96 6742,-369.63 6742,-375.29 6742,-375.29 6742,-386.63 6742,-386.63 6742,-392.29 6736.33,-397.96 6730.67,-397.96 6730.67,-397.96 6547.33,-397.96 6547.33,-397.96 6541.67,-397.96 6536,-392.29 6536,-386.63 6536,-386.63 6536,-375.29 6536,-375.29 6536,-369.63 6541.67,-363.96 6547.33,-363.96"/>
</g>
<!-- _Core3d__Core3dEndMainPass&#45;&gt;_Core3d__Core3dVolumetricFog -->
<g id="edge82" class="edge">
<title>_Core3d__Core3dEndMainPass:e&#45;&gt;_Core3d__Core3dVolumetricFog:w</title>
<path fill="none" stroke="white" d="M6446,-380.96C6483.22,-380.96 6495.03,-380.96 6527.68,-380.96"/>
<polygon fill="white" stroke="white" points="6528,-384.46 6538,-380.96 6528,-377.46 6528,-384.46"/>
</g>
<!-- _Core3d__Core3dUiPass -->
<g id="node62" class="node">
<title>_Core3d__Core3dUiPass</title>
<text text-anchor="start" x="9757" y="-399.76" font-family="Helvetica,sans-Serif" font-size="14.00" fill="white">UiPass</text>
<text text-anchor="start" x="9705.5" y="-388.96" font-family="Helvetica,sans-Serif" font-size="10.00" fill="red">RunUiSubgraphOnUiViewNode</text>
<path fill="none" stroke="white" d="M9711.33,-380.96C9711.33,-380.96 9848.67,-380.96 9848.67,-380.96 9854.33,-380.96 9860,-386.63 9860,-392.29 9860,-392.29 9860,-403.63 9860,-403.63 9860,-409.29 9854.33,-414.96 9848.67,-414.96 9848.67,-414.96 9711.33,-414.96 9711.33,-414.96 9705.67,-414.96 9700,-409.29 9700,-403.63 9700,-403.63 9700,-392.29 9700,-392.29 9700,-386.63 9705.67,-380.96 9711.33,-380.96"/>
</g>
<!-- _Core3d__Core3dEndMainPass&#45;&gt;_Core3d__Core3dUiPass -->
<g id="edge89" class="edge">
<title>_Core3d__Core3dEndMainPass:e&#45;&gt;_Core3d__Core3dUiPass:w</title>
<path fill="none" stroke="white" d="M6446,-380.96C6484.81,-380.96 6490.06,-402.79 6528,-410.96 6705.31,-449.15 6753.62,-440.96 6935,-440.96 6935,-440.96 6935,-440.96 9213,-440.96 9427.76,-440.96 9482.14,-399.29 9691.89,-397.99"/>
<polygon fill="white" stroke="white" points="9692.01,-401.49 9702,-397.96 9691.99,-394.49 9692.01,-401.49"/>
</g>
<!-- _Core3d__Core3dUpscaling -->
<g id="node50" class="node">
<title>_Core3d__Core3dUpscaling</title>
<text text-anchor="start" x="10006.5" y="-379.76" font-family="Helvetica,sans-Serif" font-size="14.00" fill="white">Upscaling</text>
<text text-anchor="start" x="9953.5" y="-368.96" font-family="Helvetica,sans-Serif" font-size="10.00" fill="red">ViewNodeRunner&lt;UpscalingNode&gt;</text>
<path fill="none" stroke="white" d="M9959.33,-360.96C9959.33,-360.96 10122.67,-360.96 10122.67,-360.96 10128.33,-360.96 10134,-366.63 10134,-372.29 10134,-372.29 10134,-383.63 10134,-383.63 10134,-389.29 10128.33,-394.96 10122.67,-394.96 10122.67,-394.96 9959.33,-394.96 9959.33,-394.96 9953.67,-394.96 9948,-389.29 9948,-383.63 9948,-383.63 9948,-372.29 9948,-372.29 9948,-366.63 9953.67,-360.96 9959.33,-360.96"/>
</g>
<!-- _Core3d__Core3dEndMainPassPostProcessing&#45;&gt;_Core3d__Core3dUpscaling -->
<g id="edge76" class="edge">
<title>_Core3d__Core3dEndMainPassPostProcessing:e&#45;&gt;_Core3d__Core3dUpscaling:w</title>
<path fill="none" stroke="white" d="M9610,-357.96C9724.75,-357.96 9753.61,-358.79 9868,-367.96 9901.02,-370.61 9911.32,-376.62 9939.99,-377.77"/>
<polygon fill="white" stroke="white" points="9939.93,-381.27 9950,-377.96 9940.07,-374.27 9939.93,-381.27"/>
</g>
<!-- _Core3d__Core3dEndMainPassPostProcessing&#45;&gt;_Core3d__Core3dUiPass -->
<g id="edge90" class="edge">
<title>_Core3d__Core3dEndMainPassPostProcessing:e&#45;&gt;_Core3d__Core3dUiPass:w</title>
<path fill="none" stroke="white" d="M9610,-357.96C9650.93,-357.96 9656.67,-391.67 9691.82,-397.2"/>
<polygon fill="white" stroke="white" points="9691.77,-400.7 9702,-397.96 9692.29,-393.72 9691.77,-400.7"/>
</g>
<!-- _Core3d__Core3dEndPrepasses -->
<g id="node34" class="node">
<title>_Core3d__Core3dEndPrepasses</title>
<text text-anchor="start" x="3618.5" y="-408.76" font-family="Helvetica,sans-Serif" font-size="14.00" fill="white">EndPrepasses</text>
<text text-anchor="start" x="3638" y="-397.96" font-family="Helvetica,sans-Serif" font-size="10.00" fill="red">EmptyNode</text>
<path fill="none" stroke="white" d="M3624.33,-389.96C3624.33,-389.96 3709.67,-389.96 3709.67,-389.96 3715.33,-389.96 3721,-395.63 3721,-401.29 3721,-401.29 3721,-412.63 3721,-412.63 3721,-418.29 3715.33,-423.96 3709.67,-423.96 3709.67,-423.96 3624.33,-423.96 3624.33,-423.96 3618.67,-423.96 3613,-418.29 3613,-412.63 3613,-412.63 3613,-401.29 3613,-401.29 3613,-395.63 3618.67,-389.96 3624.33,-389.96"/>
</g>
<!-- _Core3d__Core3dEndPrepasses&#45;&gt;_Core3d__Core3dDownsampling -->
<g id="edge28" class="edge">
<title>_Core3d__Core3dEndPrepasses:e&#45;&gt;_Core3d__Core3dDownsampling:w</title>
<path fill="none" stroke="white" d="M3719,-406.96C3807.04,-406.96 3823.3,-462.48 3905.87,-466.71"/>
<polygon fill="white" stroke="white" points="3905.92,-470.21 3916,-466.96 3906.09,-463.21 3905.92,-470.21"/>
</g>
<!-- _Core3d__Core3dEndPrepasses&#45;&gt;_Core3d__Core3dStartMainPass -->
<g id="edge47" class="edge">
<title>_Core3d__Core3dEndPrepasses:e&#45;&gt;_Core3d__Core3dStartMainPass:w</title>
<path fill="none" stroke="white" d="M3719,-406.96C3789.64,-406.96 3782.54,-476.02 3850,-496.96 4080.19,-568.41 4183,-599 4392,-478.96 4445.75,-448.09 4412.59,-366 4463.82,-356.8"/>
<polygon fill="white" stroke="white" points="4464.32,-360.27 4474,-355.96 4463.75,-353.3 4464.32,-360.27"/>
</g>
<!-- _Core3d__Core3dRenderLuts -->
<g id="node51" class="node">
<title>_Core3d__Core3dRenderLuts</title>
<text text-anchor="start" x="3931.5" y="-348.76" font-family="Helvetica,sans-Serif" font-size="14.00" fill="white">RenderLuts</text>
<text text-anchor="start" x="3868" y="-337.96" font-family="Helvetica,sans-Serif" font-size="10.00" fill="red">ViewNodeRunner&lt;AtmosphereLutsNode&gt;</text>
<path fill="none" stroke="white" d="M3874.33,-329.96C3874.33,-329.96 4067.67,-329.96 4067.67,-329.96 4073.33,-329.96 4079,-335.63 4079,-341.29 4079,-341.29 4079,-352.63 4079,-352.63 4079,-358.29 4073.33,-363.96 4067.67,-363.96 4067.67,-363.96 3874.33,-363.96 3874.33,-363.96 3868.67,-363.96 3863,-358.29 3863,-352.63 3863,-352.63 3863,-341.29 3863,-341.29 3863,-335.63 3868.67,-329.96 3874.33,-329.96"/>
</g>
<!-- _Core3d__Core3dEndPrepasses&#45;&gt;_Core3d__Core3dRenderLuts -->
<g id="edge78" class="edge">
<title>_Core3d__Core3dEndPrepasses:e&#45;&gt;_Core3d__Core3dRenderLuts:w</title>
<path fill="none" stroke="white" d="M3719,-406.96C3785.59,-406.96 3794.1,-352.9 3854.79,-347.41"/>
<polygon fill="white" stroke="white" points="3855.16,-350.9 3865,-346.96 3854.86,-343.9 3855.16,-350.9"/>
</g>
<!-- _Core3d__Core3dScreenSpaceAmbientOcclusion -->
<g id="node54" class="node">
<title>_Core3d__Core3dScreenSpaceAmbientOcclusion</title>
<text text-anchor="start" x="3863" y="-408.76" font-family="Helvetica,sans-Serif" font-size="14.00" fill="white">ScreenSpaceAmbientOcclusion</text>
<text text-anchor="start" x="3896" y="-397.96" font-family="Helvetica,sans-Serif" font-size="10.00" fill="red">ViewNodeRunner&lt;SsaoNode&gt;</text>
<path fill="none" stroke="white" d="M3869.33,-389.96C3869.33,-389.96 4072.67,-389.96 4072.67,-389.96 4078.33,-389.96 4084,-395.63 4084,-401.29 4084,-401.29 4084,-412.63 4084,-412.63 4084,-418.29 4078.33,-423.96 4072.67,-423.96 4072.67,-423.96 3869.33,-423.96 3869.33,-423.96 3863.67,-423.96 3858,-418.29 3858,-412.63 3858,-412.63 3858,-401.29 3858,-401.29 3858,-395.63 3863.67,-389.96 3869.33,-389.96"/>
</g>
<!-- _Core3d__Core3dEndPrepasses&#45;&gt;_Core3d__Core3dScreenSpaceAmbientOcclusion -->
<g id="edge81" class="edge">
<title>_Core3d__Core3dEndPrepasses:e&#45;&gt;_Core3d__Core3dScreenSpaceAmbientOcclusion:w</title>
<path fill="none" stroke="white" d="M3719,-406.96C3778.12,-406.96 3795.41,-406.96 3849.79,-406.96"/>
<polygon fill="white" stroke="white" points="3850,-410.46 3860,-406.96 3850,-403.46 3850,-410.46"/>
</g>
<!-- _Core3d__Core3dMainOpaquePass -->
<g id="node40" class="node">
<title>_Core3d__Core3dMainOpaquePass</title>
<text text-anchor="start" x="5118.5" y="-344.76" font-family="Helvetica,sans-Serif" font-size="14.00" fill="white">MainOpaquePass</text>
<text text-anchor="start" x="5067" y="-333.96" font-family="Helvetica,sans-Serif" font-size="10.00" fill="red">ViewNodeRunner&lt;MainOpaquePass3dNode&gt;</text>
<path fill="none" stroke="white" d="M5073.33,-325.96C5073.33,-325.96 5282.67,-325.96 5282.67,-325.96 5288.33,-325.96 5294,-331.63 5294,-337.29 5294,-337.29 5294,-348.63 5294,-348.63 5294,-354.29 5288.33,-359.96 5282.67,-359.96 5282.67,-359.96 5073.33,-359.96 5073.33,-359.96 5067.67,-359.96 5062,-354.29 5062,-348.63 5062,-348.63 5062,-337.29 5062,-337.29 5062,-331.63 5067.67,-325.96 5073.33,-325.96"/>
</g>
<!-- _Core3d__Core3dStartMainPass&#45;&gt;_Core3d__Core3dMainOpaquePass -->
<g id="edge59" class="edge">
<title>_Core3d__Core3dStartMainPass:e&#45;&gt;_Core3d__Core3dMainOpaquePass:w</title>
<path fill="none" stroke="white" d="M4578,-355.96C4615.51,-355.96 4622.76,-340.44 4660,-335.96 4802.09,-318.88 4839.02,-329.87 4982,-335.96 5014.83,-337.36 5025.33,-341.9 5053.65,-342.8"/>
<polygon fill="white" stroke="white" points="5053.95,-346.31 5064,-342.96 5054.05,-339.31 5053.95,-346.31"/>
</g>
<!-- _Core3d__Core3dDeferredLightingPass -->
<g id="node53" class="node">
<title>_Core3d__Core3dDeferredLightingPass</title>
<text text-anchor="start" x="4747" y="-367.76" font-family="Helvetica,sans-Serif" font-size="14.00" fill="white">DeferredLightingPass</text>
<text text-anchor="start" x="4673.5" y="-356.96" font-family="Helvetica,sans-Serif" font-size="10.00" fill="red">ViewNodeRunner&lt;DeferredOpaquePass3dPbrLightingNode&gt;</text>
<path fill="none" stroke="white" d="M4679.33,-348.96C4679.33,-348.96 4962.67,-348.96 4962.67,-348.96 4968.33,-348.96 4974,-354.63 4974,-360.29 4974,-360.29 4974,-371.63 4974,-371.63 4974,-377.29 4968.33,-382.96 4962.67,-382.96 4962.67,-382.96 4679.33,-382.96 4679.33,-382.96 4673.67,-382.96 4668,-377.29 4668,-371.63 4668,-371.63 4668,-360.29 4668,-360.29 4668,-354.63 4673.67,-348.96 4679.33,-348.96"/>
</g>
<!-- _Core3d__Core3dStartMainPass&#45;&gt;_Core3d__Core3dDeferredLightingPass -->
<g id="edge80" class="edge">
<title>_Core3d__Core3dStartMainPass:e&#45;&gt;_Core3d__Core3dDeferredLightingPass:w</title>
<path fill="none" stroke="white" d="M4578,-355.96C4615.43,-355.96 4626.87,-364.25 4659.63,-365.73"/>
<polygon fill="white" stroke="white" points="4659.93,-369.24 4670,-365.96 4660.08,-362.24 4659.93,-369.24"/>
</g>
<!-- _Core3d__Core3dStartMainPassPostProcessing&#45;&gt;_Core3d__Core3dLateDownsampleDepth -->
<g id="edge27" class="edge">
<title>_Core3d__Core3dStartMainPassPostProcessing:e&#45;&gt;_Core3d__Core3dLateDownsampleDepth:w</title>
<path fill="none" stroke="white" d="M7040,-340.96C7088.54,-340.96 7088.99,-392.82 7130.77,-400.11"/>
<polygon fill="white" stroke="white" points="7130.74,-403.62 7141,-400.96 7131.32,-396.65 7130.74,-403.62"/>
</g>
<!-- _Core3d__Core3dTonemapping -->
<g id="node49" class="node">
<title>_Core3d__Core3dTonemapping</title>
<text text-anchor="start" x="8618" y="-321.76" font-family="Helvetica,sans-Serif" font-size="14.00" fill="white">Tonemapping</text>
<text text-anchor="start" x="8569" y="-310.96" font-family="Helvetica,sans-Serif" font-size="10.00" fill="red">ViewNodeRunner&lt;TonemappingNode&gt;</text>
<path fill="none" stroke="white" d="M8575.33,-302.96C8575.33,-302.96 8754.67,-302.96 8754.67,-302.96 8760.33,-302.96 8766,-308.63 8766,-314.29 8766,-314.29 8766,-325.63 8766,-325.63 8766,-331.29 8760.33,-336.96 8754.67,-336.96 8754.67,-336.96 8575.33,-336.96 8575.33,-336.96 8569.67,-336.96 8564,-331.29 8564,-325.63 8564,-325.63 8564,-314.29 8564,-314.29 8564,-308.63 8569.67,-302.96 8575.33,-302.96"/>
</g>
<!-- _Core3d__Core3dStartMainPassPostProcessing&#45;&gt;_Core3d__Core3dTonemapping -->
<g id="edge72" class="edge">
<title>_Core3d__Core3dStartMainPassPostProcessing:e&#45;&gt;_Core3d__Core3dTonemapping:w</title>
<path fill="none" stroke="white" d="M7040,-340.96C7079.8,-340.96 7083.31,-314.3 7122,-304.96 7294.26,-263.36 7342.79,-280.96 7520,-280.96 7520,-280.96 7520,-280.96 8079,-280.96 8259.16,-280.96 8305.92,-270.68 8484,-297.96 8517.66,-303.12 8526.62,-316.88 8555.77,-319.52"/>
<polygon fill="white" stroke="white" points="8555.86,-323.03 8566,-319.96 8556.16,-316.03 8555.86,-323.03"/>
</g>
<!-- _Core3d__Core3dBloom -->
<g id="node57" class="node">
<title>_Core3d__Core3dBloom</title>
<text text-anchor="start" x="7784" y="-322.76" font-family="Helvetica,sans-Serif" font-size="14.00" fill="white">Bloom</text>
<text text-anchor="start" x="7727" y="-311.96" font-family="Helvetica,sans-Serif" font-size="10.00" fill="red">ViewNodeRunner&lt;BloomNode&gt;</text>
<path fill="none" stroke="white" d="M7733.33,-303.96C7733.33,-303.96 7878.67,-303.96 7878.67,-303.96 7884.33,-303.96 7890,-309.63 7890,-315.29 7890,-315.29 7890,-326.63 7890,-326.63 7890,-332.29 7884.33,-337.96 7878.67,-337.96 7878.67,-337.96 7733.33,-337.96 7733.33,-337.96 7727.67,-337.96 7722,-332.29 7722,-326.63 7722,-326.63 7722,-315.29 7722,-315.29 7722,-309.63 7727.67,-303.96 7733.33,-303.96"/>
</g>
<!-- _Core3d__Core3dStartMainPassPostProcessing&#45;&gt;_Core3d__Core3dBloom -->
<g id="edge83" class="edge">
<title>_Core3d__Core3dStartMainPassPostProcessing:e&#45;&gt;_Core3d__Core3dBloom:w</title>
<path fill="none" stroke="white" d="M7040,-340.96C7078.81,-340.96 7083.79,-317.73 7122,-310.96 7169.45,-302.55 7592.95,-316.52 7642,-317.96 7674.75,-318.93 7685.4,-320.58 7713.68,-320.9"/>
<polygon fill="white" stroke="white" points="7713.98,-324.41 7724,-320.96 7714.02,-317.41 7713.98,-324.41"/>
</g>
<!-- _Core3d__Core3dMotionBlur -->
<g id="node60" class="node">
<title>_Core3d__Core3dMotionBlur</title>
<text text-anchor="start" x="7187" y="-342.76" font-family="Helvetica,sans-Serif" font-size="14.00" fill="white">MotionBlur</text>
<text text-anchor="start" x="7135" y="-331.96" font-family="Helvetica,sans-Serif" font-size="10.00" fill="red">ViewNodeRunner&lt;MotionBlurNode&gt;</text>
<path fill="none" stroke="white" d="M7141.33,-323.96C7141.33,-323.96 7308.67,-323.96 7308.67,-323.96 7314.33,-323.96 7320,-329.63 7320,-335.29 7320,-335.29 7320,-346.63 7320,-346.63 7320,-352.29 7314.33,-357.96 7308.67,-357.96 7308.67,-357.96 7141.33,-357.96 7141.33,-357.96 7135.67,-357.96 7130,-352.29 7130,-346.63 7130,-346.63 7130,-335.29 7130,-335.29 7130,-329.63 7135.67,-323.96 7141.33,-323.96"/>
</g>
<!-- _Core3d__Core3dStartMainPassPostProcessing&#45;&gt;_Core3d__Core3dMotionBlur -->
<g id="edge88" class="edge">
<title>_Core3d__Core3dStartMainPassPostProcessing:e&#45;&gt;_Core3d__Core3dMotionBlur:w</title>
<path fill="none" stroke="white" d="M7040,-340.96C7077.22,-340.96 7089.03,-340.96 7121.68,-340.96"/>
<polygon fill="white" stroke="white" points="7122,-344.46 7132,-340.96 7122,-337.46 7122,-344.46"/>
</g>
<!-- _Core3d__Core3dFxaa -->
<g id="node37" class="node">
<title>_Core3d__Core3dFxaa</title>
<text text-anchor="start" x="8919" y="-299.76" font-family="Helvetica,sans-Serif" font-size="14.00" fill="white">Fxaa</text>
<text text-anchor="start" x="8860.5" y="-288.96" font-family="Helvetica,sans-Serif" font-size="10.00" fill="red">ViewNodeRunner&lt;FxaaNode&gt;</text>
<path fill="none" stroke="white" d="M8866.33,-280.96C8866.33,-280.96 9005.67,-280.96 9005.67,-280.96 9011.33,-280.96 9017,-286.63 9017,-292.29 9017,-292.29 9017,-303.63 9017,-303.63 9017,-309.29 9011.33,-314.96 9005.67,-314.96 9005.67,-314.96 8866.33,-314.96 8866.33,-314.96 8860.67,-314.96 8855,-309.29 8855,-303.63 8855,-303.63 8855,-292.29 8855,-292.29 8855,-286.63 8860.67,-280.96 8866.33,-280.96"/>
</g>
<!-- _Core3d__Core3dFxaa&#45;&gt;_Core3d__Core3dContrastAdaptiveSharpening -->
<g id="edge24" class="edge">
<title>_Core3d__Core3dFxaa:e&#45;&gt;_Core3d__Core3dContrastAdaptiveSharpening:w</title>
<path fill="none" stroke="white" d="M9015,-297.96C9056.3,-297.96 9062.23,-331.67 9097.73,-337.2"/>
<polygon fill="white" stroke="white" points="9097.77,-340.71 9108,-337.96 9098.29,-333.73 9097.77,-340.71"/>
</g>
<!-- _Core3d__Core3dFxaa&#45;&gt;_Core3d__Core3dEndMainPassPostProcessing -->
<g id="edge43" class="edge">
<title>_Core3d__Core3dFxaa:e&#45;&gt;_Core3d__Core3dEndMainPassPostProcessing:w</title>
<path fill="none" stroke="white" d="M9015,-297.96C9153.29,-297.96 9193.48,-268.44 9326,-307.96 9363.39,-319.11 9365.27,-351.65 9397.92,-357.16"/>
<polygon fill="white" stroke="white" points="9397.76,-360.66 9408,-357.96 9398.31,-353.68 9397.76,-360.66"/>
</g>
<!-- _Core3d__Core3dSmaa -->
<g id="node38" class="node">
<title>_Core3d__Core3dSmaa</title>
<text text-anchor="start" x="8916" y="-379.76" font-family="Helvetica,sans-Serif" font-size="14.00" fill="white">Smaa</text>
<text text-anchor="start" x="8859" y="-368.96" font-family="Helvetica,sans-Serif" font-size="10.00" fill="red">ViewNodeRunner&lt;SmaaNode&gt;</text>
<path fill="none" stroke="white" d="M8865.33,-360.96C8865.33,-360.96 9006.67,-360.96 9006.67,-360.96 9012.33,-360.96 9018,-366.63 9018,-372.29 9018,-372.29 9018,-383.63 9018,-383.63 9018,-389.29 9012.33,-394.96 9006.67,-394.96 9006.67,-394.96 8865.33,-394.96 8865.33,-394.96 8859.67,-394.96 8854,-389.29 8854,-383.63 8854,-383.63 8854,-372.29 8854,-372.29 8854,-366.63 8859.67,-360.96 8865.33,-360.96"/>
</g>
<!-- _Core3d__Core3dSmaa&#45;&gt;_Core3d__Core3dEndMainPassPostProcessing -->
<g id="edge44" class="edge">
<title>_Core3d__Core3dSmaa:e&#45;&gt;_Core3d__Core3dEndMainPassPostProcessing:w</title>
<path fill="none" stroke="white" d="M9016,-377.96C9153.85,-377.96 9188.56,-378.54 9326,-367.96 9359.03,-365.42 9369.32,-359.32 9397.99,-358.16"/>
<polygon fill="white" stroke="white" points="9398.07,-361.66 9408,-357.96 9397.93,-354.66 9398.07,-361.66"/>
</g>
<!-- _Core3d__Core3dTaa -->
<g id="node39" class="node">
<title>_Core3d__Core3dTaa</title>
<text text-anchor="start" x="7509.5" y="-362.76" font-family="Helvetica,sans-Serif" font-size="14.00" fill="white">Taa</text>
<text text-anchor="start" x="7413.5" y="-351.96" font-family="Helvetica,sans-Serif" font-size="10.00" fill="red">ViewNodeRunner&lt;TemporalAntiAliasNode&gt;</text>
<path fill="none" stroke="white" d="M7419.33,-343.96C7419.33,-343.96 7622.67,-343.96 7622.67,-343.96 7628.33,-343.96 7634,-349.63 7634,-355.29 7634,-355.29 7634,-366.63 7634,-366.63 7634,-372.29 7628.33,-377.96 7622.67,-377.96 7622.67,-377.96 7419.33,-377.96 7419.33,-377.96 7413.67,-377.96 7408,-372.29 7408,-366.63 7408,-366.63 7408,-355.29 7408,-355.29 7408,-349.63 7413.67,-343.96 7419.33,-343.96"/>
</g>
<!-- _Core3d__Core3dTaa&#45;&gt;_Core3d__Core3dBloom -->
<g id="edge85" class="edge">
<title>_Core3d__Core3dTaa:e&#45;&gt;_Core3d__Core3dBloom:w</title>
<path fill="none" stroke="white" d="M7632,-360.96C7672.93,-360.96 7678.67,-327.25 7713.82,-321.72"/>
<polygon fill="white" stroke="white" points="7714.29,-325.2 7724,-320.96 7713.77,-318.22 7714.29,-325.2"/>
</g>
<!-- _Core3d__Core3dMainTransmissivePass -->
<g id="node41" class="node">
<title>_Core3d__Core3dMainTransmissivePass</title>
<text text-anchor="start" x="5434" y="-302.76" font-family="Helvetica,sans-Serif" font-size="14.00" fill="white">MainTransmissivePass</text>
<text text-anchor="start" x="5387" y="-291.96" font-family="Helvetica,sans-Serif" font-size="10.00" fill="red">ViewNodeRunner&lt;MainTransmissivePass3dNode&gt;</text>
<path fill="none" stroke="white" d="M5393.33,-283.96C5393.33,-283.96 5628.67,-283.96 5628.67,-283.96 5634.33,-283.96 5640,-289.63 5640,-295.29 5640,-295.29 5640,-306.63 5640,-306.63 5640,-312.29 5634.33,-317.96 5628.67,-317.96 5628.67,-317.96 5393.33,-317.96 5393.33,-317.96 5387.67,-317.96 5382,-312.29 5382,-306.63 5382,-306.63 5382,-295.29 5382,-295.29 5382,-289.63 5387.67,-283.96 5393.33,-283.96"/>
</g>
<!-- _Core3d__Core3dMainOpaquePass&#45;&gt;_Core3d__Core3dMainTransmissivePass -->
<g id="edge61" class="edge">
<title>_Core3d__Core3dMainOpaquePass:e&#45;&gt;_Core3d__Core3dMainTransmissivePass:w</title>
<path fill="none" stroke="white" d="M5292,-342.96C5333.26,-342.96 5338.42,-307.57 5373.76,-301.76"/>
<polygon fill="white" stroke="white" points="5374.3,-305.23 5384,-300.96 5373.76,-298.25 5374.3,-305.23"/>
</g>
<!-- _Core3d__Core3dRenderSky -->
<g id="node52" class="node">
<title>_Core3d__Core3dRenderSky</title>
<text text-anchor="start" x="5473.5" y="-362.76" font-family="Helvetica,sans-Serif" font-size="14.00" fill="white">RenderSky</text>
<text text-anchor="start" x="5422" y="-351.96" font-family="Helvetica,sans-Serif" font-size="10.00" fill="red">ViewNodeRunner&lt;RenderSkyNode&gt;</text>
<path fill="none" stroke="white" d="M5428.33,-343.96C5428.33,-343.96 5593.67,-343.96 5593.67,-343.96 5599.33,-343.96 5605,-349.63 5605,-355.29 5605,-355.29 5605,-366.63 5605,-366.63 5605,-372.29 5599.33,-377.96 5593.67,-377.96 5593.67,-377.96 5428.33,-377.96 5428.33,-377.96 5422.67,-377.96 5417,-372.29 5417,-366.63 5417,-366.63 5417,-355.29 5417,-355.29 5417,-349.63 5422.67,-343.96 5428.33,-343.96"/>
</g>
<!-- _Core3d__Core3dMainOpaquePass&#45;&gt;_Core3d__Core3dRenderSky -->
<g id="edge79" class="edge">
<title>_Core3d__Core3dMainOpaquePass:e&#45;&gt;_Core3d__Core3dRenderSky:w</title>
<path fill="none" stroke="white" d="M5292,-342.96C5345.45,-342.96 5360.2,-358.78 5408.81,-360.76"/>
<polygon fill="white" stroke="white" points="5408.93,-364.26 5419,-360.96 5409.07,-357.26 5408.93,-364.26"/>
</g>
<!-- _Core3d__Core3dMainTransparentPass -->
<g id="node42" class="node">
<title>_Core3d__Core3dMainTransparentPass</title>
<text text-anchor="start" x="5780.5" y="-360.76" font-family="Helvetica,sans-Serif" font-size="14.00" fill="white">MainTransparentPass</text>
<text text-anchor="start" x="5733.5" y="-349.96" font-family="Helvetica,sans-Serif" font-size="10.00" fill="red">ViewNodeRunner&lt;MainTransparentPass3dNode&gt;</text>
<path fill="none" stroke="white" d="M5739.33,-341.96C5739.33,-341.96 5968.67,-341.96 5968.67,-341.96 5974.33,-341.96 5980,-347.63 5980,-353.29 5980,-353.29 5980,-364.63 5980,-364.63 5980,-370.29 5974.33,-375.96 5968.67,-375.96 5968.67,-375.96 5739.33,-375.96 5739.33,-375.96 5733.67,-375.96 5728,-370.29 5728,-364.63 5728,-364.63 5728,-353.29 5728,-353.29 5728,-347.63 5733.67,-341.96 5739.33,-341.96"/>
</g>
<!-- _Core3d__Core3dMainTransmissivePass&#45;&gt;_Core3d__Core3dMainTransparentPass -->
<g id="edge62" class="edge">
<title>_Core3d__Core3dMainTransmissivePass:e&#45;&gt;_Core3d__Core3dMainTransparentPass:w</title>
<path fill="none" stroke="white" d="M5638,-300.96C5682.56,-300.96 5682.07,-350.25 5719.59,-357.95"/>
<polygon fill="white" stroke="white" points="5719.71,-361.48 5730,-358.96 5720.38,-354.52 5719.71,-361.48"/>
</g>
<!-- _Core3d__Core3dMainTransparentPass&#45;&gt;_Core3d__Core3dEndMainPass -->
<g id="edge39" class="edge">
<title>_Core3d__Core3dMainTransparentPass:e&#45;&gt;_Core3d__Core3dEndMainPass:w</title>
<path fill="none" stroke="white" d="M5978,-358.96C6106.01,-358.96 6138.83,-348.27 6266,-362.96 6299.45,-366.82 6308.92,-378.37 6337.86,-380.59"/>
<polygon fill="white" stroke="white" points="6337.88,-384.09 6348,-380.96 6338.13,-377.1 6337.88,-384.09"/>
</g>
<!-- _Core3d__Core3dOitResolvePass -->
<g id="node46" class="node">
<title>_Core3d__Core3dOitResolvePass</title>
<text text-anchor="start" x="6110.5" y="-394.76" font-family="Helvetica,sans-Serif" font-size="14.00" fill="white">OitResolvePass</text>
<text text-anchor="start" x="6073" y="-383.96" font-family="Helvetica,sans-Serif" font-size="10.00" fill="red">ViewNodeRunner&lt;OitResolveNode&gt;</text>
<path fill="none" stroke="white" d="M6079.33,-375.96C6079.33,-375.96 6246.67,-375.96 6246.67,-375.96 6252.33,-375.96 6258,-381.63 6258,-387.29 6258,-387.29 6258,-398.63 6258,-398.63 6258,-404.29 6252.33,-409.96 6246.67,-409.96 6246.67,-409.96 6079.33,-409.96 6079.33,-409.96 6073.67,-409.96 6068,-404.29 6068,-398.63 6068,-398.63 6068,-387.29 6068,-387.29 6068,-381.63 6073.67,-375.96 6079.33,-375.96"/>
</g>
<!-- _Core3d__Core3dMainTransparentPass&#45;&gt;_Core3d__Core3dOitResolvePass -->
<g id="edge67" class="edge">
<title>_Core3d__Core3dMainTransparentPass:e&#45;&gt;_Core3d__Core3dOitResolvePass:w</title>
<path fill="none" stroke="white" d="M5978,-358.96C6018.02,-358.96 6025.36,-387.61 6060.01,-392.31"/>
<polygon fill="white" stroke="white" points="6059.79,-395.81 6070,-392.96 6060.25,-388.82 6059.79,-395.81"/>
</g>
<!-- _Core3d__Core3dCopyDeferredLightingId -->
<g id="node43" class="node">
<title>_Core3d__Core3dCopyDeferredLightingId</title>
<text text-anchor="start" x="3267" y="-398.76" font-family="Helvetica,sans-Serif" font-size="14.00" fill="white">CopyDeferredLightingId</text>
<text text-anchor="start" x="3229" y="-387.96" font-family="Helvetica,sans-Serif" font-size="10.00" fill="red">ViewNodeRunner&lt;CopyDeferredLightingIdNode&gt;</text>
<path fill="none" stroke="white" d="M3235.33,-379.96C3235.33,-379.96 3464.67,-379.96 3464.67,-379.96 3470.33,-379.96 3476,-385.63 3476,-391.29 3476,-391.29 3476,-402.63 3476,-402.63 3476,-408.29 3470.33,-413.96 3464.67,-413.96 3464.67,-413.96 3235.33,-413.96 3235.33,-413.96 3229.67,-413.96 3224,-408.29 3224,-402.63 3224,-402.63 3224,-391.29 3224,-391.29 3224,-385.63 3229.67,-379.96 3235.33,-379.96"/>
</g>
<!-- _Core3d__Core3dCopyDeferredLightingId&#45;&gt;_Core3d__Core3dEndPrepasses -->
<g id="edge46" class="edge">
<title>_Core3d__Core3dCopyDeferredLightingId:e&#45;&gt;_Core3d__Core3dEndPrepasses:w</title>
<path fill="none" stroke="white" d="M3474,-396.96C3533.27,-396.96 3550.28,-405.86 3604.76,-406.87"/>
<polygon fill="white" stroke="white" points="3604.97,-410.37 3615,-406.96 3605.03,-403.37 3604.97,-410.37"/>
</g>
<!-- _Core3d__Core3dEarlyDeferredPrepass -->
<g id="node44" class="node">
<title>_Core3d__Core3dEarlyDeferredPrepass</title>
<text text-anchor="start" x="1363" y="-357.76" font-family="Helvetica,sans-Serif" font-size="14.00" fill="white">EarlyDeferredPrepass</text>
<text text-anchor="start" x="1303.5" y="-346.96" font-family="Helvetica,sans-Serif" font-size="10.00" fill="red">ViewNodeRunner&lt;EarlyDeferredGBufferPrepassNode&gt;</text>
<path fill="none" stroke="white" d="M1309.33,-338.96C1309.33,-338.96 1566.67,-338.96 1566.67,-338.96 1572.33,-338.96 1578,-344.63 1578,-350.29 1578,-350.29 1578,-361.63 1578,-361.63 1578,-367.29 1572.33,-372.96 1566.67,-372.96 1566.67,-372.96 1309.33,-372.96 1309.33,-372.96 1303.67,-372.96 1298,-367.29 1298,-361.63 1298,-361.63 1298,-350.29 1298,-350.29 1298,-344.63 1303.67,-338.96 1309.33,-338.96"/>
</g>
<!-- _Core3d__Core3dEarlyDeferredPrepass&#45;&gt;_Core3d__Core3dEarlyDownsampleDepth -->
<g id="edge25" class="edge">
<title>_Core3d__Core3dEarlyDeferredPrepass:e&#45;&gt;_Core3d__Core3dEarlyDownsampleDepth:w</title>
<path fill="none" stroke="white" d="M1576,-355.96C1621.85,-355.96 1633.91,-337.03 1674.87,-334.29"/>
<polygon fill="white" stroke="white" points="1675.12,-337.78 1685,-333.96 1674.89,-330.79 1675.12,-337.78"/>
</g>
<!-- _Core3d__Core3dEarlyDeferredPrepass&#45;&gt;_Core3d__Core3dLatePrepass -->
<g id="edge69" class="edge">
<title>_Core3d__Core3dEarlyDeferredPrepass:e&#45;&gt;_Core3d__Core3dLatePrepass:w</title>
<path fill="none" stroke="white" d="M1576,-355.96C1612.62,-355.96 1621.44,-361.89 1658,-363.96 1904.75,-377.97 1966.86,-370.96 2214,-372.96 2336.66,-373.95 2367.5,-379.43 2490,-372.96 2524.23,-371.15 2534.96,-365.28 2564.64,-364.15"/>
<polygon fill="white" stroke="white" points="2565.07,-367.64 2575,-363.96 2564.94,-360.64 2565.07,-367.64"/>
</g>
<!-- _Core3d__Core3dLateDeferredPrepass -->
<g id="node45" class="node">
<title>_Core3d__Core3dLateDeferredPrepass</title>
<text text-anchor="start" x="2926" y="-365.76" font-family="Helvetica,sans-Serif" font-size="14.00" fill="white">LateDeferredPrepass</text>
<text text-anchor="start" x="2865.5" y="-354.96" font-family="Helvetica,sans-Serif" font-size="10.00" fill="red">ViewNodeRunner&lt;LateDeferredGBufferPrepassNode&gt;</text>
<path fill="none" stroke="white" d="M2871.33,-346.96C2871.33,-346.96 3124.67,-346.96 3124.67,-346.96 3130.33,-346.96 3136,-352.63 3136,-358.29 3136,-358.29 3136,-369.63 3136,-369.63 3136,-375.29 3130.33,-380.96 3124.67,-380.96 3124.67,-380.96 2871.33,-380.96 2871.33,-380.96 2865.67,-380.96 2860,-375.29 2860,-369.63 2860,-369.63 2860,-358.29 2860,-358.29 2860,-352.63 2865.67,-346.96 2871.33,-346.96"/>
</g>
<!-- _Core3d__Core3dLateDeferredPrepass&#45;&gt;_Core3d__Core3dMainBuildIndirectParameters -->
<g id="edge34" class="edge">
<title>_Core3d__Core3dLateDeferredPrepass:e&#45;&gt;_Core3d__Core3dMainBuildIndirectParameters:w</title>
<path fill="none" stroke="white" d="M3134,-363.96C3183.23,-363.96 3192.94,-331.85 3236.77,-327.46"/>
<polygon fill="white" stroke="white" points="3237.18,-330.94 3247,-326.96 3236.84,-323.95 3237.18,-330.94"/>
</g>
<!-- _Core3d__Core3dLateDeferredPrepass&#45;&gt;_Core3d__Core3dCopyDeferredLightingId -->
<g id="edge64" class="edge">
<title>_Core3d__Core3dLateDeferredPrepass:e&#45;&gt;_Core3d__Core3dCopyDeferredLightingId:w</title>
<path fill="none" stroke="white" d="M3134,-363.96C3173.71,-363.96 3181.4,-391.53 3215.6,-396.27"/>
<polygon fill="white" stroke="white" points="3215.79,-399.79 3226,-396.96 3216.25,-392.81 3215.79,-399.79"/>
</g>
<!-- _Core3d__Core3dOitResolvePass&#45;&gt;_Core3d__Core3dEndMainPass -->
<g id="edge40" class="edge">
<title>_Core3d__Core3dOitResolvePass:e&#45;&gt;_Core3d__Core3dEndMainPass:w</title>
<path fill="none" stroke="white" d="M6256,-392.96C6293.53,-392.96 6304.8,-383.02 6337.61,-381.23"/>
<polygon fill="white" stroke="white" points="6338.1,-384.72 6348,-380.96 6337.91,-377.73 6338.1,-384.72"/>
</g>
<!-- _Core3d__Core3dEarlyPrepass&#45;&gt;_Core3d__Core3dEarlyDeferredPrepass -->
<g id="edge65" class="edge">
<title>_Core3d__Core3dEarlyPrepass:e&#45;&gt;_Core3d__Core3dEarlyDeferredPrepass:w</title>
<path fill="none" stroke="white" d="M1182,-350.96C1230.9,-350.96 1245.54,-355.3 1289.76,-355.89"/>
<polygon fill="white" stroke="white" points="1289.98,-359.4 1300,-355.96 1290.02,-352.4 1289.98,-359.4"/>
</g>
<!-- _Core3d__Core3dLatePrepass&#45;&gt;_Core3d__Core3dLateDeferredPrepass -->
<g id="edge66" class="edge">
<title>_Core3d__Core3dLatePrepass:e&#45;&gt;_Core3d__Core3dLateDeferredPrepass:w</title>
<path fill="none" stroke="white" d="M2767,-363.96C2805.59,-363.96 2817.73,-363.96 2851.78,-363.96"/>
<polygon fill="white" stroke="white" points="2852,-367.46 2862,-363.96 2852,-360.46 2852,-367.46"/>
</g>
<!-- _Core3d__Core3dTonemapping&#45;&gt;_Core3d__Core3dContrastAdaptiveSharpening -->
<g id="edge23" class="edge">
<title>_Core3d__Core3dTonemapping:e&#45;&gt;_Core3d__Core3dContrastAdaptiveSharpening:w</title>
<path fill="none" stroke="white" d="M8764,-319.96C8800.62,-319.96 8809.47,-325.48 8846,-327.96 8958.86,-335.61 8989.68,-337.83 9097.98,-337.96"/>
<polygon fill="white" stroke="white" points="9098,-341.46 9108,-337.96 9098,-334.46 9098,-341.46"/>
</g>
<!-- _Core3d__Core3dTonemapping&#45;&gt;_Core3d__Core3dEndMainPassPostProcessing -->
<g id="edge41" class="edge">
<title>_Core3d__Core3dTonemapping:e&#45;&gt;_Core3d__Core3dEndMainPassPostProcessing:w</title>
<path fill="none" stroke="white" d="M8764,-319.96C8807.15,-319.96 8804.56,-279.99 8846,-267.96 8918.35,-246.96 9303.21,-274.5 9326,-283.96 9367.97,-301.4 9360.44,-349.97 9398.04,-357.09"/>
<polygon fill="white" stroke="white" points="9397.73,-360.57 9408,-357.96 9398.34,-353.6 9397.73,-360.57"/>
</g>
<!-- _Core3d__Core3dTonemapping&#45;&gt;_Core3d__Core3dFxaa -->
<g id="edge56" class="edge">
<title>_Core3d__Core3dTonemapping:e&#45;&gt;_Core3d__Core3dFxaa:w</title>
<path fill="none" stroke="white" d="M8764,-319.96C8802.82,-319.96 8812.89,-301.58 8846.77,-298.42"/>
<polygon fill="white" stroke="white" points="8847.17,-301.91 8857,-297.96 8846.85,-294.91 8847.17,-301.91"/>
</g>
<!-- _Core3d__Core3dTonemapping&#45;&gt;_Core3d__Core3dSmaa -->
<g id="edge57" class="edge">
<title>_Core3d__Core3dTonemapping:e&#45;&gt;_Core3d__Core3dSmaa:w</title>
<path fill="none" stroke="white" d="M8764,-319.96C8808.56,-319.96 8808.07,-369.25 8845.59,-376.95"/>
<polygon fill="white" stroke="white" points="8845.71,-380.48 8856,-377.96 8846.38,-373.52 8845.71,-380.48"/>
</g>
<!-- _Core3d__Core3dRenderLuts&#45;&gt;_Core3d__Core3dStartMainPass -->
<g id="edge53" class="edge">
<title>_Core3d__Core3dRenderLuts:e&#45;&gt;_Core3d__Core3dStartMainPass:w</title>
<path fill="none" stroke="white" d="M4077,-346.96C4250.04,-346.96 4295.74,-355.61 4463.81,-355.95"/>
<polygon fill="white" stroke="white" points="4464,-359.45 4474,-355.96 4464,-352.45 4464,-359.45"/>
</g>
<!-- _Core3d__Core3dRenderSky&#45;&gt;_Core3d__Core3dMainTransparentPass -->
<g id="edge63" class="edge">
<title>_Core3d__Core3dRenderSky:e&#45;&gt;_Core3d__Core3dMainTransparentPass:w</title>
<path fill="none" stroke="white" d="M5603,-360.96C5655.92,-360.96 5671.62,-359.2 5719.89,-358.98"/>
<polygon fill="white" stroke="white" points="5720.01,-362.48 5730,-358.96 5719.99,-355.48 5720.01,-362.48"/>
</g>
<!-- _Core3d__Core3dDeferredLightingPass&#45;&gt;_Core3d__Core3dMainOpaquePass -->
<g id="edge60" class="edge">
<title>_Core3d__Core3dDeferredLightingPass:e&#45;&gt;_Core3d__Core3dMainOpaquePass:w</title>
<path fill="none" stroke="white" d="M4972,-365.96C5010.53,-365.96 5020.27,-346.74 5053.85,-343.44"/>
<polygon fill="white" stroke="white" points="5054.18,-346.93 5064,-342.96 5053.85,-339.94 5054.18,-346.93"/>
</g>
<!-- _Core3d__Core3dScreenSpaceAmbientOcclusion&#45;&gt;_Core3d__Core3dStartMainPass -->
<g id="edge50" class="edge">
<title>_Core3d__Core3dScreenSpaceAmbientOcclusion:e&#45;&gt;_Core3d__Core3dStartMainPass:w</title>
<path fill="none" stroke="white" d="M4082,-406.96C4254.26,-406.96 4296.67,-357.93 4463.86,-356.02"/>
<polygon fill="white" stroke="white" points="4464.02,-359.52 4474,-355.96 4463.98,-352.52 4464.02,-359.52"/>
</g>
<!-- _Core3d__Core3dScreenSpaceReflections -->
<g id="node55" class="node">
<title>_Core3d__Core3dScreenSpaceReflections</title>
<text text-anchor="start" x="68" y="-277.76" font-family="Helvetica,sans-Serif" font-size="14.00" fill="white">ScreenSpaceReflections</text>
<text text-anchor="start" x="29.5" y="-266.96" font-family="Helvetica,sans-Serif" font-size="10.00" fill="red">ViewNodeRunner&lt;ScreenSpaceReflectionsNode&gt;</text>
<path fill="none" stroke="white" d="M35.33,-258.96C35.33,-258.96 266.67,-258.96 266.67,-258.96 272.33,-258.96 278,-264.63 278,-270.29 278,-270.29 278,-281.63 278,-281.63 278,-287.29 272.33,-292.96 266.67,-292.96 266.67,-292.96 35.33,-292.96 35.33,-292.96 29.67,-292.96 24,-287.29 24,-281.63 24,-281.63 24,-270.29 24,-270.29 24,-264.63 29.67,-258.96 35.33,-258.96"/>
</g>
<!-- _Core3d__Core3dVolumetricFog&#45;&gt;_Core3d__Core3dStartMainPassPostProcessing -->
<g id="edge55" class="edge">
<title>_Core3d__Core3dVolumetricFog:e&#45;&gt;_Core3d__Core3dStartMainPassPostProcessing:w</title>
<path fill="none" stroke="white" d="M6740,-380.96C6780.93,-380.96 6786.67,-347.25 6821.82,-341.72"/>
<polygon fill="white" stroke="white" points="6822.29,-345.2 6832,-340.96 6821.77,-338.22 6822.29,-345.2"/>
</g>
<!-- _Core3d__Core3dBloom&#45;&gt;_Core3d__Core3dTonemapping -->
<g id="edge73" class="edge">
<title>_Core3d__Core3dBloom:e&#45;&gt;_Core3d__Core3dTonemapping:w</title>
<path fill="none" stroke="white" d="M7888,-320.96C7924.71,-320.96 7933.35,-313.19 7970,-310.96 8198.02,-297.11 8255.9,-298.48 8484,-310.96 8516.89,-312.76 8527.28,-318.59 8555.64,-319.76"/>
<polygon fill="white" stroke="white" points="8555.93,-323.26 8566,-319.96 8556.07,-316.27 8555.93,-323.26"/>
</g>
<!-- _Core3d__Core3dDepthOfField -->
<g id="node58" class="node">
<title>_Core3d__Core3dDepthOfField</title>
<text text-anchor="start" x="8032.5" y="-342.76" font-family="Helvetica,sans-Serif" font-size="14.00" fill="white">DepthOfField</text>
<text text-anchor="start" x="7983" y="-331.96" font-family="Helvetica,sans-Serif" font-size="10.00" fill="red">ViewNodeRunner&lt;DepthOfFieldNode&gt;</text>
<path fill="none" stroke="white" d="M7989.33,-323.96C7989.33,-323.96 8166.67,-323.96 8166.67,-323.96 8172.33,-323.96 8178,-329.63 8178,-335.29 8178,-335.29 8178,-346.63 8178,-346.63 8178,-352.29 8172.33,-357.96 8166.67,-357.96 8166.67,-357.96 7989.33,-357.96 7989.33,-357.96 7983.67,-357.96 7978,-352.29 7978,-346.63 7978,-346.63 7978,-335.29 7978,-335.29 7978,-329.63 7983.67,-323.96 7989.33,-323.96"/>
</g>
<!-- _Core3d__Core3dBloom&#45;&gt;_Core3d__Core3dDepthOfField -->
<g id="edge86" class="edge">
<title>_Core3d__Core3dBloom:e&#45;&gt;_Core3d__Core3dDepthOfField:w</title>
<path fill="none" stroke="white" d="M7888,-320.96C7926.25,-320.96 7936.48,-337.67 7969.91,-340.54"/>
<polygon fill="white" stroke="white" points="7969.86,-344.04 7980,-340.96 7970.15,-337.05 7969.86,-344.04"/>
</g>
<!-- _Core3d__Core3dDepthOfField&#45;&gt;_Core3d__Core3dTonemapping -->
<g id="edge74" class="edge">
<title>_Core3d__Core3dDepthOfField:e&#45;&gt;_Core3d__Core3dTonemapping:w</title>
<path fill="none" stroke="white" d="M8176,-340.96C8214.81,-340.96 8219.79,-364.19 8258,-370.96 8356.9,-388.49 8387.42,-398.55 8484,-370.96 8521.72,-360.19 8523.14,-326.5 8555.88,-320.79"/>
<polygon fill="white" stroke="white" points="8556.32,-324.26 8566,-319.96 8555.75,-317.29 8556.32,-324.26"/>
</g>
<!-- _Core3d__Core3dPostProcessing -->
<g id="node59" class="node">
<title>_Core3d__Core3dPostProcessing</title>
<text text-anchor="start" x="8319" y="-342.76" font-family="Helvetica,sans-Serif" font-size="14.00" fill="white">PostProcessing</text>
<text text-anchor="start" x="8271" y="-331.96" font-family="Helvetica,sans-Serif" font-size="10.00" fill="red">ViewNodeRunner&lt;PostProcessingNode&gt;</text>
<path fill="none" stroke="white" d="M8277.33,-323.96C8277.33,-323.96 8464.67,-323.96 8464.67,-323.96 8470.33,-323.96 8476,-329.63 8476,-335.29 8476,-335.29 8476,-346.63 8476,-346.63 8476,-352.29 8470.33,-357.96 8464.67,-357.96 8464.67,-357.96 8277.33,-357.96 8277.33,-357.96 8271.67,-357.96 8266,-352.29 8266,-346.63 8266,-346.63 8266,-335.29 8266,-335.29 8266,-329.63 8271.67,-323.96 8277.33,-323.96"/>
</g>
<!-- _Core3d__Core3dDepthOfField&#45;&gt;_Core3d__Core3dPostProcessing -->
<g id="edge87" class="edge">
<title>_Core3d__Core3dDepthOfField:e&#45;&gt;_Core3d__Core3dPostProcessing:w</title>
<path fill="none" stroke="white" d="M8176,-340.96C8213.22,-340.96 8225.03,-340.96 8257.68,-340.96"/>
<polygon fill="white" stroke="white" points="8258,-344.46 8268,-340.96 8258,-337.46 8258,-344.46"/>
</g>
<!-- _Core3d__Core3dPostProcessing&#45;&gt;_Core3d__Core3dTonemapping -->
<g id="edge75" class="edge">
<title>_Core3d__Core3dPostProcessing:e&#45;&gt;_Core3d__Core3dTonemapping:w</title>
<path fill="none" stroke="white" d="M8474,-340.96C8512.34,-340.96 8522.41,-323.42 8555.89,-320.4"/>
<polygon fill="white" stroke="white" points="8556.16,-323.89 8566,-319.96 8555.86,-316.9 8556.16,-323.89"/>
</g>
<!-- _Core3d__Core3dMotionBlur&#45;&gt;_Core3d__Core3dTaa -->
<g id="edge58" class="edge">
<title>_Core3d__Core3dMotionBlur:e&#45;&gt;_Core3d__Core3dTaa:w</title>
<path fill="none" stroke="white" d="M7318,-340.96C7356.25,-340.96 7366.48,-357.67 7399.91,-360.54"/>
<polygon fill="white" stroke="white" points="7399.86,-364.04 7410,-360.96 7400.15,-357.05 7399.86,-364.04"/>
</g>
<!-- _Core3d__Core3dMotionBlur&#45;&gt;_Core3d__Core3dBloom -->
<g id="edge84" class="edge">
<title>_Core3d__Core3dMotionBlur:e&#45;&gt;_Core3d__Core3dBloom:w</title>
<path fill="none" stroke="white" d="M7318,-340.96C7354.71,-340.96 7363.39,-333.75 7400,-330.96 7540.14,-320.28 7578.1,-320.92 7713.64,-320.96"/>
<polygon fill="white" stroke="white" points="7714,-324.46 7724,-320.96 7714,-317.46 7714,-324.46"/>
</g>
<!-- _Core3d__Core3dMsaaWriteback -->
<g id="node61" class="node">
<title>_Core3d__Core3dMsaaWriteback</title>
<text text-anchor="start" x="4225" y="-277.76" font-family="Helvetica,sans-Serif" font-size="14.00" fill="white">MsaaWriteback</text>
<text text-anchor="start" x="4177" y="-266.96" font-family="Helvetica,sans-Serif" font-size="10.00" fill="red">ViewNodeRunner&lt;MsaaWritebackNode&gt;</text>
<path fill="none" stroke="white" d="M4183.33,-258.96C4183.33,-258.96 4372.67,-258.96 4372.67,-258.96 4378.33,-258.96 4384,-264.63 4384,-270.29 4384,-270.29 4384,-281.63 4384,-281.63 4384,-287.29 4378.33,-292.96 4372.67,-292.96 4372.67,-292.96 4183.33,-292.96 4183.33,-292.96 4177.67,-292.96 4172,-287.29 4172,-281.63 4172,-281.63 4172,-270.29 4172,-270.29 4172,-264.63 4177.67,-258.96 4183.33,-258.96"/>
</g>
<!-- _Core3d__Core3dMsaaWriteback&#45;&gt;_Core3d__Core3dStartMainPass -->
<g id="edge48" class="edge">
<title>_Core3d__Core3dMsaaWriteback:e&#45;&gt;_Core3d__Core3dStartMainPass:w</title>
<path fill="none" stroke="white" d="M4382,-275.96C4432.48,-275.96 4421.72,-345.4 4463.83,-354.89"/>
<polygon fill="white" stroke="white" points="4463.69,-358.4 4474,-355.96 4464.42,-351.43 4463.69,-358.4"/>
</g>
<!-- _Core3d__Core3dUiPass&#45;&gt;_Core3d__Core3dUpscaling -->
<g id="edge77" class="edge">
<title>_Core3d__Core3dUiPass:e&#45;&gt;_Core3d__Core3dUpscaling:w</title>
<path fill="none" stroke="white" d="M9858,-397.96C9896.25,-397.96 9906.48,-381.25 9939.91,-378.38"/>
<polygon fill="white" stroke="white" points="9940.15,-381.87 9950,-377.96 9939.86,-374.88 9940.15,-381.87"/>
</g>
<!-- _PixelArtRendererLabel -->
<g id="node63" class="node">
<title>_PixelArtRendererLabel</title>
<text text-anchor="start" x="74.5" y="-569.76" font-family="Helvetica,sans-Serif" font-size="14.00" fill="white">PixelArtRendererLabel</text>
<text text-anchor="start" x="111.5" y="-558.96" font-family="Helvetica,sans-Serif" font-size="10.00" fill="red">RaytracingNode</text>
<path fill="none" stroke="white" d="M80.33,-550.96C80.33,-550.96 221.67,-550.96 221.67,-550.96 227.33,-550.96 233,-556.63 233,-562.29 233,-562.29 233,-573.63 233,-573.63 233,-579.29 227.33,-584.96 221.67,-584.96 221.67,-584.96 80.33,-584.96 80.33,-584.96 74.67,-584.96 69,-579.29 69,-573.63 69,-573.63 69,-562.29 69,-562.29 69,-556.63 74.67,-550.96 80.33,-550.96"/>
</g>
<!-- _CameraDriverLabel -->
<g id="node64" class="node">
<title>_CameraDriverLabel</title>
<text text-anchor="start" x="374" y="-569.76" font-family="Helvetica,sans-Serif" font-size="14.00" fill="white">CameraDriverLabel</text>
<text text-anchor="start" x="394" y="-558.96" font-family="Helvetica,sans-Serif" font-size="10.00" fill="red">CameraDriverNode</text>
<path fill="none" stroke="white" d="M380.33,-550.96C380.33,-550.96 501.67,-550.96 501.67,-550.96 507.33,-550.96 513,-556.63 513,-562.29 513,-562.29 513,-573.63 513,-573.63 513,-579.29 507.33,-584.96 501.67,-584.96 501.67,-584.96 380.33,-584.96 380.33,-584.96 374.67,-584.96 369,-579.29 369,-573.63 369,-573.63 369,-562.29 369,-562.29 369,-556.63 374.67,-550.96 380.33,-550.96"/>
</g>
<!-- _PixelArtRendererLabel&#45;&gt;_CameraDriverLabel -->
<g id="edge91" class="edge">
<title>_PixelArtRendererLabel:e&#45;&gt;_CameraDriverLabel:w</title>
<path fill="none" stroke="white" d="M231,-567.96C289.7,-567.96 306.87,-567.96 360.86,-567.96"/>
<polygon fill="white" stroke="white" points="361,-571.46 371,-567.96 361,-564.46 361,-571.46"/>
</g>
</g>
</svg>
