<?xml version="1.0" encoding="UTF-8" standalone="no"?>
<!DOCTYPE svg PUBLIC "-//W3C//DTD SVG 1.1//EN"
 "http://www.w3.org/Graphics/SVG/1.1/DTD/svg11.dtd">
<!-- Generated by graphviz version 2.43.0 (0)
 -->
<!-- Title: RenderGraph Pages: 1 -->
<svg width="10166pt" height="632pt"
 viewBox="0.00 0.00 10166.00 631.93" xmlns="http://www.w3.org/2000/svg" xmlns:xlink="http://www.w3.org/1999/xlink">
<g id="graph0" class="graph" transform="scale(1 1) rotate(0) translate(4 627.93)">
<title>RenderGraph</title>
<polygon fill="#0d1117" stroke="transparent" points="-4,4 -4,-627.93 10162,-627.93 10162,4 -4,4"/>
<g id="clust1" class="cluster">
<title>cluster_Core2d</title>
<path fill="#343a42" stroke="#343a42" d="M41,-41.93C41,-41.93 4375,-41.93 4375,-41.93 4381,-41.93 4387,-47.93 4387,-53.93 4387,-53.93 4387,-261.93 4387,-261.93 4387,-267.93 4381,-273.93 4375,-273.93 4375,-273.93 41,-273.93 41,-273.93 35,-273.93 29,-267.93 29,-261.93 29,-261.93 29,-53.93 29,-53.93 29,-47.93 35,-41.93 41,-41.93"/>
<text text-anchor="middle" x="2208" y="-258.73" font-family="Times,serif" font-size="14.00" fill="white">Core2d</text>
</g>
<g id="clust2" class="cluster">
<title>cluster_Core2d_SubGraphUi</title>
<path fill="#6f90ad" stroke="#6f90ad" d="M111,-161.93C111,-161.93 192,-161.93 192,-161.93 198,-161.93 204,-167.93 204,-173.93 204,-173.93 204,-230.93 204,-230.93 204,-236.93 198,-242.93 192,-242.93 192,-242.93 111,-242.93 111,-242.93 105,-242.93 99,-236.93 99,-230.93 99,-230.93 99,-173.93 99,-173.93 99,-167.93 105,-161.93 111,-161.93"/>
<text text-anchor="middle" x="151.5" y="-227.73" font-family="Times,serif" font-size="14.00">SubGraphUi</text>
</g>
<g id="clust3" class="cluster">
<title>cluster_Core3d</title>
<path fill="#343a42" stroke="#343a42" d="M20,-281.93C20,-281.93 10138,-281.93 10138,-281.93 10144,-281.93 10150,-287.93 10150,-293.93 10150,-293.93 10150,-561.93 10150,-561.93 10150,-567.93 10144,-573.93 10138,-573.93 10138,-573.93 20,-573.93 20,-573.93 14,-573.93 8,-567.93 8,-561.93 8,-561.93 8,-293.93 8,-293.93 8,-287.93 14,-281.93 20,-281.93"/>
<text text-anchor="middle" x="5079" y="-558.73" font-family="Times,serif" font-size="14.00" fill="white">Core3d</text>
</g>
<g id="clust4" class="cluster">
<title>cluster_Core3d_SubGraphUi</title>
<path fill="#6f90ad" stroke="#6f90ad" d="M111,-461.93C111,-461.93 192,-461.93 192,-461.93 198,-461.93 204,-467.93 204,-473.93 204,-473.93 204,-530.93 204,-530.93 204,-536.93 198,-542.93 192,-542.93 192,-542.93 111,-542.93 111,-542.93 105,-542.93 99,-536.93 99,-530.93 99,-530.93 99,-473.93 99,-473.93 99,-467.93 105,-461.93 111,-461.93"/>
<text text-anchor="middle" x="151.5" y="-527.73" font-family="Times,serif" font-size="14.00">SubGraphUi</text>
</g>
<!-- _Core2d_SubGraphUi__Core2d_SubGraphUiUiPass -->
<g id="node1" class="node">
<title>_Core2d_SubGraphUi__Core2d_SubGraphUiUiPass</title>
<text text-anchor="start" x="128" y="-192.73" font-family="Helvetica,sans-Serif" font-size="14.00" fill="white">UiPass</text>
<text text-anchor="start" x="122" y="-181.93" font-family="Helvetica,sans-Serif" font-size="10.00" fill="red">UiPassNode</text>
<path fill="none" stroke="white" d="M128.33,-173.93C128.33,-173.93 173.67,-173.93 173.67,-173.93 179.33,-173.93 185,-179.6 185,-185.27 185,-185.27 185,-196.6 185,-196.6 185,-202.27 179.33,-207.93 173.67,-207.93 173.67,-207.93 128.33,-207.93 128.33,-207.93 122.67,-207.93 117,-202.27 117,-196.6 117,-196.6 117,-185.27 117,-185.27 117,-179.6 122.67,-173.93 128.33,-173.93"/>
</g>
<!-- _Core2d__Core2dContrastAdaptiveSharpening -->
<g id="node2" class="node">
<title>_Core2d__Core2dContrastAdaptiveSharpening</title>
<text text-anchor="start" x="3249.5" y="-132.73" font-family="Helvetica,sans-Serif" font-size="14.00" fill="white">ContrastAdaptiveSharpening</text>
<text text-anchor="start" x="3328" y="-121.93" font-family="Helvetica,sans-Serif" font-size="10.00" fill="red">CasNode</text>
<path fill="none" stroke="white" d="M3255.33,-113.93C3255.33,-113.93 3444.67,-113.93 3444.67,-113.93 3450.33,-113.93 3456,-119.6 3456,-125.27 3456,-125.27 3456,-136.6 3456,-136.6 3456,-142.27 3450.33,-147.93 3444.67,-147.93 3444.67,-147.93 3255.33,-147.93 3255.33,-147.93 3249.67,-147.93 3244,-142.27 3244,-136.6 3244,-136.6 3244,-125.27 3244,-125.27 3244,-119.6 3249.67,-113.93 3255.33,-113.93"/>
</g>
<!-- _Core2d__Core2dEndMainPassPostProcessing -->
<g id="node4" class="node">
<title>_Core2d__Core2dEndMainPassPostProcessing</title>
<text text-anchor="start" x="3569.5" y="-132.73" font-family="Helvetica,sans-Serif" font-size="14.00" fill="white">EndMainPassPostProcessing</text>
<text text-anchor="start" x="3638" y="-121.93" font-family="Helvetica,sans-Serif" font-size="10.00" fill="red">EmptyNode</text>
<path fill="none" stroke="white" d="M3575.33,-113.93C3575.33,-113.93 3758.67,-113.93 3758.67,-113.93 3764.33,-113.93 3770,-119.6 3770,-125.27 3770,-125.27 3770,-136.6 3770,-136.6 3770,-142.27 3764.33,-147.93 3758.67,-147.93 3758.67,-147.93 3575.33,-147.93 3575.33,-147.93 3569.67,-147.93 3564,-142.27 3564,-136.6 3564,-136.6 3564,-125.27 3564,-125.27 3564,-119.6 3569.67,-113.93 3575.33,-113.93"/>
</g>
<!-- _Core2d__Core2dContrastAdaptiveSharpening&#45;&gt;_Core2d__Core2dEndMainPassPostProcessing -->
<g id="edge7" class="edge">
<title>_Core2d__Core2dContrastAdaptiveSharpening:e&#45;&gt;_Core2d__Core2dEndMainPassPostProcessing:w</title>
<path fill="none" stroke="white" d="M3454,-130.93C3500.18,-130.93 3514.23,-130.93 3555.77,-130.93"/>
<polygon fill="white" stroke="white" points="3556,-134.43 3566,-130.93 3556,-127.43 3556,-134.43"/>
</g>
<!-- _Core2d__Core2dEndMainPass -->
<g id="node3" class="node">
<title>_Core2d__Core2dEndMainPass</title>
<text text-anchor="start" x="1392.5" y="-149.73" font-family="Helvetica,sans-Serif" font-size="14.00" fill="white">EndMainPass</text>
<text text-anchor="start" x="1409" y="-138.93" font-family="Helvetica,sans-Serif" font-size="10.00" fill="red">EmptyNode</text>
<path fill="none" stroke="white" d="M1398.33,-130.93C1398.33,-130.93 1477.67,-130.93 1477.67,-130.93 1483.33,-130.93 1489,-136.6 1489,-142.27 1489,-142.27 1489,-153.6 1489,-153.6 1489,-159.27 1483.33,-164.93 1477.67,-164.93 1477.67,-164.93 1398.33,-164.93 1398.33,-164.93 1392.67,-164.93 1387,-159.27 1387,-153.6 1387,-153.6 1387,-142.27 1387,-142.27 1387,-136.6 1392.67,-130.93 1398.33,-130.93"/>
</g>
<!-- _Core2d__Core2dStartMainPassPostProcessing -->
<g id="node6" class="node">
<title>_Core2d__Core2dStartMainPassPostProcessing</title>
<text text-anchor="start" x="1671" y="-149.73" font-family="Helvetica,sans-Serif" font-size="14.00" fill="white">StartMainPassPostProcessing</text>
<text text-anchor="start" x="1743" y="-138.93" font-family="Helvetica,sans-Serif" font-size="10.00" fill="red">EmptyNode</text>
<path fill="none" stroke="white" d="M1677.33,-130.93C1677.33,-130.93 1866.67,-130.93 1866.67,-130.93 1872.33,-130.93 1878,-136.6 1878,-142.27 1878,-142.27 1878,-153.6 1878,-153.6 1878,-159.27 1872.33,-164.93 1866.67,-164.93 1866.67,-164.93 1677.33,-164.93 1677.33,-164.93 1671.67,-164.93 1666,-159.27 1666,-153.6 1666,-153.6 1666,-142.27 1666,-142.27 1666,-136.6 1671.67,-130.93 1677.33,-130.93"/>
</g>
<!-- _Core2d__Core2dEndMainPass&#45;&gt;_Core2d__Core2dStartMainPassPostProcessing -->
<g id="edge10" class="edge">
<title>_Core2d__Core2dEndMainPass:e&#45;&gt;_Core2d__Core2dStartMainPassPostProcessing:w</title>
<path fill="none" stroke="white" d="M1487,-147.93C1563.99,-147.93 1585.72,-147.93 1657.95,-147.93"/>
<polygon fill="white" stroke="white" points="1658,-151.43 1668,-147.93 1658,-144.43 1658,-151.43"/>
</g>
<!-- _Core2d__Core2dUiPass -->
<g id="node17" class="node">
<title>_Core2d__Core2dUiPass</title>
<text text-anchor="start" x="3948" y="-172.73" font-family="Helvetica,sans-Serif" font-size="14.00" fill="white">UiPass</text>
<text text-anchor="start" x="3896.5" y="-161.93" font-family="Helvetica,sans-Serif" font-size="10.00" fill="red">RunUiSubgraphOnUiViewNode</text>
<path fill="none" stroke="white" d="M3902.33,-153.93C3902.33,-153.93 4039.67,-153.93 4039.67,-153.93 4045.33,-153.93 4051,-159.6 4051,-165.27 4051,-165.27 4051,-176.6 4051,-176.6 4051,-182.27 4045.33,-187.93 4039.67,-187.93 4039.67,-187.93 3902.33,-187.93 3902.33,-187.93 3896.67,-187.93 3891,-182.27 3891,-176.6 3891,-176.6 3891,-165.27 3891,-165.27 3891,-159.6 3896.67,-153.93 3902.33,-153.93"/>
</g>
<!-- _Core2d__Core2dEndMainPass&#45;&gt;_Core2d__Core2dUiPass -->
<g id="edge22" class="edge">
<title>_Core2d__Core2dEndMainPass:e&#45;&gt;_Core2d__Core2dUiPass:w</title>
<path fill="none" stroke="white" d="M1487,-147.93C1564.16,-147.93 1581.48,-168.01 1658,-177.93 1830.95,-200.36 1874.6,-210.93 2049,-210.93 2049,-210.93 2049,-210.93 3351,-210.93 3589.12,-210.93 3649.75,-172.06 3882.85,-170.96"/>
<polygon fill="white" stroke="white" points="3883.01,-174.46 3893,-170.93 3882.99,-167.46 3883.01,-174.46"/>
</g>
<!-- _Core2d__Core2dUpscaling -->
<g id="node13" class="node">
<title>_Core2d__Core2dUpscaling</title>
<text text-anchor="start" x="4243.5" y="-152.73" font-family="Helvetica,sans-Serif" font-size="14.00" fill="white">Upscaling</text>
<text text-anchor="start" x="4190.5" y="-141.93" font-family="Helvetica,sans-Serif" font-size="10.00" fill="red">ViewNodeRunner&lt;UpscalingNode&gt;</text>
<path fill="none" stroke="white" d="M4196.33,-133.93C4196.33,-133.93 4359.67,-133.93 4359.67,-133.93 4365.33,-133.93 4371,-139.6 4371,-145.27 4371,-145.27 4371,-156.6 4371,-156.6 4371,-162.27 4365.33,-167.93 4359.67,-167.93 4359.67,-167.93 4196.33,-167.93 4196.33,-167.93 4190.67,-167.93 4185,-162.27 4185,-156.6 4185,-156.6 4185,-145.27 4185,-145.27 4185,-139.6 4190.67,-133.93 4196.33,-133.93"/>
</g>
<!-- _Core2d__Core2dEndMainPassPostProcessing&#45;&gt;_Core2d__Core2dUpscaling -->
<g id="edge18" class="edge">
<title>_Core2d__Core2dEndMainPassPostProcessing:e&#45;&gt;_Core2d__Core2dUpscaling:w</title>
<path fill="none" stroke="white" d="M3768,-130.93C3912.07,-130.93 3948.26,-131.16 4092,-140.93 4130.72,-143.56 4142.56,-149.74 4176.73,-150.78"/>
<polygon fill="white" stroke="white" points="4176.95,-154.29 4187,-150.93 4177.05,-147.29 4176.95,-154.29"/>
</g>
<!-- _Core2d__Core2dEndMainPassPostProcessing&#45;&gt;_Core2d__Core2dUiPass -->
<g id="edge23" class="edge">
<title>_Core2d__Core2dEndMainPassPostProcessing:e&#45;&gt;_Core2d__Core2dUiPass:w</title>
<path fill="none" stroke="white" d="M3768,-130.93C3822.8,-130.93 3833.48,-166.24 3882.93,-170.51"/>
<polygon fill="white" stroke="white" points="3882.86,-174.01 3893,-170.93 3883.16,-167.02 3882.86,-174.01"/>
</g>
<!-- _Core2d__Core2dStartMainPass -->
<g id="node5" class="node">
<title>_Core2d__Core2dStartMainPass</title>
<text text-anchor="start" x="392" y="-132.73" font-family="Helvetica,sans-Serif" font-size="14.00" fill="white">StartMainPass</text>
<text text-anchor="start" x="412" y="-121.93" font-family="Helvetica,sans-Serif" font-size="10.00" fill="red">EmptyNode</text>
<path fill="none" stroke="white" d="M398.33,-113.93C398.33,-113.93 483.67,-113.93 483.67,-113.93 489.33,-113.93 495,-119.6 495,-125.27 495,-125.27 495,-136.6 495,-136.6 495,-142.27 489.33,-147.93 483.67,-147.93 483.67,-147.93 398.33,-147.93 398.33,-147.93 392.67,-147.93 387,-142.27 387,-136.6 387,-136.6 387,-125.27 387,-125.27 387,-119.6 392.67,-113.93 398.33,-113.93"/>
</g>
<!-- _Core2d__Core2dMainOpaquePass -->
<g id="node10" class="node">
<title>_Core2d__Core2dMainOpaquePass</title>
<text text-anchor="start" x="677.5" y="-142.73" font-family="Helvetica,sans-Serif" font-size="14.00" fill="white">MainOpaquePass</text>
<text text-anchor="start" x="626" y="-131.93" font-family="Helvetica,sans-Serif" font-size="10.00" fill="red">ViewNodeRunner&lt;MainOpaquePass2dNode&gt;</text>
<path fill="none" stroke="white" d="M632.33,-123.93C632.33,-123.93 841.67,-123.93 841.67,-123.93 847.33,-123.93 853,-129.6 853,-135.27 853,-135.27 853,-146.6 853,-146.6 853,-152.27 847.33,-157.93 841.67,-157.93 841.67,-157.93 632.33,-157.93 632.33,-157.93 626.67,-157.93 621,-152.27 621,-146.6 621,-146.6 621,-135.27 621,-135.27 621,-129.6 626.67,-123.93 632.33,-123.93"/>
</g>
<!-- _Core2d__Core2dStartMainPass&#45;&gt;_Core2d__Core2dMainOpaquePass -->
<g id="edge13" class="edge">
<title>_Core2d__Core2dStartMainPass:e&#45;&gt;_Core2d__Core2dMainOpaquePass:w</title>
<path fill="none" stroke="white" d="M493,-130.93C547.44,-130.93 563.18,-139.76 612.94,-140.83"/>
<polygon fill="white" stroke="white" points="612.96,-144.33 623,-140.93 613.04,-137.33 612.96,-144.33"/>
</g>
<!-- _Core2d__Core2dTonemapping -->
<g id="node12" class="node">
<title>_Core2d__Core2dTonemapping</title>
<text text-anchor="start" x="2624" y="-130.73" font-family="Helvetica,sans-Serif" font-size="14.00" fill="white">Tonemapping</text>
<text text-anchor="start" x="2575" y="-119.93" font-family="Helvetica,sans-Serif" font-size="10.00" fill="red">ViewNodeRunner&lt;TonemappingNode&gt;</text>
<path fill="none" stroke="white" d="M2581.33,-111.93C2581.33,-111.93 2760.67,-111.93 2760.67,-111.93 2766.33,-111.93 2772,-117.6 2772,-123.27 2772,-123.27 2772,-134.6 2772,-134.6 2772,-140.27 2766.33,-145.93 2760.67,-145.93 2760.67,-145.93 2581.33,-145.93 2581.33,-145.93 2575.67,-145.93 2570,-140.27 2570,-134.6 2570,-134.6 2570,-123.27 2570,-123.27 2570,-117.6 2575.67,-111.93 2581.33,-111.93"/>
</g>
<!-- _Core2d__Core2dStartMainPassPostProcessing&#45;&gt;_Core2d__Core2dTonemapping -->
<g id="edge15" class="edge">
<title>_Core2d__Core2dStartMainPassPostProcessing:e&#45;&gt;_Core2d__Core2dTonemapping:w</title>
<path fill="none" stroke="white" d="M1876,-147.93C2181.97,-147.93 2260.79,-129.36 2561.66,-128.94"/>
<polygon fill="white" stroke="white" points="2562,-132.44 2572,-128.93 2562,-125.44 2562,-132.44"/>
</g>
<!-- _Core2d__Core2dBloom -->
<g id="node14" class="node">
<title>_Core2d__Core2dBloom</title>
<text text-anchor="start" x="2028" y="-110.73" font-family="Helvetica,sans-Serif" font-size="14.00" fill="white">Bloom</text>
<text text-anchor="start" x="1971" y="-99.93" font-family="Helvetica,sans-Serif" font-size="10.00" fill="red">ViewNodeRunner&lt;BloomNode&gt;</text>
<path fill="none" stroke="white" d="M1977.33,-91.93C1977.33,-91.93 2122.67,-91.93 2122.67,-91.93 2128.33,-91.93 2134,-97.6 2134,-103.27 2134,-103.27 2134,-114.6 2134,-114.6 2134,-120.27 2128.33,-125.93 2122.67,-125.93 2122.67,-125.93 1977.33,-125.93 1977.33,-125.93 1971.67,-125.93 1966,-120.27 1966,-114.6 1966,-114.6 1966,-103.27 1966,-103.27 1966,-97.6 1971.67,-91.93 1977.33,-91.93"/>
</g>
<!-- _Core2d__Core2dStartMainPassPostProcessing&#45;&gt;_Core2d__Core2dBloom -->
<g id="edge20" class="edge">
<title>_Core2d__Core2dStartMainPassPostProcessing:e&#45;&gt;_Core2d__Core2dBloom:w</title>
<path fill="none" stroke="white" d="M1876,-147.93C1916.77,-147.93 1922.79,-115.07 1957.86,-109.68"/>
<polygon fill="white" stroke="white" points="1958.28,-113.15 1968,-108.93 1957.77,-106.17 1958.28,-113.15"/>
</g>
<!-- _Core2d__Core2dPixelArtRendererLabel -->
<g id="node7" class="node">
<title>_Core2d__Core2dPixelArtRendererLabel</title>
<text text-anchor="start" x="74.5" y="-132.73" font-family="Helvetica,sans-Serif" font-size="14.00" fill="white">PixelArtRendererLabel</text>
<text text-anchor="start" x="61.5" y="-121.93" font-family="Helvetica,sans-Serif" font-size="10.00" fill="red">ViewNodeRunner&lt;RaytracingNode&gt;</text>
<path fill="none" stroke="white" d="M67.33,-113.93C67.33,-113.93 234.67,-113.93 234.67,-113.93 240.33,-113.93 246,-119.6 246,-125.27 246,-125.27 246,-136.6 246,-136.6 246,-142.27 240.33,-147.93 234.67,-147.93 234.67,-147.93 67.33,-147.93 67.33,-147.93 61.67,-147.93 56,-142.27 56,-136.6 56,-136.6 56,-125.27 56,-125.27 56,-119.6 61.67,-113.93 67.33,-113.93"/>
</g>
<!-- _Core2d__Core2dPixelArtRendererLabel&#45;&gt;_Core2d__Core2dStartMainPass -->
<g id="edge9" class="edge">
<title>_Core2d__Core2dPixelArtRendererLabel:e&#45;&gt;_Core2d__Core2dStartMainPass:w</title>
<path fill="none" stroke="white" d="M244,-130.93C304.92,-130.93 322.65,-130.93 378.84,-130.93"/>
<polygon fill="white" stroke="white" points="379,-134.43 389,-130.93 379,-127.43 379,-134.43"/>
</g>
<!-- _Core2d__Core2dFxaa -->
<g id="node8" class="node">
<title>_Core2d__Core2dFxaa</title>
<text text-anchor="start" x="2981" y="-92.73" font-family="Helvetica,sans-Serif" font-size="14.00" fill="white">Fxaa</text>
<text text-anchor="start" x="2922.5" y="-81.93" font-family="Helvetica,sans-Serif" font-size="10.00" fill="red">ViewNodeRunner&lt;FxaaNode&gt;</text>
<path fill="none" stroke="white" d="M2928.33,-73.93C2928.33,-73.93 3067.67,-73.93 3067.67,-73.93 3073.33,-73.93 3079,-79.6 3079,-85.27 3079,-85.27 3079,-96.6 3079,-96.6 3079,-102.27 3073.33,-107.93 3067.67,-107.93 3067.67,-107.93 2928.33,-107.93 2928.33,-107.93 2922.67,-107.93 2917,-102.27 2917,-96.6 2917,-96.6 2917,-85.27 2917,-85.27 2917,-79.6 2922.67,-73.93 2928.33,-73.93"/>
</g>
<!-- _Core2d__Core2dFxaa&#45;&gt;_Core2d__Core2dContrastAdaptiveSharpening -->
<g id="edge2" class="edge">
<title>_Core2d__Core2dFxaa:e&#45;&gt;_Core2d__Core2dContrastAdaptiveSharpening:w</title>
<path fill="none" stroke="white" d="M3077,-90.93C3150.72,-90.93 3167.37,-127.42 3235.97,-130.7"/>
<polygon fill="white" stroke="white" points="3235.92,-134.2 3246,-130.93 3236.08,-127.2 3235.92,-134.2"/>
</g>
<!-- _Core2d__Core2dFxaa&#45;&gt;_Core2d__Core2dEndMainPassPostProcessing -->
<g id="edge5" class="edge">
<title>_Core2d__Core2dFxaa:e&#45;&gt;_Core2d__Core2dEndMainPassPostProcessing:w</title>
<path fill="none" stroke="white" d="M3077,-90.93C3257.94,-90.93 3306.23,-67.18 3484,-100.93 3518.55,-107.49 3525.95,-126.8 3555.92,-130.36"/>
<polygon fill="white" stroke="white" points="3555.82,-133.86 3566,-130.93 3556.21,-126.87 3555.82,-133.86"/>
</g>
<!-- _Core2d__Core2dSmaa -->
<g id="node9" class="node">
<title>_Core2d__Core2dSmaa</title>
<text text-anchor="start" x="2978" y="-172.73" font-family="Helvetica,sans-Serif" font-size="14.00" fill="white">Smaa</text>
<text text-anchor="start" x="2921" y="-161.93" font-family="Helvetica,sans-Serif" font-size="10.00" fill="red">ViewNodeRunner&lt;SmaaNode&gt;</text>
<path fill="none" stroke="white" d="M2927.33,-153.93C2927.33,-153.93 3068.67,-153.93 3068.67,-153.93 3074.33,-153.93 3080,-159.6 3080,-165.27 3080,-165.27 3080,-176.6 3080,-176.6 3080,-182.27 3074.33,-187.93 3068.67,-187.93 3068.67,-187.93 2927.33,-187.93 2927.33,-187.93 2921.67,-187.93 2916,-182.27 2916,-176.6 2916,-176.6 2916,-165.27 2916,-165.27 2916,-159.6 2921.67,-153.93 2927.33,-153.93"/>
</g>
<!-- _Core2d__Core2dSmaa&#45;&gt;_Core2d__Core2dEndMainPassPostProcessing -->
<g id="edge6" class="edge">
<title>_Core2d__Core2dSmaa:e&#45;&gt;_Core2d__Core2dEndMainPassPostProcessing:w</title>
<path fill="none" stroke="white" d="M3078,-170.93C3258.5,-170.93 3306.67,-194.61 3484,-160.93 3518.55,-154.37 3525.95,-135.06 3555.92,-131.5"/>
<polygon fill="white" stroke="white" points="3556.21,-134.99 3566,-130.93 3555.82,-128 3556.21,-134.99"/>
</g>
<!-- _Core2d__Core2dMainTransparentPass -->
<g id="node11" class="node">
<title>_Core2d__Core2dMainTransparentPass</title>
<text text-anchor="start" x="1010.5" y="-147.73" font-family="Helvetica,sans-Serif" font-size="14.00" fill="white">MainTransparentPass</text>
<text text-anchor="start" x="963.5" y="-136.93" font-family="Helvetica,sans-Serif" font-size="10.00" fill="red">ViewNodeRunner&lt;MainTransparentPass2dNode&gt;</text>
<path fill="none" stroke="white" d="M969.33,-128.93C969.33,-128.93 1198.67,-128.93 1198.67,-128.93 1204.33,-128.93 1210,-134.6 1210,-140.27 1210,-140.27 1210,-151.6 1210,-151.6 1210,-157.27 1204.33,-162.93 1198.67,-162.93 1198.67,-162.93 969.33,-162.93 969.33,-162.93 963.67,-162.93 958,-157.27 958,-151.6 958,-151.6 958,-140.27 958,-140.27 958,-134.6 963.67,-128.93 969.33,-128.93"/>
</g>
<!-- _Core2d__Core2dMainOpaquePass&#45;&gt;_Core2d__Core2dMainTransparentPass -->
<g id="edge14" class="edge">
<title>_Core2d__Core2dMainOpaquePass:e&#45;&gt;_Core2d__Core2dMainTransparentPass:w</title>
<path fill="none" stroke="white" d="M851,-140.93C895.9,-140.93 909.52,-145.22 949.78,-145.85"/>
<polygon fill="white" stroke="white" points="949.97,-149.36 960,-145.93 950.03,-142.36 949.97,-149.36"/>
</g>
<!-- _Core2d__Core2dMainTransparentPass&#45;&gt;_Core2d__Core2dEndMainPass -->
<g id="edge3" class="edge">
<title>_Core2d__Core2dMainTransparentPass:e&#45;&gt;_Core2d__Core2dEndMainPass:w</title>
<path fill="none" stroke="white" d="M1208,-145.93C1284.99,-145.93 1306.71,-147.76 1378.95,-147.92"/>
<polygon fill="white" stroke="white" points="1379,-151.42 1389,-147.93 1379,-144.42 1379,-151.42"/>
</g>
<!-- _Core2d__Core2dTonemapping&#45;&gt;_Core2d__Core2dContrastAdaptiveSharpening -->
<g id="edge1" class="edge">
<title>_Core2d__Core2dTonemapping:e&#45;&gt;_Core2d__Core2dContrastAdaptiveSharpening:w</title>
<path fill="none" stroke="white" d="M2770,-128.93C2978.15,-128.93 3032.7,-130.87 3235.9,-130.93"/>
<polygon fill="white" stroke="white" points="3236,-134.43 3246,-130.93 3236,-127.43 3236,-134.43"/>
</g>
<!-- _Core2d__Core2dTonemapping&#45;&gt;_Core2d__Core2dEndMainPassPostProcessing -->
<g id="edge4" class="edge">
<title>_Core2d__Core2dTonemapping:e&#45;&gt;_Core2d__Core2dEndMainPassPostProcessing:w</title>
<path fill="none" stroke="white" d="M2770,-128.93C2817.35,-128.93 2807.46,-77 2852,-60.93 3116.32,34.41 3216.56,8.29 3484,-77.93 3521.75,-90.1 3522.74,-124.31 3555.78,-130.1"/>
<polygon fill="white" stroke="white" points="3555.75,-133.6 3566,-130.93 3556.32,-126.63 3555.75,-133.6"/>
</g>
<!-- _Core2d__Core2dTonemapping&#45;&gt;_Core2d__Core2dFxaa -->
<g id="edge11" class="edge">
<title>_Core2d__Core2dTonemapping:e&#45;&gt;_Core2d__Core2dFxaa:w</title>
<path fill="none" stroke="white" d="M2770,-128.93C2834.74,-128.93 2849.2,-94.83 2908.64,-91.24"/>
<polygon fill="white" stroke="white" points="2909.11,-94.73 2919,-90.93 2908.9,-87.73 2909.11,-94.73"/>
</g>
<!-- _Core2d__Core2dTonemapping&#45;&gt;_Core2d__Core2dSmaa -->
<g id="edge12" class="edge">
<title>_Core2d__Core2dTonemapping:e&#45;&gt;_Core2d__Core2dSmaa:w</title>
<path fill="none" stroke="white" d="M2770,-128.93C2834.77,-128.93 2848.28,-166.62 2907.64,-170.59"/>
<polygon fill="white" stroke="white" points="2907.89,-174.1 2918,-170.93 2908.12,-167.11 2907.89,-174.1"/>
</g>
<!-- _Core2d__Core2dBloom&#45;&gt;_Core2d__Core2dTonemapping -->
<g id="edge16" class="edge">
<title>_Core2d__Core2dBloom:e&#45;&gt;_Core2d__Core2dTonemapping:w</title>
<path fill="none" stroke="white" d="M2132,-108.93C2168.71,-108.93 2177.39,-116.19 2214,-118.93 2369.32,-130.55 2411.05,-129.01 2561.9,-128.93"/>
<polygon fill="white" stroke="white" points="2562,-132.43 2572,-128.93 2562,-125.43 2562,-132.43"/>
</g>
<!-- _Core2d__Core2dPostProcessing -->
<g id="node15" class="node">
<title>_Core2d__Core2dPostProcessing</title>
<text text-anchor="start" x="2300" y="-90.73" font-family="Helvetica,sans-Serif" font-size="14.00" fill="white">PostProcessing</text>
<text text-anchor="start" x="2252" y="-79.93" font-family="Helvetica,sans-Serif" font-size="10.00" fill="red">ViewNodeRunner&lt;PostProcessingNode&gt;</text>
<path fill="none" stroke="white" d="M2258.33,-71.93C2258.33,-71.93 2445.67,-71.93 2445.67,-71.93 2451.33,-71.93 2457,-77.6 2457,-83.27 2457,-83.27 2457,-94.6 2457,-94.6 2457,-100.27 2451.33,-105.93 2445.67,-105.93 2445.67,-105.93 2258.33,-105.93 2258.33,-105.93 2252.67,-105.93 2247,-100.27 2247,-94.6 2247,-94.6 2247,-83.27 2247,-83.27 2247,-77.6 2252.67,-71.93 2258.33,-71.93"/>
</g>
<!-- _Core2d__Core2dBloom&#45;&gt;_Core2d__Core2dPostProcessing -->
<g id="edge21" class="edge">
<title>_Core2d__Core2dBloom:e&#45;&gt;_Core2d__Core2dPostProcessing:w</title>
<path fill="none" stroke="white" d="M2132,-108.93C2181.15,-108.93 2194.48,-91.57 2238.73,-89.2"/>
<polygon fill="white" stroke="white" points="2239.09,-92.69 2249,-88.93 2238.91,-85.69 2239.09,-92.69"/>
</g>
<!-- _Core2d__Core2dPostProcessing&#45;&gt;_Core2d__Core2dTonemapping -->
<g id="edge17" class="edge">
<title>_Core2d__Core2dPostProcessing:e&#45;&gt;_Core2d__Core2dTonemapping:w</title>
<path fill="none" stroke="white" d="M2455,-88.93C2506.41,-88.93 2515.93,-123.94 2561.94,-128.46"/>
<polygon fill="white" stroke="white" points="2561.85,-131.95 2572,-128.93 2562.18,-124.96 2561.85,-131.95"/>
</g>
<!-- _Core2d__Core2dMsaaWriteback -->
<g id="node16" class="node">
<title>_Core2d__Core2dMsaaWriteback</title>
<text text-anchor="start" x="98" y="-72.73" font-family="Helvetica,sans-Serif" font-size="14.00" fill="white">MsaaWriteback</text>
<text text-anchor="start" x="50" y="-61.93" font-family="Helvetica,sans-Serif" font-size="10.00" fill="red">ViewNodeRunner&lt;MsaaWritebackNode&gt;</text>
<path fill="none" stroke="white" d="M56.33,-53.93C56.33,-53.93 245.67,-53.93 245.67,-53.93 251.33,-53.93 257,-59.6 257,-65.27 257,-65.27 257,-76.6 257,-76.6 257,-82.27 251.33,-87.93 245.67,-87.93 245.67,-87.93 56.33,-87.93 56.33,-87.93 50.67,-87.93 45,-82.27 45,-76.6 45,-76.6 45,-65.27 45,-65.27 45,-59.6 50.67,-53.93 56.33,-53.93"/>
</g>
<!-- _Core2d__Core2dMsaaWriteback&#45;&gt;_Core2d__Core2dStartMainPass -->
<g id="edge8" class="edge">
<title>_Core2d__Core2dMsaaWriteback:e&#45;&gt;_Core2d__Core2dStartMainPass:w</title>
<path fill="none" stroke="white" d="M255,-70.93C316.68,-70.93 323.18,-124.55 378.83,-130.41"/>
<polygon fill="white" stroke="white" points="378.83,-133.92 389,-130.93 379.19,-126.93 378.83,-133.92"/>
</g>
<!-- _Core2d__Core2dUiPass&#45;&gt;_Core2d__Core2dUpscaling -->
<g id="edge19" class="edge">
<title>_Core2d__Core2dUiPass:e&#45;&gt;_Core2d__Core2dUpscaling:w</title>
<path fill="none" stroke="white" d="M4049,-170.93C4107.46,-170.93 4123.28,-153.13 4176.91,-151.12"/>
<polygon fill="white" stroke="white" points="4177.07,-154.62 4187,-150.93 4176.94,-147.62 4177.07,-154.62"/>
</g>
<!-- _Core3d_SubGraphUi__Core3d_SubGraphUiUiPass -->
<g id="node18" class="node">
<title>_Core3d_SubGraphUi__Core3d_SubGraphUiUiPass</title>
<text text-anchor="start" x="128" y="-492.73" font-family="Helvetica,sans-Serif" font-size="14.00" fill="white">UiPass</text>
<text text-anchor="start" x="122" y="-481.93" font-family="Helvetica,sans-Serif" font-size="10.00" fill="red">UiPassNode</text>
<path fill="none" stroke="white" d="M128.33,-473.93C128.33,-473.93 173.67,-473.93 173.67,-473.93 179.33,-473.93 185,-479.6 185,-485.27 185,-485.27 185,-496.6 185,-496.6 185,-502.27 179.33,-507.93 173.67,-507.93 173.67,-507.93 128.33,-507.93 128.33,-507.93 122.67,-507.93 117,-502.27 117,-496.6 117,-496.6 117,-485.27 117,-485.27 117,-479.6 122.67,-473.93 128.33,-473.93"/>
</g>
<!-- _Core3d__Core3dContrastAdaptiveSharpening -->
<g id="node19" class="node">
<title>_Core3d__Core3dContrastAdaptiveSharpening</title>
<text text-anchor="start" x="9111.5" y="-374.73" font-family="Helvetica,sans-Serif" font-size="14.00" fill="white">ContrastAdaptiveSharpening</text>
<text text-anchor="start" x="9190" y="-363.93" font-family="Helvetica,sans-Serif" font-size="10.00" fill="red">CasNode</text>
<path fill="none" stroke="white" d="M9117.33,-355.93C9117.33,-355.93 9306.67,-355.93 9306.67,-355.93 9312.33,-355.93 9318,-361.6 9318,-367.27 9318,-367.27 9318,-378.6 9318,-378.6 9318,-384.27 9312.33,-389.93 9306.67,-389.93 9306.67,-389.93 9117.33,-389.93 9117.33,-389.93 9111.67,-389.93 9106,-384.27 9106,-378.6 9106,-378.6 9106,-367.27 9106,-367.27 9106,-361.6 9111.67,-355.93 9117.33,-355.93"/>
</g>
<!-- _Core3d__Core3dEndMainPassPostProcessing -->
<g id="node34" class="node">
<title>_Core3d__Core3dEndMainPassPostProcessing</title>
<text text-anchor="start" x="9411.5" y="-394.73" font-family="Helvetica,sans-Serif" font-size="14.00" fill="white">EndMainPassPostProcessing</text>
<text text-anchor="start" x="9480" y="-383.93" font-family="Helvetica,sans-Serif" font-size="10.00" fill="red">EmptyNode</text>
<path fill="none" stroke="white" d="M9417.33,-375.93C9417.33,-375.93 9600.67,-375.93 9600.67,-375.93 9606.33,-375.93 9612,-381.6 9612,-387.27 9612,-387.27 9612,-398.6 9612,-398.6 9612,-404.27 9606.33,-409.93 9600.67,-409.93 9600.67,-409.93 9417.33,-409.93 9417.33,-409.93 9411.67,-409.93 9406,-404.27 9406,-398.6 9406,-398.6 9406,-387.27 9406,-387.27 9406,-381.6 9411.67,-375.93 9417.33,-375.93"/>
</g>
<!-- _Core3d__Core3dContrastAdaptiveSharpening&#45;&gt;_Core3d__Core3dEndMainPassPostProcessing -->
<g id="edge46" class="edge">
<title>_Core3d__Core3dContrastAdaptiveSharpening:e&#45;&gt;_Core3d__Core3dEndMainPassPostProcessing:w</title>
<path fill="none" stroke="white" d="M9316,-372.93C9354.25,-372.93 9364.48,-389.64 9397.91,-392.51"/>
<polygon fill="white" stroke="white" points="9397.86,-396.02 9408,-392.93 9398.15,-389.02 9397.86,-396.02"/>
</g>
<!-- _Core3d__Core3dEarlyDownsampleDepth -->
<g id="node20" class="node">
<title>_Core3d__Core3dEarlyDownsampleDepth</title>
<text text-anchor="start" x="1688.5" y="-370.73" font-family="Helvetica,sans-Serif" font-size="14.00" fill="white">EarlyDownsampleDepth</text>
<text text-anchor="start" x="1712.5" y="-359.93" font-family="Helvetica,sans-Serif" font-size="10.00" fill="red">DownsampleDepthNode</text>
<path fill="none" stroke="white" d="M1694.33,-351.93C1694.33,-351.93 1849.67,-351.93 1849.67,-351.93 1855.33,-351.93 1861,-357.6 1861,-363.27 1861,-363.27 1861,-374.6 1861,-374.6 1861,-380.27 1855.33,-385.93 1849.67,-385.93 1849.67,-385.93 1694.33,-385.93 1694.33,-385.93 1688.67,-385.93 1683,-380.27 1683,-374.6 1683,-374.6 1683,-363.27 1683,-363.27 1683,-357.6 1688.67,-351.93 1694.33,-351.93"/>
</g>
<!-- _Core3d__Core3dLateGpuPreprocess -->
<g id="node28" class="node">
<title>_Core3d__Core3dLateGpuPreprocess</title>
<text text-anchor="start" x="1983.5" y="-360.73" font-family="Helvetica,sans-Serif" font-size="14.00" fill="white">LateGpuPreprocess</text>
<text text-anchor="start" x="1990" y="-349.93" font-family="Helvetica,sans-Serif" font-size="10.00" fill="red">LateGpuPreprocessNode</text>
<path fill="none" stroke="white" d="M1989.33,-341.93C1989.33,-341.93 2110.67,-341.93 2110.67,-341.93 2116.33,-341.93 2122,-347.6 2122,-353.27 2122,-353.27 2122,-364.6 2122,-364.6 2122,-370.27 2116.33,-375.93 2110.67,-375.93 2110.67,-375.93 1989.33,-375.93 1989.33,-375.93 1983.67,-375.93 1978,-370.27 1978,-364.6 1978,-364.6 1978,-353.27 1978,-353.27 1978,-347.6 1983.67,-341.93 1989.33,-341.93"/>
</g>
<!-- _Core3d__Core3dEarlyDownsampleDepth&#45;&gt;_Core3d__Core3dLateGpuPreprocess -->
<g id="edge33" class="edge">
<title>_Core3d__Core3dEarlyDownsampleDepth:e&#45;&gt;_Core3d__Core3dLateGpuPreprocess:w</title>
<path fill="none" stroke="white" d="M1859,-368.93C1909.38,-368.93 1924.12,-360.22 1969.77,-359.06"/>
<polygon fill="white" stroke="white" points="1970.04,-362.56 1980,-358.93 1969.96,-355.56 1970.04,-362.56"/>
</g>
<!-- _Core3d__Core3dLatePrepass -->
<g id="node49" class="node">
<title>_Core3d__Core3dLatePrepass</title>
<text text-anchor="start" x="2629" y="-400.73" font-family="Helvetica,sans-Serif" font-size="14.00" fill="white">LatePrepass</text>
<text text-anchor="start" x="2578" y="-389.93" font-family="Helvetica,sans-Serif" font-size="10.00" fill="red">ViewNodeRunner&lt;LatePrepassNode&gt;</text>
<path fill="none" stroke="white" d="M2584.33,-381.93C2584.33,-381.93 2757.67,-381.93 2757.67,-381.93 2763.33,-381.93 2769,-387.6 2769,-393.27 2769,-393.27 2769,-404.6 2769,-404.6 2769,-410.27 2763.33,-415.93 2757.67,-415.93 2757.67,-415.93 2584.33,-415.93 2584.33,-415.93 2578.67,-415.93 2573,-410.27 2573,-404.6 2573,-404.6 2573,-393.27 2573,-393.27 2573,-387.6 2578.67,-381.93 2584.33,-381.93"/>
</g>
<!-- _Core3d__Core3dEarlyDownsampleDepth&#45;&gt;_Core3d__Core3dLatePrepass -->
<g id="edge71" class="edge">
<title>_Core3d__Core3dEarlyDownsampleDepth:e&#45;&gt;_Core3d__Core3dLatePrepass:w</title>
<path fill="none" stroke="white" d="M1859,-368.93C1903.89,-368.93 1913.37,-384.1 1958,-388.93 2227.21,-418.06 2298.93,-399.42 2564.65,-398.94"/>
<polygon fill="white" stroke="white" points="2565,-402.44 2575,-398.93 2565,-395.44 2565,-402.44"/>
</g>
<!-- _Core3d__Core3dLateDownsampleDepth -->
<g id="node21" class="node">
<title>_Core3d__Core3dLateDownsampleDepth</title>
<text text-anchor="start" x="7144.5" y="-438.73" font-family="Helvetica,sans-Serif" font-size="14.00" fill="white">LateDownsampleDepth</text>
<text text-anchor="start" x="7165.5" y="-427.93" font-family="Helvetica,sans-Serif" font-size="10.00" fill="red">DownsampleDepthNode</text>
<path fill="none" stroke="white" d="M7150.33,-419.93C7150.33,-419.93 7299.67,-419.93 7299.67,-419.93 7305.33,-419.93 7311,-425.6 7311,-431.27 7311,-431.27 7311,-442.6 7311,-442.6 7311,-448.27 7305.33,-453.93 7299.67,-453.93 7299.67,-453.93 7150.33,-453.93 7150.33,-453.93 7144.67,-453.93 7139,-448.27 7139,-442.6 7139,-442.6 7139,-431.27 7139,-431.27 7139,-425.6 7144.67,-419.93 7150.33,-419.93"/>
</g>
<!-- _Core3d__Core3dLateDownsampleDepth&#45;&gt;_Core3d__Core3dEndMainPassPostProcessing -->
<g id="edge43" class="edge">
<title>_Core3d__Core3dLateDownsampleDepth:e&#45;&gt;_Core3d__Core3dEndMainPassPostProcessing:w</title>
<path fill="none" stroke="white" d="M7309,-436.93C7529.56,-436.93 7584.44,-452.93 7805,-452.93 7805,-452.93 7805,-452.93 8937,-452.93 9110.85,-452.93 9154.55,-440.72 9326,-411.93 9359.29,-406.34 9368.81,-395.37 9397.84,-393.28"/>
<polygon fill="white" stroke="white" points="9398.13,-396.77 9408,-392.93 9397.89,-389.78 9398.13,-396.77"/>
</g>
<!-- _Core3d__Core3dEnvironment -->
<g id="node22" class="node">
<title>_Core3d__Core3dEnvironment</title>
<text text-anchor="start" x="106.5" y="-432.73" font-family="Helvetica,sans-Serif" font-size="14.00" fill="white">Environment</text>
<text text-anchor="start" x="107" y="-421.93" font-family="Helvetica,sans-Serif" font-size="10.00" fill="red">EnvironmentNode</text>
<path fill="none" stroke="white" d="M112.33,-413.93C112.33,-413.93 189.67,-413.93 189.67,-413.93 195.33,-413.93 201,-419.6 201,-425.27 201,-425.27 201,-436.6 201,-436.6 201,-442.27 195.33,-447.93 189.67,-447.93 189.67,-447.93 112.33,-447.93 112.33,-447.93 106.67,-447.93 101,-442.27 101,-436.6 101,-436.6 101,-425.27 101,-425.27 101,-419.6 106.67,-413.93 112.33,-413.93"/>
</g>
<!-- _Core3d__Core3dDownsampling -->
<g id="node23" class="node">
<title>_Core3d__Core3dDownsampling</title>
<text text-anchor="start" x="3919.5" y="-503.73" font-family="Helvetica,sans-Serif" font-size="14.00" fill="white">Downsampling</text>
<text text-anchor="start" x="3921.5" y="-492.93" font-family="Helvetica,sans-Serif" font-size="10.00" fill="red">DownsamplingNode</text>
<path fill="none" stroke="white" d="M3925.33,-484.93C3925.33,-484.93 4016.67,-484.93 4016.67,-484.93 4022.33,-484.93 4028,-490.6 4028,-496.27 4028,-496.27 4028,-507.6 4028,-507.6 4028,-513.27 4022.33,-518.93 4016.67,-518.93 4016.67,-518.93 3925.33,-518.93 3925.33,-518.93 3919.67,-518.93 3914,-513.27 3914,-507.6 3914,-507.6 3914,-496.27 3914,-496.27 3914,-490.6 3919.67,-484.93 3925.33,-484.93"/>
</g>
<!-- _Core3d__Core3dFiltering -->
<g id="node24" class="node">
<title>_Core3d__Core3dFiltering</title>
<text text-anchor="start" x="4250" y="-478.73" font-family="Helvetica,sans-Serif" font-size="14.00" fill="white">Filtering</text>
<text text-anchor="start" x="4245" y="-467.93" font-family="Helvetica,sans-Serif" font-size="10.00" fill="red">FilteringNode</text>
<path fill="none" stroke="white" d="M4251.33,-459.93C4251.33,-459.93 4304.67,-459.93 4304.67,-459.93 4310.33,-459.93 4316,-465.6 4316,-471.27 4316,-471.27 4316,-482.6 4316,-482.6 4316,-488.27 4310.33,-493.93 4304.67,-493.93 4304.67,-493.93 4251.33,-493.93 4251.33,-493.93 4245.67,-493.93 4240,-488.27 4240,-482.6 4240,-482.6 4240,-471.27 4240,-471.27 4240,-465.6 4245.67,-459.93 4251.33,-459.93"/>
</g>
<!-- _Core3d__Core3dDownsampling&#45;&gt;_Core3d__Core3dFiltering -->
<g id="edge30" class="edge">
<title>_Core3d__Core3dDownsampling:e&#45;&gt;_Core3d__Core3dFiltering:w</title>
<path fill="none" stroke="white" d="M4026,-501.93C4119.15,-501.93 4143.62,-478.71 4231.81,-477.03"/>
<polygon fill="white" stroke="white" points="4232.03,-480.53 4242,-476.93 4231.97,-473.53 4232.03,-480.53"/>
</g>
<!-- _Core3d__Core3dStartMainPass -->
<g id="node36" class="node">
<title>_Core3d__Core3dStartMainPass</title>
<text text-anchor="start" x="4477" y="-392.73" font-family="Helvetica,sans-Serif" font-size="14.00" fill="white">StartMainPass</text>
<text text-anchor="start" x="4497" y="-381.93" font-family="Helvetica,sans-Serif" font-size="10.00" fill="red">EmptyNode</text>
<path fill="none" stroke="white" d="M4483.33,-373.93C4483.33,-373.93 4568.67,-373.93 4568.67,-373.93 4574.33,-373.93 4580,-379.6 4580,-385.27 4580,-385.27 4580,-396.6 4580,-396.6 4580,-402.27 4574.33,-407.93 4568.67,-407.93 4568.67,-407.93 4483.33,-407.93 4483.33,-407.93 4477.67,-407.93 4472,-402.27 4472,-396.6 4472,-396.6 4472,-385.27 4472,-385.27 4472,-379.6 4477.67,-373.93 4483.33,-373.93"/>
</g>
<!-- _Core3d__Core3dFiltering&#45;&gt;_Core3d__Core3dStartMainPass -->
<g id="edge52" class="edge">
<title>_Core3d__Core3dFiltering:e&#45;&gt;_Core3d__Core3dStartMainPass:w</title>
<path fill="none" stroke="white" d="M4314,-476.93C4391.11,-476.93 4393.23,-398.49 4463.6,-391.44"/>
<polygon fill="white" stroke="white" points="4464.18,-394.91 4474,-390.93 4463.84,-387.92 4464.18,-394.91"/>
</g>
<!-- _Core3d__Core3dClearIndirectParametersMetadata -->
<g id="node25" class="node">
<title>_Core3d__Core3dClearIndirectParametersMetadata</title>
<text text-anchor="start" x="35" y="-372.73" font-family="Helvetica,sans-Serif" font-size="14.00" fill="white">ClearIndirectParametersMetadata</text>
<text text-anchor="start" x="56" y="-361.93" font-family="Helvetica,sans-Serif" font-size="10.00" fill="red">ClearIndirectParametersMetadataNode</text>
<path fill="none" stroke="white" d="M41.33,-353.93C41.33,-353.93 260.67,-353.93 260.67,-353.93 266.33,-353.93 272,-359.6 272,-365.27 272,-365.27 272,-376.6 272,-376.6 272,-382.27 266.33,-387.93 260.67,-387.93 260.67,-387.93 41.33,-387.93 41.33,-387.93 35.67,-387.93 30,-382.27 30,-376.6 30,-376.6 30,-365.27 30,-365.27 30,-359.6 35.67,-353.93 41.33,-353.93"/>
</g>
<!-- _Core3d__Core3dEarlyGpuPreprocess -->
<g id="node26" class="node">
<title>_Core3d__Core3dEarlyGpuPreprocess</title>
<text text-anchor="start" x="371.5" y="-372.73" font-family="Helvetica,sans-Serif" font-size="14.00" fill="white">EarlyGpuPreprocess</text>
<text text-anchor="start" x="379" y="-361.93" font-family="Helvetica,sans-Serif" font-size="10.00" fill="red">EarlyGpuPreprocessNode</text>
<path fill="none" stroke="white" d="M377.33,-353.93C377.33,-353.93 504.67,-353.93 504.67,-353.93 510.33,-353.93 516,-359.6 516,-365.27 516,-365.27 516,-376.6 516,-376.6 516,-382.27 510.33,-387.93 504.67,-387.93 504.67,-387.93 377.33,-387.93 377.33,-387.93 371.67,-387.93 366,-382.27 366,-376.6 366,-376.6 366,-365.27 366,-365.27 366,-359.6 371.67,-353.93 377.33,-353.93"/>
</g>
<!-- _Core3d__Core3dClearIndirectParametersMetadata&#45;&gt;_Core3d__Core3dEarlyGpuPreprocess -->
<g id="edge31" class="edge">
<title>_Core3d__Core3dClearIndirectParametersMetadata:e&#45;&gt;_Core3d__Core3dEarlyGpuPreprocess:w</title>
<path fill="none" stroke="white" d="M270,-370.93C309.98,-370.93 322.44,-370.93 357.9,-370.93"/>
<polygon fill="white" stroke="white" points="358,-374.43 368,-370.93 358,-367.43 358,-374.43"/>
</g>
<!-- _Core3d__Core3dEarlyPrepassBuildIndirectParameters -->
<g id="node27" class="node">
<title>_Core3d__Core3dEarlyPrepassBuildIndirectParameters</title>
<text text-anchor="start" x="609" y="-372.73" font-family="Helvetica,sans-Serif" font-size="14.00" fill="white">EarlyPrepassBuildIndirectParameters</text>
<text text-anchor="start" x="634" y="-361.93" font-family="Helvetica,sans-Serif" font-size="10.00" fill="red">EarlyPrepassBuildIndirectParametersNode</text>
<path fill="none" stroke="white" d="M615.33,-353.93C615.33,-353.93 858.67,-353.93 858.67,-353.93 864.33,-353.93 870,-359.6 870,-365.27 870,-365.27 870,-376.6 870,-376.6 870,-382.27 864.33,-387.93 858.67,-387.93 858.67,-387.93 615.33,-387.93 615.33,-387.93 609.67,-387.93 604,-382.27 604,-376.6 604,-376.6 604,-365.27 604,-365.27 604,-359.6 609.67,-353.93 615.33,-353.93"/>
</g>
<!-- _Core3d__Core3dEarlyGpuPreprocess&#45;&gt;_Core3d__Core3dEarlyPrepassBuildIndirectParameters -->
<g id="edge32" class="edge">
<title>_Core3d__Core3dEarlyGpuPreprocess:e&#45;&gt;_Core3d__Core3dEarlyPrepassBuildIndirectParameters:w</title>
<path fill="none" stroke="white" d="M514,-370.93C551.22,-370.93 563.03,-370.93 595.68,-370.93"/>
<polygon fill="white" stroke="white" points="596,-374.43 606,-370.93 596,-367.43 596,-374.43"/>
</g>
<!-- _Core3d__Core3dEarlyShadowPass -->
<g id="node31" class="node">
<title>_Core3d__Core3dEarlyShadowPass</title>
<text text-anchor="start" x="1377.5" y="-332.73" font-family="Helvetica,sans-Serif" font-size="14.00" fill="white">EarlyShadowPass</text>
<text text-anchor="start" x="1382.5" y="-321.93" font-family="Helvetica,sans-Serif" font-size="10.00" fill="red">EarlyShadowPassNode</text>
<path fill="none" stroke="white" d="M1383.33,-313.93C1383.33,-313.93 1492.67,-313.93 1492.67,-313.93 1498.33,-313.93 1504,-319.6 1504,-325.27 1504,-325.27 1504,-336.6 1504,-336.6 1504,-342.27 1498.33,-347.93 1492.67,-347.93 1492.67,-347.93 1383.33,-347.93 1383.33,-347.93 1377.67,-347.93 1372,-342.27 1372,-336.6 1372,-336.6 1372,-325.27 1372,-325.27 1372,-319.6 1377.67,-313.93 1383.33,-313.93"/>
</g>
<!-- _Core3d__Core3dEarlyPrepassBuildIndirectParameters&#45;&gt;_Core3d__Core3dEarlyShadowPass -->
<g id="edge37" class="edge">
<title>_Core3d__Core3dEarlyPrepassBuildIndirectParameters:e&#45;&gt;_Core3d__Core3dEarlyShadowPass:w</title>
<path fill="none" stroke="white" d="M868,-370.93C905.05,-370.93 913.22,-360.36 950,-355.93 1134.03,-333.76 1183.46,-331.03 1363.91,-330.93"/>
<polygon fill="white" stroke="white" points="1364,-334.43 1374,-330.93 1364,-327.43 1364,-334.43"/>
</g>
<!-- _Core3d__Core3dEarlyPrepass -->
<g id="node48" class="node">
<title>_Core3d__Core3dEarlyPrepass</title>
<text text-anchor="start" x="1039" y="-387.73" font-family="Helvetica,sans-Serif" font-size="14.00" fill="white">EarlyPrepass</text>
<text text-anchor="start" x="989" y="-376.93" font-family="Helvetica,sans-Serif" font-size="10.00" fill="red">ViewNodeRunner&lt;EarlyPrepassNode&gt;</text>
<path fill="none" stroke="white" d="M995.33,-368.93C995.33,-368.93 1172.67,-368.93 1172.67,-368.93 1178.33,-368.93 1184,-374.6 1184,-380.27 1184,-380.27 1184,-391.6 1184,-391.6 1184,-397.27 1178.33,-402.93 1172.67,-402.93 1172.67,-402.93 995.33,-402.93 995.33,-402.93 989.67,-402.93 984,-397.27 984,-391.6 984,-391.6 984,-380.27 984,-380.27 984,-374.6 989.67,-368.93 995.33,-368.93"/>
</g>
<!-- _Core3d__Core3dEarlyPrepassBuildIndirectParameters&#45;&gt;_Core3d__Core3dEarlyPrepass -->
<g id="edge69" class="edge">
<title>_Core3d__Core3dEarlyPrepassBuildIndirectParameters:e&#45;&gt;_Core3d__Core3dEarlyPrepass:w</title>
<path fill="none" stroke="white" d="M868,-370.93C917.36,-370.93 931.33,-384.01 975.98,-385.74"/>
<polygon fill="white" stroke="white" points="975.94,-389.24 986,-385.93 976.07,-382.24 975.94,-389.24"/>
</g>
<!-- _Core3d__Core3dLatePrepassBuildIndirectParameters -->
<g id="node29" class="node">
<title>_Core3d__Core3dLatePrepassBuildIndirectParameters</title>
<text text-anchor="start" x="2227" y="-360.73" font-family="Helvetica,sans-Serif" font-size="14.00" fill="white">LatePrepassBuildIndirectParameters</text>
<text text-anchor="start" x="2251" y="-349.93" font-family="Helvetica,sans-Serif" font-size="10.00" fill="red">LatePrepassBuildIndirectParametersNode</text>
<path fill="none" stroke="white" d="M2233.33,-341.93C2233.33,-341.93 2470.67,-341.93 2470.67,-341.93 2476.33,-341.93 2482,-347.6 2482,-353.27 2482,-353.27 2482,-364.6 2482,-364.6 2482,-370.27 2476.33,-375.93 2470.67,-375.93 2470.67,-375.93 2233.33,-375.93 2233.33,-375.93 2227.67,-375.93 2222,-370.27 2222,-364.6 2222,-364.6 2222,-353.27 2222,-353.27 2222,-347.6 2227.67,-341.93 2233.33,-341.93"/>
</g>
<!-- _Core3d__Core3dLateGpuPreprocess&#45;&gt;_Core3d__Core3dLatePrepassBuildIndirectParameters -->
<g id="edge34" class="edge">
<title>_Core3d__Core3dLateGpuPreprocess:e&#45;&gt;_Core3d__Core3dLatePrepassBuildIndirectParameters:w</title>
<path fill="none" stroke="white" d="M2120,-358.93C2162.61,-358.93 2175.76,-358.93 2213.77,-358.93"/>
<polygon fill="white" stroke="white" points="2214,-362.43 2224,-358.93 2214,-355.43 2214,-362.43"/>
</g>
<!-- _Core3d__Core3dLateShadowPass -->
<g id="node32" class="node">
<title>_Core3d__Core3dLateShadowPass</title>
<text text-anchor="start" x="2613.5" y="-340.73" font-family="Helvetica,sans-Serif" font-size="14.00" fill="white">LateShadowPass</text>
<text text-anchor="start" x="2617.5" y="-329.93" font-family="Helvetica,sans-Serif" font-size="10.00" fill="red">LateShadowPassNode</text>
<path fill="none" stroke="white" d="M2619.33,-321.93C2619.33,-321.93 2722.67,-321.93 2722.67,-321.93 2728.33,-321.93 2734,-327.6 2734,-333.27 2734,-333.27 2734,-344.6 2734,-344.6 2734,-350.27 2728.33,-355.93 2722.67,-355.93 2722.67,-355.93 2619.33,-355.93 2619.33,-355.93 2613.67,-355.93 2608,-350.27 2608,-344.6 2608,-344.6 2608,-333.27 2608,-333.27 2608,-327.6 2613.67,-321.93 2619.33,-321.93"/>
</g>
<!-- _Core3d__Core3dLatePrepassBuildIndirectParameters&#45;&gt;_Core3d__Core3dLateShadowPass -->
<g id="edge39" class="edge">
<title>_Core3d__Core3dLatePrepassBuildIndirectParameters:e&#45;&gt;_Core3d__Core3dLateShadowPass:w</title>
<path fill="none" stroke="white" d="M2480,-358.93C2534.92,-358.93 2549.79,-341.28 2599.86,-339.14"/>
<polygon fill="white" stroke="white" points="2600.08,-342.64 2610,-338.93 2599.93,-335.64 2600.08,-342.64"/>
</g>
<!-- _Core3d__Core3dLatePrepassBuildIndirectParameters&#45;&gt;_Core3d__Core3dLatePrepass -->
<g id="edge72" class="edge">
<title>_Core3d__Core3dLatePrepassBuildIndirectParameters:e&#45;&gt;_Core3d__Core3dLatePrepass:w</title>
<path fill="none" stroke="white" d="M2480,-358.93C2522.23,-358.93 2528.4,-392.93 2565,-398.24"/>
<polygon fill="white" stroke="white" points="2564.78,-401.73 2575,-398.93 2565.27,-394.75 2564.78,-401.73"/>
</g>
<!-- _Core3d__Core3dMainBuildIndirectParameters -->
<g id="node30" class="node">
<title>_Core3d__Core3dMainBuildIndirectParameters</title>
<text text-anchor="start" x="3250" y="-363.73" font-family="Helvetica,sans-Serif" font-size="14.00" fill="white">MainBuildIndirectParameters</text>
<text text-anchor="start" x="3266.5" y="-352.93" font-family="Helvetica,sans-Serif" font-size="10.00" fill="red">MainBuildIndirectParametersNode</text>
<path fill="none" stroke="white" d="M3256.33,-344.93C3256.33,-344.93 3443.67,-344.93 3443.67,-344.93 3449.33,-344.93 3455,-350.6 3455,-356.27 3455,-356.27 3455,-367.6 3455,-367.6 3455,-373.27 3449.33,-378.93 3443.67,-378.93 3443.67,-378.93 3256.33,-378.93 3256.33,-378.93 3250.67,-378.93 3245,-373.27 3245,-367.6 3245,-367.6 3245,-356.27 3245,-356.27 3245,-350.6 3250.67,-344.93 3256.33,-344.93"/>
</g>
<!-- _Core3d__Core3dMainBuildIndirectParameters&#45;&gt;_Core3d__Core3dStartMainPass -->
<g id="edge53" class="edge">
<title>_Core3d__Core3dMainBuildIndirectParameters:e&#45;&gt;_Core3d__Core3dStartMainPass:w</title>
<path fill="none" stroke="white" d="M3453,-361.93C3737.03,-361.93 3808.23,-339.66 4092,-351.93 4158.85,-354.82 4325.58,-369.8 4392,-377.93 4425.05,-381.98 4435.18,-389.31 4463.95,-390.7"/>
<polygon fill="white" stroke="white" points="4463.92,-394.2 4474,-390.93 4464.08,-387.2 4463.92,-394.2"/>
</g>
<!-- _Core3d__Core3dEarlyShadowPass&#45;&gt;_Core3d__Core3dEarlyDownsampleDepth -->
<g id="edge27" class="edge">
<title>_Core3d__Core3dEarlyShadowPass:e&#45;&gt;_Core3d__Core3dEarlyDownsampleDepth:w</title>
<path fill="none" stroke="white" d="M1502,-330.93C1581.5,-330.93 1600.36,-365.74 1674.65,-368.73"/>
<polygon fill="white" stroke="white" points="1674.93,-372.23 1685,-368.93 1675.07,-365.24 1674.93,-372.23"/>
</g>
<!-- _Core3d__Core3dEarlyShadowPass&#45;&gt;_Core3d__Core3dLateShadowPass -->
<g id="edge38" class="edge">
<title>_Core3d__Core3dEarlyShadowPass:e&#45;&gt;_Core3d__Core3dLateShadowPass:w</title>
<path fill="none" stroke="white" d="M1502,-330.93C1941.11,-330.93 2051.27,-310.68 2490,-328.93 2539.92,-331.01 2554.58,-337.92 2599.85,-338.83"/>
<polygon fill="white" stroke="white" points="2599.97,-342.33 2610,-338.93 2600.03,-335.33 2599.97,-342.33"/>
</g>
<!-- _Core3d__Core3dLateShadowPass&#45;&gt;_Core3d__Core3dMainBuildIndirectParameters -->
<g id="edge36" class="edge">
<title>_Core3d__Core3dLateShadowPass:e&#45;&gt;_Core3d__Core3dMainBuildIndirectParameters:w</title>
<path fill="none" stroke="white" d="M2732,-338.93C2957.65,-338.93 3016.12,-361.24 3236.71,-361.92"/>
<polygon fill="white" stroke="white" points="3236.99,-365.42 3247,-361.93 3237.01,-358.42 3236.99,-365.42"/>
</g>
<!-- _Core3d__Core3dLateShadowPass&#45;&gt;_Core3d__Core3dStartMainPass -->
<g id="edge50" class="edge">
<title>_Core3d__Core3dLateShadowPass:e&#45;&gt;_Core3d__Core3dStartMainPass:w</title>
<path fill="none" stroke="white" d="M2732,-338.93C2869.16,-338.93 3211.84,-321.93 3349,-321.93 3349,-321.93 3349,-321.93 3668,-321.93 3708.27,-321.93 4352.75,-346.94 4392,-355.93 4427,-363.95 4433.37,-386.18 4463.74,-390.28"/>
<polygon fill="white" stroke="white" points="4463.8,-393.79 4474,-390.93 4464.24,-386.8 4463.8,-393.79"/>
</g>
<!-- _Core3d__Core3dEndMainPass -->
<g id="node33" class="node">
<title>_Core3d__Core3dEndMainPass</title>
<text text-anchor="start" x="6351.5" y="-418.73" font-family="Helvetica,sans-Serif" font-size="14.00" fill="white">EndMainPass</text>
<text text-anchor="start" x="6368" y="-407.93" font-family="Helvetica,sans-Serif" font-size="10.00" fill="red">EmptyNode</text>
<path fill="none" stroke="white" d="M6357.33,-399.93C6357.33,-399.93 6436.67,-399.93 6436.67,-399.93 6442.33,-399.93 6448,-405.6 6448,-411.27 6448,-411.27 6448,-422.6 6448,-422.6 6448,-428.27 6442.33,-433.93 6436.67,-433.93 6436.67,-433.93 6357.33,-433.93 6357.33,-433.93 6351.67,-433.93 6346,-428.27 6346,-422.6 6346,-422.6 6346,-411.27 6346,-411.27 6346,-405.6 6351.67,-399.93 6357.33,-399.93"/>
</g>
<!-- _Core3d__Core3dStartMainPassPostProcessing -->
<g id="node37" class="node">
<title>_Core3d__Core3dStartMainPassPostProcessing</title>
<text text-anchor="start" x="6835" y="-378.73" font-family="Helvetica,sans-Serif" font-size="14.00" fill="white">StartMainPassPostProcessing</text>
<text text-anchor="start" x="6907" y="-367.93" font-family="Helvetica,sans-Serif" font-size="10.00" fill="red">EmptyNode</text>
<path fill="none" stroke="white" d="M6841.33,-359.93C6841.33,-359.93 7030.67,-359.93 7030.67,-359.93 7036.33,-359.93 7042,-365.6 7042,-371.27 7042,-371.27 7042,-382.6 7042,-382.6 7042,-388.27 7036.33,-393.93 7030.67,-393.93 7030.67,-393.93 6841.33,-393.93 6841.33,-393.93 6835.67,-393.93 6830,-388.27 6830,-382.6 6830,-382.6 6830,-371.27 6830,-371.27 6830,-365.6 6835.67,-359.93 6841.33,-359.93"/>
</g>
<!-- _Core3d__Core3dEndMainPass&#45;&gt;_Core3d__Core3dStartMainPassPostProcessing -->
<g id="edge55" class="edge">
<title>_Core3d__Core3dEndMainPass:e&#45;&gt;_Core3d__Core3dStartMainPassPostProcessing:w</title>
<path fill="none" stroke="white" d="M6446,-416.93C6484.81,-416.93 6489.9,-394.33 6528,-386.93 6657.34,-361.82 6694.92,-376.16 6821.89,-376.9"/>
<polygon fill="white" stroke="white" points="6821.99,-380.4 6832,-376.93 6822.01,-373.4 6821.99,-380.4"/>
</g>
<!-- _Core3d__Core3dVolumetricFog -->
<g id="node57" class="node">
<title>_Core3d__Core3dVolumetricFog</title>
<text text-anchor="start" x="6589.5" y="-418.73" font-family="Helvetica,sans-Serif" font-size="14.00" fill="white">VolumetricFog</text>
<text text-anchor="start" x="6541" y="-407.93" font-family="Helvetica,sans-Serif" font-size="10.00" fill="red">ViewNodeRunner&lt;VolumetricFogNode&gt;</text>
<path fill="none" stroke="white" d="M6547.33,-399.93C6547.33,-399.93 6730.67,-399.93 6730.67,-399.93 6736.33,-399.93 6742,-405.6 6742,-411.27 6742,-411.27 6742,-422.6 6742,-422.6 6742,-428.27 6736.33,-433.93 6730.67,-433.93 6730.67,-433.93 6547.33,-433.93 6547.33,-433.93 6541.67,-433.93 6536,-428.27 6536,-422.6 6536,-422.6 6536,-411.27 6536,-411.27 6536,-405.6 6541.67,-399.93 6547.33,-399.93"/>
</g>
<!-- _Core3d__Core3dEndMainPass&#45;&gt;_Core3d__Core3dVolumetricFog -->
<g id="edge83" class="edge">
<title>_Core3d__Core3dEndMainPass:e&#45;&gt;_Core3d__Core3dVolumetricFog:w</title>
<path fill="none" stroke="white" d="M6446,-416.93C6483.22,-416.93 6495.03,-416.93 6527.68,-416.93"/>
<polygon fill="white" stroke="white" points="6528,-420.43 6538,-416.93 6528,-413.43 6528,-420.43"/>
</g>
<!-- _Core3d__Core3dUiPass -->
<g id="node63" class="node">
<title>_Core3d__Core3dUiPass</title>
<text text-anchor="start" x="9757" y="-434.73" font-family="Helvetica,sans-Serif" font-size="14.00" fill="white">UiPass</text>
<text text-anchor="start" x="9705.5" y="-423.93" font-family="Helvetica,sans-Serif" font-size="10.00" fill="red">RunUiSubgraphOnUiViewNode</text>
<path fill="none" stroke="white" d="M9711.33,-415.93C9711.33,-415.93 9848.67,-415.93 9848.67,-415.93 9854.33,-415.93 9860,-421.6 9860,-427.27 9860,-427.27 9860,-438.6 9860,-438.6 9860,-444.27 9854.33,-449.93 9848.67,-449.93 9848.67,-449.93 9711.33,-449.93 9711.33,-449.93 9705.67,-449.93 9700,-444.27 9700,-438.6 9700,-438.6 9700,-427.27 9700,-427.27 9700,-421.6 9705.67,-415.93 9711.33,-415.93"/>
</g>
<!-- _Core3d__Core3dEndMainPass&#45;&gt;_Core3d__Core3dUiPass -->
<g id="edge90" class="edge">
<title>_Core3d__Core3dEndMainPass:e&#45;&gt;_Core3d__Core3dUiPass:w</title>
<path fill="none" stroke="white" d="M6446,-416.93C6484.81,-416.93 6490.06,-438.76 6528,-446.93 6705.31,-485.12 6753.62,-476.93 6935,-476.93 6935,-476.93 6935,-476.93 9213,-476.93 9427.8,-476.93 9482.11,-434.3 9691.89,-432.96"/>
<polygon fill="white" stroke="white" points="9692.01,-436.46 9702,-432.93 9691.99,-429.46 9692.01,-436.46"/>
</g>
<!-- _Core3d__Core3dUpscaling -->
<g id="node51" class="node">
<title>_Core3d__Core3dUpscaling</title>
<text text-anchor="start" x="10006.5" y="-414.73" font-family="Helvetica,sans-Serif" font-size="14.00" fill="white">Upscaling</text>
<text text-anchor="start" x="9953.5" y="-403.93" font-family="Helvetica,sans-Serif" font-size="10.00" fill="red">ViewNodeRunner&lt;UpscalingNode&gt;</text>
<path fill="none" stroke="white" d="M9959.33,-395.93C9959.33,-395.93 10122.67,-395.93 10122.67,-395.93 10128.33,-395.93 10134,-401.6 10134,-407.27 10134,-407.27 10134,-418.6 10134,-418.6 10134,-424.27 10128.33,-429.93 10122.67,-429.93 10122.67,-429.93 9959.33,-429.93 9959.33,-429.93 9953.67,-429.93 9948,-424.27 9948,-418.6 9948,-418.6 9948,-407.27 9948,-407.27 9948,-401.6 9953.67,-395.93 9959.33,-395.93"/>
</g>
<!-- _Core3d__Core3dEndMainPassPostProcessing&#45;&gt;_Core3d__Core3dUpscaling -->
<g id="edge77" class="edge">
<title>_Core3d__Core3dEndMainPassPostProcessing:e&#45;&gt;_Core3d__Core3dUpscaling:w</title>
<path fill="none" stroke="white" d="M9610,-392.93C9724.75,-392.93 9753.61,-393.76 9868,-402.93 9901.02,-405.58 9911.32,-411.59 9939.99,-412.74"/>
<polygon fill="white" stroke="white" points="9939.93,-416.24 9950,-412.93 9940.07,-409.24 9939.93,-416.24"/>
</g>
<!-- _Core3d__Core3dEndMainPassPostProcessing&#45;&gt;_Core3d__Core3dUiPass -->
<g id="edge91" class="edge">
<title>_Core3d__Core3dEndMainPassPostProcessing:e&#45;&gt;_Core3d__Core3dUiPass:w</title>
<path fill="none" stroke="white" d="M9610,-392.93C9650.93,-392.93 9656.67,-426.64 9691.82,-432.17"/>
<polygon fill="white" stroke="white" points="9691.77,-435.67 9702,-432.93 9692.29,-428.69 9691.77,-435.67"/>
</g>
<!-- _Core3d__Core3dEndPrepasses -->
<g id="node35" class="node">
<title>_Core3d__Core3dEndPrepasses</title>
<text text-anchor="start" x="3618.5" y="-443.73" font-family="Helvetica,sans-Serif" font-size="14.00" fill="white">EndPrepasses</text>
<text text-anchor="start" x="3638" y="-432.93" font-family="Helvetica,sans-Serif" font-size="10.00" fill="red">EmptyNode</text>
<path fill="none" stroke="white" d="M3624.33,-424.93C3624.33,-424.93 3709.67,-424.93 3709.67,-424.93 3715.33,-424.93 3721,-430.6 3721,-436.27 3721,-436.27 3721,-447.6 3721,-447.6 3721,-453.27 3715.33,-458.93 3709.67,-458.93 3709.67,-458.93 3624.33,-458.93 3624.33,-458.93 3618.67,-458.93 3613,-453.27 3613,-447.6 3613,-447.6 3613,-436.27 3613,-436.27 3613,-430.6 3618.67,-424.93 3624.33,-424.93"/>
</g>
<!-- _Core3d__Core3dEndPrepasses&#45;&gt;_Core3d__Core3dDownsampling -->
<g id="edge29" class="edge">
<title>_Core3d__Core3dEndPrepasses:e&#45;&gt;_Core3d__Core3dDownsampling:w</title>
<path fill="none" stroke="white" d="M3719,-441.93C3807.04,-441.93 3823.3,-497.45 3905.87,-501.68"/>
<polygon fill="white" stroke="white" points="3905.92,-505.18 3916,-501.93 3906.09,-498.18 3905.92,-505.18"/>
</g>
<!-- _Core3d__Core3dEndPrepasses&#45;&gt;_Core3d__Core3dStartMainPass -->
<g id="edge48" class="edge">
<title>_Core3d__Core3dEndPrepasses:e&#45;&gt;_Core3d__Core3dStartMainPass:w</title>
<path fill="none" stroke="white" d="M3719,-441.93C3789.64,-441.93 3782.54,-510.99 3850,-531.93 3952.72,-563.82 3984.54,-536.4 4092,-531.93 4225.68,-526.37 4275.84,-573.33 4392,-506.93 4443.6,-477.44 4414.77,-400.67 4463.88,-391.78"/>
<polygon fill="white" stroke="white" points="4464.33,-395.25 4474,-390.93 4463.74,-388.28 4464.33,-395.25"/>
</g>
<!-- _Core3d__Core3dRenderLuts -->
<g id="node52" class="node">
<title>_Core3d__Core3dRenderLuts</title>
<text text-anchor="start" x="3931.5" y="-383.73" font-family="Helvetica,sans-Serif" font-size="14.00" fill="white">RenderLuts</text>
<text text-anchor="start" x="3868" y="-372.93" font-family="Helvetica,sans-Serif" font-size="10.00" fill="red">ViewNodeRunner&lt;AtmosphereLutsNode&gt;</text>
<path fill="none" stroke="white" d="M3874.33,-364.93C3874.33,-364.93 4067.67,-364.93 4067.67,-364.93 4073.33,-364.93 4079,-370.6 4079,-376.27 4079,-376.27 4079,-387.6 4079,-387.6 4079,-393.27 4073.33,-398.93 4067.67,-398.93 4067.67,-398.93 3874.33,-398.93 3874.33,-398.93 3868.67,-398.93 3863,-393.27 3863,-387.6 3863,-387.6 3863,-376.27 3863,-376.27 3863,-370.6 3868.67,-364.93 3874.33,-364.93"/>
</g>
<!-- _Core3d__Core3dEndPrepasses&#45;&gt;_Core3d__Core3dRenderLuts -->
<g id="edge79" class="edge">
<title>_Core3d__Core3dEndPrepasses:e&#45;&gt;_Core3d__Core3dRenderLuts:w</title>
<path fill="none" stroke="white" d="M3719,-441.93C3785.59,-441.93 3794.1,-387.87 3854.79,-382.38"/>
<polygon fill="white" stroke="white" points="3855.16,-385.87 3865,-381.93 3854.86,-378.87 3855.16,-385.87"/>
</g>
<!-- _Core3d__Core3dScreenSpaceAmbientOcclusion -->
<g id="node55" class="node">
<title>_Core3d__Core3dScreenSpaceAmbientOcclusion</title>
<text text-anchor="start" x="3863" y="-443.73" font-family="Helvetica,sans-Serif" font-size="14.00" fill="white">ScreenSpaceAmbientOcclusion</text>
<text text-anchor="start" x="3896" y="-432.93" font-family="Helvetica,sans-Serif" font-size="10.00" fill="red">ViewNodeRunner&lt;SsaoNode&gt;</text>
<path fill="none" stroke="white" d="M3869.33,-424.93C3869.33,-424.93 4072.67,-424.93 4072.67,-424.93 4078.33,-424.93 4084,-430.6 4084,-436.27 4084,-436.27 4084,-447.6 4084,-447.6 4084,-453.27 4078.33,-458.93 4072.67,-458.93 4072.67,-458.93 3869.33,-458.93 3869.33,-458.93 3863.67,-458.93 3858,-453.27 3858,-447.6 3858,-447.6 3858,-436.27 3858,-436.27 3858,-430.6 3863.67,-424.93 3869.33,-424.93"/>
</g>
<!-- _Core3d__Core3dEndPrepasses&#45;&gt;_Core3d__Core3dScreenSpaceAmbientOcclusion -->
<g id="edge82" class="edge">
<title>_Core3d__Core3dEndPrepasses:e&#45;&gt;_Core3d__Core3dScreenSpaceAmbientOcclusion:w</title>
<path fill="none" stroke="white" d="M3719,-441.93C3778.12,-441.93 3795.41,-441.93 3849.79,-441.93"/>
<polygon fill="white" stroke="white" points="3850,-445.43 3860,-441.93 3850,-438.43 3850,-445.43"/>
</g>
<!-- _Core3d__Core3dMainOpaquePass -->
<g id="node41" class="node">
<title>_Core3d__Core3dMainOpaquePass</title>
<text text-anchor="start" x="5118.5" y="-400.73" font-family="Helvetica,sans-Serif" font-size="14.00" fill="white">MainOpaquePass</text>
<text text-anchor="start" x="5067" y="-389.93" font-family="Helvetica,sans-Serif" font-size="10.00" fill="red">ViewNodeRunner&lt;MainOpaquePass3dNode&gt;</text>
<path fill="none" stroke="white" d="M5073.33,-381.93C5073.33,-381.93 5282.67,-381.93 5282.67,-381.93 5288.33,-381.93 5294,-387.6 5294,-393.27 5294,-393.27 5294,-404.6 5294,-404.6 5294,-410.27 5288.33,-415.93 5282.67,-415.93 5282.67,-415.93 5073.33,-415.93 5073.33,-415.93 5067.67,-415.93 5062,-410.27 5062,-404.6 5062,-404.6 5062,-393.27 5062,-393.27 5062,-387.6 5067.67,-381.93 5073.33,-381.93"/>
</g>
<!-- _Core3d__Core3dStartMainPass&#45;&gt;_Core3d__Core3dMainOpaquePass -->
<g id="edge60" class="edge">
<title>_Core3d__Core3dStartMainPass:e&#45;&gt;_Core3d__Core3dMainOpaquePass:w</title>
<path fill="none" stroke="white" d="M4578,-390.93C4615.51,-390.93 4622.76,-375.41 4660,-370.93 4802.09,-353.85 4840.82,-347.49 4982,-370.93 5016.43,-376.65 5024.17,-395 5053.99,-398.39"/>
<polygon fill="white" stroke="white" points="5053.83,-401.89 5064,-398.93 5054.2,-394.9 5053.83,-401.89"/>
</g>
<!-- _Core3d__Core3dDeferredLightingPass -->
<g id="node54" class="node">
<title>_Core3d__Core3dDeferredLightingPass</title>
<text text-anchor="start" x="4747" y="-402.73" font-family="Helvetica,sans-Serif" font-size="14.00" fill="white">DeferredLightingPass</text>
<text text-anchor="start" x="4673.5" y="-391.93" font-family="Helvetica,sans-Serif" font-size="10.00" fill="red">ViewNodeRunner&lt;DeferredOpaquePass3dPbrLightingNode&gt;</text>
<path fill="none" stroke="white" d="M4679.33,-383.93C4679.33,-383.93 4962.67,-383.93 4962.67,-383.93 4968.33,-383.93 4974,-389.6 4974,-395.27 4974,-395.27 4974,-406.6 4974,-406.6 4974,-412.27 4968.33,-417.93 4962.67,-417.93 4962.67,-417.93 4679.33,-417.93 4679.33,-417.93 4673.67,-417.93 4668,-412.27 4668,-406.6 4668,-406.6 4668,-395.27 4668,-395.27 4668,-389.6 4673.67,-383.93 4679.33,-383.93"/>
</g>
<!-- _Core3d__Core3dStartMainPass&#45;&gt;_Core3d__Core3dDeferredLightingPass -->
<g id="edge81" class="edge">
<title>_Core3d__Core3dStartMainPass:e&#45;&gt;_Core3d__Core3dDeferredLightingPass:w</title>
<path fill="none" stroke="white" d="M4578,-390.93C4615.43,-390.93 4626.87,-399.22 4659.63,-400.7"/>
<polygon fill="white" stroke="white" points="4659.93,-404.21 4670,-400.93 4660.08,-397.21 4659.93,-404.21"/>
</g>
<!-- _Core3d__Core3dStartMainPassPostProcessing&#45;&gt;_Core3d__Core3dLateDownsampleDepth -->
<g id="edge28" class="edge">
<title>_Core3d__Core3dStartMainPassPostProcessing:e&#45;&gt;_Core3d__Core3dLateDownsampleDepth:w</title>
<path fill="none" stroke="white" d="M7040,-376.93C7088.54,-376.93 7088.99,-428.79 7130.77,-436.08"/>
<polygon fill="white" stroke="white" points="7130.74,-439.59 7141,-436.93 7131.32,-432.62 7130.74,-439.59"/>
</g>
<!-- _Core3d__Core3dTonemapping -->
<g id="node50" class="node">
<title>_Core3d__Core3dTonemapping</title>
<text text-anchor="start" x="8618" y="-356.73" font-family="Helvetica,sans-Serif" font-size="14.00" fill="white">Tonemapping</text>
<text text-anchor="start" x="8569" y="-345.93" font-family="Helvetica,sans-Serif" font-size="10.00" fill="red">ViewNodeRunner&lt;TonemappingNode&gt;</text>
<path fill="none" stroke="white" d="M8575.33,-337.93C8575.33,-337.93 8754.67,-337.93 8754.67,-337.93 8760.33,-337.93 8766,-343.6 8766,-349.27 8766,-349.27 8766,-360.6 8766,-360.6 8766,-366.27 8760.33,-371.93 8754.67,-371.93 8754.67,-371.93 8575.33,-371.93 8575.33,-371.93 8569.67,-371.93 8564,-366.27 8564,-360.6 8564,-360.6 8564,-349.27 8564,-349.27 8564,-343.6 8569.67,-337.93 8575.33,-337.93"/>
</g>
<!-- _Core3d__Core3dStartMainPassPostProcessing&#45;&gt;_Core3d__Core3dTonemapping -->
<g id="edge73" class="edge">
<title>_Core3d__Core3dStartMainPassPostProcessing:e&#45;&gt;_Core3d__Core3dTonemapping:w</title>
<path fill="none" stroke="white" d="M7040,-376.93C7079.98,-376.93 7083.17,-349.47 7122,-339.93 7294.07,-297.68 7342.82,-316.93 7520,-316.93 7520,-316.93 7520,-316.93 8079,-316.93 8259.16,-316.93 8305.77,-307.66 8484,-333.93 8517.58,-338.88 8526.69,-352 8555.79,-354.51"/>
<polygon fill="white" stroke="white" points="8555.86,-358.02 8566,-354.93 8556.15,-351.02 8555.86,-358.02"/>
</g>
<!-- _Core3d__Core3dBloom -->
<g id="node58" class="node">
<title>_Core3d__Core3dBloom</title>
<text text-anchor="start" x="7784" y="-358.73" font-family="Helvetica,sans-Serif" font-size="14.00" fill="white">Bloom</text>
<text text-anchor="start" x="7727" y="-347.93" font-family="Helvetica,sans-Serif" font-size="10.00" fill="red">ViewNodeRunner&lt;BloomNode&gt;</text>
<path fill="none" stroke="white" d="M7733.33,-339.93C7733.33,-339.93 7878.67,-339.93 7878.67,-339.93 7884.33,-339.93 7890,-345.6 7890,-351.27 7890,-351.27 7890,-362.6 7890,-362.6 7890,-368.27 7884.33,-373.93 7878.67,-373.93 7878.67,-373.93 7733.33,-373.93 7733.33,-373.93 7727.67,-373.93 7722,-368.27 7722,-362.6 7722,-362.6 7722,-351.27 7722,-351.27 7722,-345.6 7727.67,-339.93 7733.33,-339.93"/>
</g>
<!-- _Core3d__Core3dStartMainPassPostProcessing&#45;&gt;_Core3d__Core3dBloom -->
<g id="edge84" class="edge">
<title>_Core3d__Core3dStartMainPassPostProcessing:e&#45;&gt;_Core3d__Core3dBloom:w</title>
<path fill="none" stroke="white" d="M7040,-376.93C7078.81,-376.93 7083.79,-353.7 7122,-346.93 7165.08,-339.3 7586.35,-351.04 7642,-352.93 7674.76,-354.04 7685.39,-356.39 7713.67,-356.85"/>
<polygon fill="white" stroke="white" points="7713.97,-360.35 7724,-356.93 7714.03,-353.35 7713.97,-360.35"/>
</g>
<!-- _Core3d__Core3dMotionBlur -->
<g id="node61" class="node">
<title>_Core3d__Core3dMotionBlur</title>
<text text-anchor="start" x="7187" y="-378.73" font-family="Helvetica,sans-Serif" font-size="14.00" fill="white">MotionBlur</text>
<text text-anchor="start" x="7135" y="-367.93" font-family="Helvetica,sans-Serif" font-size="10.00" fill="red">ViewNodeRunner&lt;MotionBlurNode&gt;</text>
<path fill="none" stroke="white" d="M7141.33,-359.93C7141.33,-359.93 7308.67,-359.93 7308.67,-359.93 7314.33,-359.93 7320,-365.6 7320,-371.27 7320,-371.27 7320,-382.6 7320,-382.6 7320,-388.27 7314.33,-393.93 7308.67,-393.93 7308.67,-393.93 7141.33,-393.93 7141.33,-393.93 7135.67,-393.93 7130,-388.27 7130,-382.6 7130,-382.6 7130,-371.27 7130,-371.27 7130,-365.6 7135.67,-359.93 7141.33,-359.93"/>
</g>
<!-- _Core3d__Core3dStartMainPassPostProcessing&#45;&gt;_Core3d__Core3dMotionBlur -->
<g id="edge89" class="edge">
<title>_Core3d__Core3dStartMainPassPostProcessing:e&#45;&gt;_Core3d__Core3dMotionBlur:w</title>
<path fill="none" stroke="white" d="M7040,-376.93C7077.22,-376.93 7089.03,-376.93 7121.68,-376.93"/>
<polygon fill="white" stroke="white" points="7122,-380.43 7132,-376.93 7122,-373.43 7122,-380.43"/>
</g>
<!-- _Core3d__Core3dFxaa -->
<g id="node38" class="node">
<title>_Core3d__Core3dFxaa</title>
<text text-anchor="start" x="8919" y="-334.73" font-family="Helvetica,sans-Serif" font-size="14.00" fill="white">Fxaa</text>
<text text-anchor="start" x="8860.5" y="-323.93" font-family="Helvetica,sans-Serif" font-size="10.00" fill="red">ViewNodeRunner&lt;FxaaNode&gt;</text>
<path fill="none" stroke="white" d="M8866.33,-315.93C8866.33,-315.93 9005.67,-315.93 9005.67,-315.93 9011.33,-315.93 9017,-321.6 9017,-327.27 9017,-327.27 9017,-338.6 9017,-338.6 9017,-344.27 9011.33,-349.93 9005.67,-349.93 9005.67,-349.93 8866.33,-349.93 8866.33,-349.93 8860.67,-349.93 8855,-344.27 8855,-338.6 8855,-338.6 8855,-327.27 8855,-327.27 8855,-321.6 8860.67,-315.93 8866.33,-315.93"/>
</g>
<!-- _Core3d__Core3dFxaa&#45;&gt;_Core3d__Core3dContrastAdaptiveSharpening -->
<g id="edge25" class="edge">
<title>_Core3d__Core3dFxaa:e&#45;&gt;_Core3d__Core3dContrastAdaptiveSharpening:w</title>
<path fill="none" stroke="white" d="M9015,-332.93C9056.3,-332.93 9062.23,-366.64 9097.73,-372.17"/>
<polygon fill="white" stroke="white" points="9097.77,-375.68 9108,-372.93 9098.29,-368.7 9097.77,-375.68"/>
</g>
<!-- _Core3d__Core3dFxaa&#45;&gt;_Core3d__Core3dEndMainPassPostProcessing -->
<g id="edge44" class="edge">
<title>_Core3d__Core3dFxaa:e&#45;&gt;_Core3d__Core3dEndMainPassPostProcessing:w</title>
<path fill="none" stroke="white" d="M9015,-332.93C9153.29,-332.93 9193.48,-303.41 9326,-342.93 9363.39,-354.08 9365.27,-386.62 9397.92,-392.14"/>
<polygon fill="white" stroke="white" points="9397.76,-395.63 9408,-392.93 9398.31,-388.65 9397.76,-395.63"/>
</g>
<!-- _Core3d__Core3dSmaa -->
<g id="node39" class="node">
<title>_Core3d__Core3dSmaa</title>
<text text-anchor="start" x="8916" y="-414.73" font-family="Helvetica,sans-Serif" font-size="14.00" fill="white">Smaa</text>
<text text-anchor="start" x="8859" y="-403.93" font-family="Helvetica,sans-Serif" font-size="10.00" fill="red">ViewNodeRunner&lt;SmaaNode&gt;</text>
<path fill="none" stroke="white" d="M8865.33,-395.93C8865.33,-395.93 9006.67,-395.93 9006.67,-395.93 9012.33,-395.93 9018,-401.6 9018,-407.27 9018,-407.27 9018,-418.6 9018,-418.6 9018,-424.27 9012.33,-429.93 9006.67,-429.93 9006.67,-429.93 8865.33,-429.93 8865.33,-429.93 8859.67,-429.93 8854,-424.27 8854,-418.6 8854,-418.6 8854,-407.27 8854,-407.27 8854,-401.6 8859.67,-395.93 8865.33,-395.93"/>
</g>
<!-- _Core3d__Core3dSmaa&#45;&gt;_Core3d__Core3dEndMainPassPostProcessing -->
<g id="edge45" class="edge">
<title>_Core3d__Core3dSmaa:e&#45;&gt;_Core3d__Core3dEndMainPassPostProcessing:w</title>
<path fill="none" stroke="white" d="M9016,-412.93C9153.85,-412.93 9188.56,-413.51 9326,-402.93 9359.03,-400.39 9369.32,-394.29 9397.99,-393.13"/>
<polygon fill="white" stroke="white" points="9398.07,-396.63 9408,-392.93 9397.93,-389.63 9398.07,-396.63"/>
</g>
<!-- _Core3d__Core3dTaa -->
<g id="node40" class="node">
<title>_Core3d__Core3dTaa</title>
<text text-anchor="start" x="7509.5" y="-398.73" font-family="Helvetica,sans-Serif" font-size="14.00" fill="white">Taa</text>
<text text-anchor="start" x="7413.5" y="-387.93" font-family="Helvetica,sans-Serif" font-size="10.00" fill="red">ViewNodeRunner&lt;TemporalAntiAliasNode&gt;</text>
<path fill="none" stroke="white" d="M7419.33,-379.93C7419.33,-379.93 7622.67,-379.93 7622.67,-379.93 7628.33,-379.93 7634,-385.6 7634,-391.27 7634,-391.27 7634,-402.6 7634,-402.6 7634,-408.27 7628.33,-413.93 7622.67,-413.93 7622.67,-413.93 7419.33,-413.93 7419.33,-413.93 7413.67,-413.93 7408,-408.27 7408,-402.6 7408,-402.6 7408,-391.27 7408,-391.27 7408,-385.6 7413.67,-379.93 7419.33,-379.93"/>
</g>
<!-- _Core3d__Core3dTaa&#45;&gt;_Core3d__Core3dBloom -->
<g id="edge86" class="edge">
<title>_Core3d__Core3dTaa:e&#45;&gt;_Core3d__Core3dBloom:w</title>
<path fill="none" stroke="white" d="M7632,-396.93C7672.93,-396.93 7678.67,-363.23 7713.82,-357.7"/>
<polygon fill="white" stroke="white" points="7714.29,-361.17 7724,-356.93 7713.77,-354.19 7714.29,-361.17"/>
</g>
<!-- _Core3d__Core3dMainTransmissivePass -->
<g id="node42" class="node">
<title>_Core3d__Core3dMainTransmissivePass</title>
<text text-anchor="start" x="5434" y="-399.73" font-family="Helvetica,sans-Serif" font-size="14.00" fill="white">MainTransmissivePass</text>
<text text-anchor="start" x="5387" y="-388.93" font-family="Helvetica,sans-Serif" font-size="10.00" fill="red">ViewNodeRunner&lt;MainTransmissivePass3dNode&gt;</text>
<path fill="none" stroke="white" d="M5393.33,-380.93C5393.33,-380.93 5628.67,-380.93 5628.67,-380.93 5634.33,-380.93 5640,-386.6 5640,-392.27 5640,-392.27 5640,-403.6 5640,-403.6 5640,-409.27 5634.33,-414.93 5628.67,-414.93 5628.67,-414.93 5393.33,-414.93 5393.33,-414.93 5387.67,-414.93 5382,-409.27 5382,-403.6 5382,-403.6 5382,-392.27 5382,-392.27 5382,-386.6 5387.67,-380.93 5393.33,-380.93"/>
</g>
<!-- _Core3d__Core3dMainOpaquePass&#45;&gt;_Core3d__Core3dMainTransmissivePass -->
<g id="edge62" class="edge">
<title>_Core3d__Core3dMainOpaquePass:e&#45;&gt;_Core3d__Core3dMainTransmissivePass:w</title>
<path fill="none" stroke="white" d="M5292,-398.93C5329.22,-398.93 5341.03,-398.1 5373.68,-397.96"/>
<polygon fill="white" stroke="white" points="5374.01,-401.45 5384,-397.93 5373.99,-394.45 5374.01,-401.45"/>
</g>
<!-- _Core3d__Core3dRenderSky -->
<g id="node53" class="node">
<title>_Core3d__Core3dRenderSky</title>
<text text-anchor="start" x="5473.5" y="-459.73" font-family="Helvetica,sans-Serif" font-size="14.00" fill="white">RenderSky</text>
<text text-anchor="start" x="5422" y="-448.93" font-family="Helvetica,sans-Serif" font-size="10.00" fill="red">ViewNodeRunner&lt;RenderSkyNode&gt;</text>
<path fill="none" stroke="white" d="M5428.33,-440.93C5428.33,-440.93 5593.67,-440.93 5593.67,-440.93 5599.33,-440.93 5605,-446.6 5605,-452.27 5605,-452.27 5605,-463.6 5605,-463.6 5605,-469.27 5599.33,-474.93 5593.67,-474.93 5593.67,-474.93 5428.33,-474.93 5428.33,-474.93 5422.67,-474.93 5417,-469.27 5417,-463.6 5417,-463.6 5417,-452.27 5417,-452.27 5417,-446.6 5422.67,-440.93 5428.33,-440.93"/>
</g>
<!-- _Core3d__Core3dMainOpaquePass&#45;&gt;_Core3d__Core3dRenderSky -->
<g id="edge80" class="edge">
<title>_Core3d__Core3dMainOpaquePass:e&#45;&gt;_Core3d__Core3dRenderSky:w</title>
<path fill="none" stroke="white" d="M5292,-398.93C5350.71,-398.93 5356.28,-451.44 5408.98,-457.39"/>
<polygon fill="white" stroke="white" points="5408.82,-460.88 5419,-457.93 5409.21,-453.89 5408.82,-460.88"/>
</g>
<!-- _Core3d__Core3dMainTransparentPass -->
<g id="node43" class="node">
<title>_Core3d__Core3dMainTransparentPass</title>
<text text-anchor="start" x="5780.5" y="-404.73" font-family="Helvetica,sans-Serif" font-size="14.00" fill="white">MainTransparentPass</text>
<text text-anchor="start" x="5733.5" y="-393.93" font-family="Helvetica,sans-Serif" font-size="10.00" fill="red">ViewNodeRunner&lt;MainTransparentPass3dNode&gt;</text>
<path fill="none" stroke="white" d="M5739.33,-385.93C5739.33,-385.93 5968.67,-385.93 5968.67,-385.93 5974.33,-385.93 5980,-391.6 5980,-397.27 5980,-397.27 5980,-408.6 5980,-408.6 5980,-414.27 5974.33,-419.93 5968.67,-419.93 5968.67,-419.93 5739.33,-419.93 5739.33,-419.93 5733.67,-419.93 5728,-414.27 5728,-408.6 5728,-408.6 5728,-397.27 5728,-397.27 5728,-391.6 5733.67,-385.93 5739.33,-385.93"/>
</g>
<!-- _Core3d__Core3dMainTransmissivePass&#45;&gt;_Core3d__Core3dMainTransparentPass -->
<g id="edge63" class="edge">
<title>_Core3d__Core3dMainTransmissivePass:e&#45;&gt;_Core3d__Core3dMainTransparentPass:w</title>
<path fill="none" stroke="white" d="M5638,-397.93C5675.27,-397.93 5686.99,-402.07 5719.67,-402.82"/>
<polygon fill="white" stroke="white" points="5719.96,-406.32 5730,-402.93 5720.04,-399.32 5719.96,-406.32"/>
</g>
<!-- _Core3d__Core3dMainTransparentPass&#45;&gt;_Core3d__Core3dEndMainPass -->
<g id="edge40" class="edge">
<title>_Core3d__Core3dMainTransparentPass:e&#45;&gt;_Core3d__Core3dEndMainPass:w</title>
<path fill="none" stroke="white" d="M5978,-402.93C6106,-402.93 6138.41,-393.66 6266,-403.93 6299.19,-406.6 6309.2,-415.04 6337.95,-416.66"/>
<polygon fill="white" stroke="white" points="6337.91,-420.16 6348,-416.93 6338.1,-413.16 6337.91,-420.16"/>
</g>
<!-- _Core3d__Core3dOitResolvePass -->
<g id="node47" class="node">
<title>_Core3d__Core3dOitResolvePass</title>
<text text-anchor="start" x="6110.5" y="-435.73" font-family="Helvetica,sans-Serif" font-size="14.00" fill="white">OitResolvePass</text>
<text text-anchor="start" x="6073" y="-424.93" font-family="Helvetica,sans-Serif" font-size="10.00" fill="red">ViewNodeRunner&lt;OitResolveNode&gt;</text>
<path fill="none" stroke="white" d="M6079.33,-416.93C6079.33,-416.93 6246.67,-416.93 6246.67,-416.93 6252.33,-416.93 6258,-422.6 6258,-428.27 6258,-428.27 6258,-439.6 6258,-439.6 6258,-445.27 6252.33,-450.93 6246.67,-450.93 6246.67,-450.93 6079.33,-450.93 6079.33,-450.93 6073.67,-450.93 6068,-445.27 6068,-439.6 6068,-439.6 6068,-428.27 6068,-428.27 6068,-422.6 6073.67,-416.93 6079.33,-416.93"/>
</g>
<!-- _Core3d__Core3dMainTransparentPass&#45;&gt;_Core3d__Core3dOitResolvePass -->
<g id="edge68" class="edge">
<title>_Core3d__Core3dMainTransparentPass:e&#45;&gt;_Core3d__Core3dOitResolvePass:w</title>
<path fill="none" stroke="white" d="M5978,-402.93C6017.44,-402.93 6025.6,-428.83 6059.66,-433.28"/>
<polygon fill="white" stroke="white" points="6059.8,-436.8 6070,-433.93 6060.24,-429.81 6059.8,-436.8"/>
</g>
<!-- _Core3d__Core3dCopyDeferredLightingId -->
<g id="node44" class="node">
<title>_Core3d__Core3dCopyDeferredLightingId</title>
<text text-anchor="start" x="3267" y="-433.73" font-family="Helvetica,sans-Serif" font-size="14.00" fill="white">CopyDeferredLightingId</text>
<text text-anchor="start" x="3229" y="-422.93" font-family="Helvetica,sans-Serif" font-size="10.00" fill="red">ViewNodeRunner&lt;CopyDeferredLightingIdNode&gt;</text>
<path fill="none" stroke="white" d="M3235.33,-414.93C3235.33,-414.93 3464.67,-414.93 3464.67,-414.93 3470.33,-414.93 3476,-420.6 3476,-426.27 3476,-426.27 3476,-437.6 3476,-437.6 3476,-443.27 3470.33,-448.93 3464.67,-448.93 3464.67,-448.93 3235.33,-448.93 3235.33,-448.93 3229.67,-448.93 3224,-443.27 3224,-437.6 3224,-437.6 3224,-426.27 3224,-426.27 3224,-420.6 3229.67,-414.93 3235.33,-414.93"/>
</g>
<!-- _Core3d__Core3dCopyDeferredLightingId&#45;&gt;_Core3d__Core3dEndPrepasses -->
<g id="edge47" class="edge">
<title>_Core3d__Core3dCopyDeferredLightingId:e&#45;&gt;_Core3d__Core3dEndPrepasses:w</title>
<path fill="none" stroke="white" d="M3474,-431.93C3533.27,-431.93 3550.28,-440.83 3604.76,-441.84"/>
<polygon fill="white" stroke="white" points="3604.97,-445.34 3615,-441.93 3605.03,-438.34 3604.97,-445.34"/>
</g>
<!-- _Core3d__Core3dEarlyDeferredPrepass -->
<g id="node45" class="node">
<title>_Core3d__Core3dEarlyDeferredPrepass</title>
<text text-anchor="start" x="1363" y="-392.73" font-family="Helvetica,sans-Serif" font-size="14.00" fill="white">EarlyDeferredPrepass</text>
<text text-anchor="start" x="1303.5" y="-381.93" font-family="Helvetica,sans-Serif" font-size="10.00" fill="red">ViewNodeRunner&lt;EarlyDeferredGBufferPrepassNode&gt;</text>
<path fill="none" stroke="white" d="M1309.33,-373.93C1309.33,-373.93 1566.67,-373.93 1566.67,-373.93 1572.33,-373.93 1578,-379.6 1578,-385.27 1578,-385.27 1578,-396.6 1578,-396.6 1578,-402.27 1572.33,-407.93 1566.67,-407.93 1566.67,-407.93 1309.33,-407.93 1309.33,-407.93 1303.67,-407.93 1298,-402.27 1298,-396.6 1298,-396.6 1298,-385.27 1298,-385.27 1298,-379.6 1303.67,-373.93 1309.33,-373.93"/>
</g>
<!-- _Core3d__Core3dEarlyDeferredPrepass&#45;&gt;_Core3d__Core3dEarlyDownsampleDepth -->
<g id="edge26" class="edge">
<title>_Core3d__Core3dEarlyDeferredPrepass:e&#45;&gt;_Core3d__Core3dEarlyDownsampleDepth:w</title>
<path fill="none" stroke="white" d="M1576,-390.93C1621.85,-390.93 1633.91,-372 1674.87,-369.26"/>
<polygon fill="white" stroke="white" points="1675.12,-372.75 1685,-368.93 1674.89,-365.76 1675.12,-372.75"/>
</g>
<!-- _Core3d__Core3dEarlyDeferredPrepass&#45;&gt;_Core3d__Core3dLatePrepass -->
<g id="edge70" class="edge">
<title>_Core3d__Core3dEarlyDeferredPrepass:e&#45;&gt;_Core3d__Core3dLatePrepass:w</title>
<path fill="none" stroke="white" d="M1576,-390.93C1612.62,-390.93 1621.44,-396.89 1658,-398.93 1904.75,-412.72 1966.87,-405.15 2214,-406.93 2336.66,-407.81 2367.47,-412.69 2490,-406.93 2524.2,-405.33 2534.99,-400.1 2564.65,-399.1"/>
<polygon fill="white" stroke="white" points="2565.06,-402.59 2575,-398.93 2564.94,-395.6 2565.06,-402.59"/>
</g>
<!-- _Core3d__Core3dLateDeferredPrepass -->
<g id="node46" class="node">
<title>_Core3d__Core3dLateDeferredPrepass</title>
<text text-anchor="start" x="2926" y="-400.73" font-family="Helvetica,sans-Serif" font-size="14.00" fill="white">LateDeferredPrepass</text>
<text text-anchor="start" x="2865.5" y="-389.93" font-family="Helvetica,sans-Serif" font-size="10.00" fill="red">ViewNodeRunner&lt;LateDeferredGBufferPrepassNode&gt;</text>
<path fill="none" stroke="white" d="M2871.33,-381.93C2871.33,-381.93 3124.67,-381.93 3124.67,-381.93 3130.33,-381.93 3136,-387.6 3136,-393.27 3136,-393.27 3136,-404.6 3136,-404.6 3136,-410.27 3130.33,-415.93 3124.67,-415.93 3124.67,-415.93 2871.33,-415.93 2871.33,-415.93 2865.67,-415.93 2860,-410.27 2860,-404.6 2860,-404.6 2860,-393.27 2860,-393.27 2860,-387.6 2865.67,-381.93 2871.33,-381.93"/>
</g>
<!-- _Core3d__Core3dLateDeferredPrepass&#45;&gt;_Core3d__Core3dMainBuildIndirectParameters -->
<g id="edge35" class="edge">
<title>_Core3d__Core3dLateDeferredPrepass:e&#45;&gt;_Core3d__Core3dMainBuildIndirectParameters:w</title>
<path fill="none" stroke="white" d="M3134,-398.93C3183.23,-398.93 3192.94,-366.82 3236.77,-362.43"/>
<polygon fill="white" stroke="white" points="3237.18,-365.91 3247,-361.93 3236.84,-358.92 3237.18,-365.91"/>
</g>
<!-- _Core3d__Core3dLateDeferredPrepass&#45;&gt;_Core3d__Core3dCopyDeferredLightingId -->
<g id="edge65" class="edge">
<title>_Core3d__Core3dLateDeferredPrepass:e&#45;&gt;_Core3d__Core3dCopyDeferredLightingId:w</title>
<path fill="none" stroke="white" d="M3134,-398.93C3173.71,-398.93 3181.4,-426.5 3215.6,-431.24"/>
<polygon fill="white" stroke="white" points="3215.79,-434.76 3226,-431.93 3216.25,-427.78 3215.79,-434.76"/>
</g>
<!-- _Core3d__Core3dOitResolvePass&#45;&gt;_Core3d__Core3dEndMainPass -->
<g id="edge41" class="edge">
<title>_Core3d__Core3dOitResolvePass:e&#45;&gt;_Core3d__Core3dEndMainPass:w</title>
<path fill="none" stroke="white" d="M6256,-433.93C6294.01,-433.93 6304.66,-419.73 6337.96,-417.29"/>
<polygon fill="white" stroke="white" points="6338.13,-420.78 6348,-416.93 6337.88,-413.79 6338.13,-420.78"/>
</g>
<!-- _Core3d__Core3dEarlyPrepass&#45;&gt;_Core3d__Core3dEarlyDeferredPrepass -->
<g id="edge66" class="edge">
<title>_Core3d__Core3dEarlyPrepass:e&#45;&gt;_Core3d__Core3dEarlyDeferredPrepass:w</title>
<path fill="none" stroke="white" d="M1182,-385.93C1230.9,-385.93 1245.54,-390.27 1289.76,-390.87"/>
<polygon fill="white" stroke="white" points="1289.98,-394.37 1300,-390.93 1290.02,-387.37 1289.98,-394.37"/>
</g>
<!-- _Core3d__Core3dLatePrepass&#45;&gt;_Core3d__Core3dLateDeferredPrepass -->
<g id="edge67" class="edge">
<title>_Core3d__Core3dLatePrepass:e&#45;&gt;_Core3d__Core3dLateDeferredPrepass:w</title>
<path fill="none" stroke="white" d="M2767,-398.93C2805.59,-398.93 2817.73,-398.93 2851.78,-398.93"/>
<polygon fill="white" stroke="white" points="2852,-402.43 2862,-398.93 2852,-395.43 2852,-402.43"/>
</g>
<!-- _Core3d__Core3dTonemapping&#45;&gt;_Core3d__Core3dContrastAdaptiveSharpening -->
<g id="edge24" class="edge">
<title>_Core3d__Core3dTonemapping:e&#45;&gt;_Core3d__Core3dContrastAdaptiveSharpening:w</title>
<path fill="none" stroke="white" d="M8764,-354.93C8800.62,-354.93 8809.47,-360.46 8846,-362.93 8958.86,-370.58 8989.68,-372.8 9097.98,-372.93"/>
<polygon fill="white" stroke="white" points="9098,-376.43 9108,-372.93 9098,-369.43 9098,-376.43"/>
</g>
<!-- _Core3d__Core3dTonemapping&#45;&gt;_Core3d__Core3dEndMainPassPostProcessing -->
<g id="edge42" class="edge">
<title>_Core3d__Core3dTonemapping:e&#45;&gt;_Core3d__Core3dEndMainPassPostProcessing:w</title>
<path fill="none" stroke="white" d="M8764,-354.93C8807.15,-354.93 8804.56,-314.97 8846,-302.93 8916.99,-282.32 9301.08,-307.53 9326,-317.93 9368.2,-335.54 9360.21,-384.83 9397.98,-392.05"/>
<polygon fill="white" stroke="white" points="9397.73,-395.54 9408,-392.93 9398.35,-388.56 9397.73,-395.54"/>
</g>
<!-- _Core3d__Core3dTonemapping&#45;&gt;_Core3d__Core3dFxaa -->
<g id="edge57" class="edge">
<title>_Core3d__Core3dTonemapping:e&#45;&gt;_Core3d__Core3dFxaa:w</title>
<path fill="none" stroke="white" d="M8764,-354.93C8802.82,-354.93 8812.89,-336.55 8846.77,-333.39"/>
<polygon fill="white" stroke="white" points="8847.17,-336.88 8857,-332.93 8846.85,-329.88 8847.17,-336.88"/>
</g>
<!-- _Core3d__Core3dTonemapping&#45;&gt;_Core3d__Core3dSmaa -->
<g id="edge58" class="edge">
<title>_Core3d__Core3dTonemapping:e&#45;&gt;_Core3d__Core3dSmaa:w</title>
<path fill="none" stroke="white" d="M8764,-354.93C8808.56,-354.93 8808.07,-404.22 8845.59,-411.93"/>
<polygon fill="white" stroke="white" points="8845.71,-415.45 8856,-412.93 8846.38,-408.49 8845.71,-415.45"/>
</g>
<!-- _Core3d__Core3dRenderLuts&#45;&gt;_Core3d__Core3dStartMainPass -->
<g id="edge54" class="edge">
<title>_Core3d__Core3dRenderLuts:e&#45;&gt;_Core3d__Core3dStartMainPass:w</title>
<path fill="none" stroke="white" d="M4077,-381.93C4250.04,-381.93 4295.74,-390.58 4463.81,-390.92"/>
<polygon fill="white" stroke="white" points="4464,-394.42 4474,-390.93 4464,-387.42 4464,-394.42"/>
</g>
<!-- _Core3d__Core3dRenderSky&#45;&gt;_Core3d__Core3dMainTransparentPass -->
<g id="edge64" class="edge">
<title>_Core3d__Core3dRenderSky:e&#45;&gt;_Core3d__Core3dMainTransparentPass:w</title>
<path fill="none" stroke="white" d="M5603,-457.93C5660.91,-457.93 5667.83,-409.19 5719.76,-403.48"/>
<polygon fill="white" stroke="white" points="5720.2,-406.96 5730,-402.93 5719.83,-399.97 5720.2,-406.96"/>
</g>
<!-- _Core3d__Core3dDeferredLightingPass&#45;&gt;_Core3d__Core3dMainOpaquePass -->
<g id="edge61" class="edge">
<title>_Core3d__Core3dDeferredLightingPass:e&#45;&gt;_Core3d__Core3dMainOpaquePass:w</title>
<path fill="none" stroke="white" d="M4972,-400.93C5009.22,-400.93 5021.02,-399.28 5053.68,-398.98"/>
<polygon fill="white" stroke="white" points="5054.02,-402.48 5064,-398.93 5053.98,-395.48 5054.02,-402.48"/>
</g>
<!-- _Core3d__Core3dScreenSpaceAmbientOcclusion&#45;&gt;_Core3d__Core3dStartMainPass -->
<g id="edge51" class="edge">
<title>_Core3d__Core3dScreenSpaceAmbientOcclusion:e&#45;&gt;_Core3d__Core3dStartMainPass:w</title>
<path fill="none" stroke="white" d="M4082,-441.93C4254.26,-441.93 4296.67,-392.91 4463.86,-390.99"/>
<polygon fill="white" stroke="white" points="4464.02,-394.49 4474,-390.93 4463.98,-387.49 4464.02,-394.49"/>
</g>
<!-- _Core3d__Core3dScreenSpaceReflections -->
<g id="node56" class="node">
<title>_Core3d__Core3dScreenSpaceReflections</title>
<text text-anchor="start" x="68" y="-312.73" font-family="Helvetica,sans-Serif" font-size="14.00" fill="white">ScreenSpaceReflections</text>
<text text-anchor="start" x="29.5" y="-301.93" font-family="Helvetica,sans-Serif" font-size="10.00" fill="red">ViewNodeRunner&lt;ScreenSpaceReflectionsNode&gt;</text>
<path fill="none" stroke="white" d="M35.33,-293.93C35.33,-293.93 266.67,-293.93 266.67,-293.93 272.33,-293.93 278,-299.6 278,-305.27 278,-305.27 278,-316.6 278,-316.6 278,-322.27 272.33,-327.93 266.67,-327.93 266.67,-327.93 35.33,-327.93 35.33,-327.93 29.67,-327.93 24,-322.27 24,-316.6 24,-316.6 24,-305.27 24,-305.27 24,-299.6 29.67,-293.93 35.33,-293.93"/>
</g>
<!-- _Core3d__Core3dVolumetricFog&#45;&gt;_Core3d__Core3dStartMainPassPostProcessing -->
<g id="edge56" class="edge">
<title>_Core3d__Core3dVolumetricFog:e&#45;&gt;_Core3d__Core3dStartMainPassPostProcessing:w</title>
<path fill="none" stroke="white" d="M6740,-416.93C6780.93,-416.93 6786.67,-383.23 6821.82,-377.7"/>
<polygon fill="white" stroke="white" points="6822.29,-381.17 6832,-376.93 6821.77,-374.19 6822.29,-381.17"/>
</g>
<!-- _Core3d__Core3dBloom&#45;&gt;_Core3d__Core3dTonemapping -->
<g id="edge74" class="edge">
<title>_Core3d__Core3dBloom:e&#45;&gt;_Core3d__Core3dTonemapping:w</title>
<path fill="none" stroke="white" d="M7888,-356.93C7924.71,-356.93 7933.35,-349.16 7970,-346.93 8198.02,-333.08 8255.83,-335.83 8484,-346.93 8516.86,-348.53 8527.31,-353.71 8555.65,-354.75"/>
<polygon fill="white" stroke="white" points="8555.94,-358.26 8566,-354.93 8556.06,-351.26 8555.94,-358.26"/>
</g>
<!-- _Core3d__Core3dDepthOfField -->
<g id="node59" class="node">
<title>_Core3d__Core3dDepthOfField</title>
<text text-anchor="start" x="8032.5" y="-378.73" font-family="Helvetica,sans-Serif" font-size="14.00" fill="white">DepthOfField</text>
<text text-anchor="start" x="7983" y="-367.93" font-family="Helvetica,sans-Serif" font-size="10.00" fill="red">ViewNodeRunner&lt;DepthOfFieldNode&gt;</text>
<path fill="none" stroke="white" d="M7989.33,-359.93C7989.33,-359.93 8166.67,-359.93 8166.67,-359.93 8172.33,-359.93 8178,-365.6 8178,-371.27 8178,-371.27 8178,-382.6 8178,-382.6 8178,-388.27 8172.33,-393.93 8166.67,-393.93 8166.67,-393.93 7989.33,-393.93 7989.33,-393.93 7983.67,-393.93 7978,-388.27 7978,-382.6 7978,-382.6 7978,-371.27 7978,-371.27 7978,-365.6 7983.67,-359.93 7989.33,-359.93"/>
</g>
<!-- _Core3d__Core3dBloom&#45;&gt;_Core3d__Core3dDepthOfField -->
<g id="edge87" class="edge">
<title>_Core3d__Core3dBloom:e&#45;&gt;_Core3d__Core3dDepthOfField:w</title>
<path fill="none" stroke="white" d="M7888,-356.93C7926.25,-356.93 7936.48,-373.64 7969.91,-376.51"/>
<polygon fill="white" stroke="white" points="7969.86,-380.02 7980,-376.93 7970.15,-373.02 7969.86,-380.02"/>
</g>
<!-- _Core3d__Core3dDepthOfField&#45;&gt;_Core3d__Core3dTonemapping -->
<g id="edge75" class="edge">
<title>_Core3d__Core3dDepthOfField:e&#45;&gt;_Core3d__Core3dTonemapping:w</title>
<path fill="none" stroke="white" d="M8176,-376.93C8214.81,-376.93 8219.79,-400.16 8258,-406.93 8356.9,-424.46 8387.54,-434.94 8484,-406.93 8521.88,-395.93 8522.97,-361.6 8555.83,-355.77"/>
<polygon fill="white" stroke="white" points="8556.32,-359.25 8566,-354.93 8555.75,-352.27 8556.32,-359.25"/>
</g>
<!-- _Core3d__Core3dPostProcessing -->
<g id="node60" class="node">
<title>_Core3d__Core3dPostProcessing</title>
<text text-anchor="start" x="8319" y="-378.73" font-family="Helvetica,sans-Serif" font-size="14.00" fill="white">PostProcessing</text>
<text text-anchor="start" x="8271" y="-367.93" font-family="Helvetica,sans-Serif" font-size="10.00" fill="red">ViewNodeRunner&lt;PostProcessingNode&gt;</text>
<path fill="none" stroke="white" d="M8277.33,-359.93C8277.33,-359.93 8464.67,-359.93 8464.67,-359.93 8470.33,-359.93 8476,-365.6 8476,-371.27 8476,-371.27 8476,-382.6 8476,-382.6 8476,-388.27 8470.33,-393.93 8464.67,-393.93 8464.67,-393.93 8277.33,-393.93 8277.33,-393.93 8271.67,-393.93 8266,-388.27 8266,-382.6 8266,-382.6 8266,-371.27 8266,-371.27 8266,-365.6 8271.67,-359.93 8277.33,-359.93"/>
</g>
<!-- _Core3d__Core3dDepthOfField&#45;&gt;_Core3d__Core3dPostProcessing -->
<g id="edge88" class="edge">
<title>_Core3d__Core3dDepthOfField:e&#45;&gt;_Core3d__Core3dPostProcessing:w</title>
<path fill="none" stroke="white" d="M8176,-376.93C8213.22,-376.93 8225.03,-376.93 8257.68,-376.93"/>
<polygon fill="white" stroke="white" points="8258,-380.43 8268,-376.93 8258,-373.43 8258,-380.43"/>
</g>
<!-- _Core3d__Core3dPostProcessing&#45;&gt;_Core3d__Core3dTonemapping -->
<g id="edge76" class="edge">
<title>_Core3d__Core3dPostProcessing:e&#45;&gt;_Core3d__Core3dTonemapping:w</title>
<path fill="none" stroke="white" d="M8474,-376.93C8512.43,-376.93 8522.35,-358.55 8555.87,-355.39"/>
<polygon fill="white" stroke="white" points="8556.17,-358.88 8566,-354.93 8555.85,-351.89 8556.17,-358.88"/>
</g>
<!-- _Core3d__Core3dMotionBlur&#45;&gt;_Core3d__Core3dTaa -->
<g id="edge59" class="edge">
<title>_Core3d__Core3dMotionBlur:e&#45;&gt;_Core3d__Core3dTaa:w</title>
<path fill="none" stroke="white" d="M7318,-376.93C7356.25,-376.93 7366.48,-393.64 7399.91,-396.51"/>
<polygon fill="white" stroke="white" points="7399.86,-400.02 7410,-396.93 7400.15,-393.02 7399.86,-400.02"/>
</g>
<!-- _Core3d__Core3dMotionBlur&#45;&gt;_Core3d__Core3dBloom -->
<g id="edge85" class="edge">
<title>_Core3d__Core3dMotionBlur:e&#45;&gt;_Core3d__Core3dBloom:w</title>
<path fill="none" stroke="white" d="M7318,-376.93C7354.71,-376.93 7363.39,-369.72 7400,-366.93 7540.14,-356.25 7578.1,-356.89 7713.64,-356.93"/>
<polygon fill="white" stroke="white" points="7714,-360.43 7724,-356.93 7714,-353.43 7714,-360.43"/>
</g>
<!-- _Core3d__Core3dMsaaWriteback -->
<g id="node62" class="node">
<title>_Core3d__Core3dMsaaWriteback</title>
<text text-anchor="start" x="4225" y="-312.73" font-family="Helvetica,sans-Serif" font-size="14.00" fill="white">MsaaWriteback</text>
<text text-anchor="start" x="4177" y="-301.93" font-family="Helvetica,sans-Serif" font-size="10.00" fill="red">ViewNodeRunner&lt;MsaaWritebackNode&gt;</text>
<path fill="none" stroke="white" d="M4183.33,-293.93C4183.33,-293.93 4372.67,-293.93 4372.67,-293.93 4378.33,-293.93 4384,-299.6 4384,-305.27 4384,-305.27 4384,-316.6 4384,-316.6 4384,-322.27 4378.33,-327.93 4372.67,-327.93 4372.67,-327.93 4183.33,-327.93 4183.33,-327.93 4177.67,-327.93 4172,-322.27 4172,-316.6 4172,-316.6 4172,-305.27 4172,-305.27 4172,-299.6 4177.67,-293.93 4183.33,-293.93"/>
</g>
<!-- _Core3d__Core3dMsaaWriteback&#45;&gt;_Core3d__Core3dStartMainPass -->
<g id="edge49" class="edge">
<title>_Core3d__Core3dMsaaWriteback:e&#45;&gt;_Core3d__Core3dStartMainPass:w</title>
<path fill="none" stroke="white" d="M4382,-310.93C4432.48,-310.93 4421.72,-380.37 4463.83,-389.86"/>
<polygon fill="white" stroke="white" points="4463.69,-393.37 4474,-390.93 4464.42,-386.4 4463.69,-393.37"/>
</g>
<!-- _Core3d__Core3dUiPass&#45;&gt;_Core3d__Core3dUpscaling -->
<g id="edge78" class="edge">
<title>_Core3d__Core3dUiPass:e&#45;&gt;_Core3d__Core3dUpscaling:w</title>
<path fill="none" stroke="white" d="M9858,-432.93C9896.25,-432.93 9906.48,-416.22 9939.91,-413.35"/>
<polygon fill="white" stroke="white" points="9940.15,-416.84 9950,-412.93 9939.86,-409.85 9940.15,-416.84"/>
</g>
<!-- _CameraDriverLabel -->
<g id="node64" class="node">
<title>_CameraDriverLabel</title>
<text text-anchor="start" x="84" y="-604.73" font-family="Helvetica,sans-Serif" font-size="14.00" fill="white">CameraDriverLabel</text>
<text text-anchor="start" x="104" y="-593.93" font-family="Helvetica,sans-Serif" font-size="10.00" fill="red">CameraDriverNode</text>
<path fill="none" stroke="white" d="M90.33,-585.93C90.33,-585.93 211.67,-585.93 211.67,-585.93 217.33,-585.93 223,-591.6 223,-597.27 223,-597.27 223,-608.6 223,-608.6 223,-614.27 217.33,-619.93 211.67,-619.93 211.67,-619.93 90.33,-619.93 90.33,-619.93 84.67,-619.93 79,-614.27 79,-608.6 79,-608.6 79,-597.27 79,-597.27 79,-591.6 84.67,-585.93 90.33,-585.93"/>
</g>
</g>
</svg>
